<?xml version="1.0" encoding="utf-8" standalone="no"?>
<!DOCTYPE svg PUBLIC "-//W3C//DTD SVG 1.1//EN"
  "http://www.w3.org/Graphics/SVG/1.1/DTD/svg11.dtd">
<svg xmlns:xlink="http://www.w3.org/1999/xlink" width="719.255469pt" height="422.835781pt" viewBox="0 0 719.255469 422.835781" xmlns="http://www.w3.org/2000/svg" version="1.1">
 <metadata>
  <rdf:RDF xmlns:dc="http://purl.org/dc/elements/1.1/" xmlns:cc="http://creativecommons.org/ns#" xmlns:rdf="http://www.w3.org/1999/02/22-rdf-syntax-ns#">
   <cc:Work>
    <dc:type rdf:resource="http://purl.org/dc/dcmitype/StillImage"/>
    <dc:date>2025-05-27T14:12:30.669633</dc:date>
    <dc:format>image/svg+xml</dc:format>
    <dc:creator>
     <cc:Agent>
      <dc:title>Matplotlib v3.7.2, https://matplotlib.org/</dc:title>
     </cc:Agent>
    </dc:creator>
   </cc:Work>
  </rdf:RDF>
 </metadata>
 <defs>
  <style type="text/css">*{stroke-linejoin: round; stroke-linecap: butt}</style>
 </defs>
 <g id="figure_1">
  <g id="patch_1">
   <path d="M 0 422.835781 
L 719.255469 422.835781 
L 719.255469 0 
L 0 0 
z
" style="fill: #ffffff"/>
  </g>
  <g id="axes_1">
   <g id="patch_2">
    <path d="M 50.555469 374.4 
L 698.555469 374.4 
L 698.555469 7.2 
L 50.555469 7.2 
z
" style="fill: #ffffff"/>
   </g>
   <g id="matplotlib.axis_1">
    <g id="xtick_1">
     <g id="line2d_1">
      <path d="M 50.555469 374.4 
L 50.555469 7.2 
" clip-path="url(#p4c1278458d)" style="fill: none; stroke: #b0b0b0; stroke-width: 0.8; stroke-linecap: square"/>
     </g>
     <g id="line2d_2">
      <defs>
       <path id="m55746ff645" d="M 0 0 
L 0 3.5 
" style="stroke: #000000; stroke-width: 0.8"/>
      </defs>
      <g>
       <use xlink:href="#m55746ff645" x="50.555469" y="374.4" style="stroke: #000000; stroke-width: 0.8"/>
      </g>
     </g>
     <g id="text_1">
      <!-- 0 -->
      <g transform="translate(46.055469 393.89875) scale(0.18 -0.18)">
       <defs>
        <path id="TimesNewRomanPSMT-30" d="M 231 2094 
Q 231 2819 450 3342 
Q 669 3866 1031 4122 
Q 1313 4325 1613 4325 
Q 2100 4325 2488 3828 
Q 2972 3213 2972 2159 
Q 2972 1422 2759 906 
Q 2547 391 2217 158 
Q 1888 -75 1581 -75 
Q 975 -75 572 641 
Q 231 1244 231 2094 
z
M 844 2016 
Q 844 1141 1059 588 
Q 1238 122 1591 122 
Q 1759 122 1940 273 
Q 2122 425 2216 781 
Q 2359 1319 2359 2297 
Q 2359 3022 2209 3506 
Q 2097 3866 1919 4016 
Q 1791 4119 1609 4119 
Q 1397 4119 1231 3928 
Q 1006 3669 925 3112 
Q 844 2556 844 2016 
z
" transform="scale(0.015625)"/>
       </defs>
       <use xlink:href="#TimesNewRomanPSMT-30"/>
      </g>
     </g>
    </g>
    <g id="xtick_2">
     <g id="line2d_3">
      <path d="M 131.555469 374.4 
L 131.555469 7.2 
" clip-path="url(#p4c1278458d)" style="fill: none; stroke: #b0b0b0; stroke-width: 0.8; stroke-linecap: square"/>
     </g>
     <g id="line2d_4">
      <g>
       <use xlink:href="#m55746ff645" x="131.555469" y="374.4" style="stroke: #000000; stroke-width: 0.8"/>
      </g>
     </g>
     <g id="text_2">
      <!-- 50 -->
      <g transform="translate(122.555469 393.89875) scale(0.18 -0.18)">
       <defs>
        <path id="TimesNewRomanPSMT-35" d="M 2778 4238 
L 2534 3706 
L 1259 3706 
L 981 3138 
Q 1809 3016 2294 2522 
Q 2709 2097 2709 1522 
Q 2709 1188 2573 903 
Q 2438 619 2231 419 
Q 2025 219 1772 97 
Q 1413 -75 1034 -75 
Q 653 -75 479 54 
Q 306 184 306 341 
Q 306 428 378 495 
Q 450 563 559 563 
Q 641 563 702 538 
Q 763 513 909 409 
Q 1144 247 1384 247 
Q 1750 247 2026 523 
Q 2303 800 2303 1197 
Q 2303 1581 2056 1914 
Q 1809 2247 1375 2428 
Q 1034 2569 447 2591 
L 1259 4238 
L 2778 4238 
z
" transform="scale(0.015625)"/>
       </defs>
       <use xlink:href="#TimesNewRomanPSMT-35"/>
       <use xlink:href="#TimesNewRomanPSMT-30" x="50"/>
      </g>
     </g>
    </g>
    <g id="xtick_3">
     <g id="line2d_5">
      <path d="M 212.555469 374.4 
L 212.555469 7.2 
" clip-path="url(#p4c1278458d)" style="fill: none; stroke: #b0b0b0; stroke-width: 0.8; stroke-linecap: square"/>
     </g>
     <g id="line2d_6">
      <g>
       <use xlink:href="#m55746ff645" x="212.555469" y="374.4" style="stroke: #000000; stroke-width: 0.8"/>
      </g>
     </g>
     <g id="text_3">
      <!-- 100 -->
      <g transform="translate(199.055469 393.89875) scale(0.18 -0.18)">
       <defs>
        <path id="TimesNewRomanPSMT-31" d="M 750 3822 
L 1781 4325 
L 1884 4325 
L 1884 747 
Q 1884 391 1914 303 
Q 1944 216 2037 169 
Q 2131 122 2419 116 
L 2419 0 
L 825 0 
L 825 116 
Q 1125 122 1212 167 
Q 1300 213 1334 289 
Q 1369 366 1369 747 
L 1369 3034 
Q 1369 3497 1338 3628 
Q 1316 3728 1258 3775 
Q 1200 3822 1119 3822 
Q 1003 3822 797 3725 
L 750 3822 
z
" transform="scale(0.015625)"/>
       </defs>
       <use xlink:href="#TimesNewRomanPSMT-31"/>
       <use xlink:href="#TimesNewRomanPSMT-30" x="50"/>
       <use xlink:href="#TimesNewRomanPSMT-30" x="100"/>
      </g>
     </g>
    </g>
    <g id="xtick_4">
     <g id="line2d_7">
      <path d="M 293.555469 374.4 
L 293.555469 7.2 
" clip-path="url(#p4c1278458d)" style="fill: none; stroke: #b0b0b0; stroke-width: 0.8; stroke-linecap: square"/>
     </g>
     <g id="line2d_8">
      <g>
       <use xlink:href="#m55746ff645" x="293.555469" y="374.4" style="stroke: #000000; stroke-width: 0.8"/>
      </g>
     </g>
     <g id="text_4">
      <!-- 150 -->
      <g transform="translate(280.055469 393.89875) scale(0.18 -0.18)">
       <use xlink:href="#TimesNewRomanPSMT-31"/>
       <use xlink:href="#TimesNewRomanPSMT-35" x="50"/>
       <use xlink:href="#TimesNewRomanPSMT-30" x="100"/>
      </g>
     </g>
    </g>
    <g id="xtick_5">
     <g id="line2d_9">
      <path d="M 374.555469 374.4 
L 374.555469 7.2 
" clip-path="url(#p4c1278458d)" style="fill: none; stroke: #b0b0b0; stroke-width: 0.8; stroke-linecap: square"/>
     </g>
     <g id="line2d_10">
      <g>
       <use xlink:href="#m55746ff645" x="374.555469" y="374.4" style="stroke: #000000; stroke-width: 0.8"/>
      </g>
     </g>
     <g id="text_5">
      <!-- 200 -->
      <g transform="translate(361.055469 393.89875) scale(0.18 -0.18)">
       <defs>
        <path id="TimesNewRomanPSMT-32" d="M 2934 816 
L 2638 0 
L 138 0 
L 138 116 
Q 1241 1122 1691 1759 
Q 2141 2397 2141 2925 
Q 2141 3328 1894 3587 
Q 1647 3847 1303 3847 
Q 991 3847 742 3664 
Q 494 3481 375 3128 
L 259 3128 
Q 338 3706 661 4015 
Q 984 4325 1469 4325 
Q 1984 4325 2329 3994 
Q 2675 3663 2675 3213 
Q 2675 2891 2525 2569 
Q 2294 2063 1775 1497 
Q 997 647 803 472 
L 1909 472 
Q 2247 472 2383 497 
Q 2519 522 2628 598 
Q 2738 675 2819 816 
L 2934 816 
z
" transform="scale(0.015625)"/>
       </defs>
       <use xlink:href="#TimesNewRomanPSMT-32"/>
       <use xlink:href="#TimesNewRomanPSMT-30" x="50"/>
       <use xlink:href="#TimesNewRomanPSMT-30" x="100"/>
      </g>
     </g>
    </g>
    <g id="xtick_6">
     <g id="line2d_11">
      <path d="M 455.555469 374.4 
L 455.555469 7.2 
" clip-path="url(#p4c1278458d)" style="fill: none; stroke: #b0b0b0; stroke-width: 0.8; stroke-linecap: square"/>
     </g>
     <g id="line2d_12">
      <g>
       <use xlink:href="#m55746ff645" x="455.555469" y="374.4" style="stroke: #000000; stroke-width: 0.8"/>
      </g>
     </g>
     <g id="text_6">
      <!-- 250 -->
      <g transform="translate(442.055469 393.89875) scale(0.18 -0.18)">
       <use xlink:href="#TimesNewRomanPSMT-32"/>
       <use xlink:href="#TimesNewRomanPSMT-35" x="50"/>
       <use xlink:href="#TimesNewRomanPSMT-30" x="100"/>
      </g>
     </g>
    </g>
    <g id="xtick_7">
     <g id="line2d_13">
      <path d="M 536.555469 374.4 
L 536.555469 7.2 
" clip-path="url(#p4c1278458d)" style="fill: none; stroke: #b0b0b0; stroke-width: 0.8; stroke-linecap: square"/>
     </g>
     <g id="line2d_14">
      <g>
       <use xlink:href="#m55746ff645" x="536.555469" y="374.4" style="stroke: #000000; stroke-width: 0.8"/>
      </g>
     </g>
     <g id="text_7">
      <!-- 300 -->
      <g transform="translate(523.055469 393.89875) scale(0.18 -0.18)">
       <defs>
        <path id="TimesNewRomanPSMT-33" d="M 325 3431 
Q 506 3859 782 4092 
Q 1059 4325 1472 4325 
Q 1981 4325 2253 3994 
Q 2459 3747 2459 3466 
Q 2459 3003 1878 2509 
Q 2269 2356 2469 2072 
Q 2669 1788 2669 1403 
Q 2669 853 2319 450 
Q 1863 -75 997 -75 
Q 569 -75 414 31 
Q 259 138 259 259 
Q 259 350 332 419 
Q 406 488 509 488 
Q 588 488 669 463 
Q 722 447 909 348 
Q 1097 250 1169 231 
Q 1284 197 1416 197 
Q 1734 197 1970 444 
Q 2206 691 2206 1028 
Q 2206 1275 2097 1509 
Q 2016 1684 1919 1775 
Q 1784 1900 1550 2001 
Q 1316 2103 1072 2103 
L 972 2103 
L 972 2197 
Q 1219 2228 1467 2375 
Q 1716 2522 1828 2728 
Q 1941 2934 1941 3181 
Q 1941 3503 1739 3701 
Q 1538 3900 1238 3900 
Q 753 3900 428 3381 
L 325 3431 
z
" transform="scale(0.015625)"/>
       </defs>
       <use xlink:href="#TimesNewRomanPSMT-33"/>
       <use xlink:href="#TimesNewRomanPSMT-30" x="50"/>
       <use xlink:href="#TimesNewRomanPSMT-30" x="100"/>
      </g>
     </g>
    </g>
    <g id="xtick_8">
     <g id="line2d_15">
      <path d="M 617.555469 374.4 
L 617.555469 7.2 
" clip-path="url(#p4c1278458d)" style="fill: none; stroke: #b0b0b0; stroke-width: 0.8; stroke-linecap: square"/>
     </g>
     <g id="line2d_16">
      <g>
       <use xlink:href="#m55746ff645" x="617.555469" y="374.4" style="stroke: #000000; stroke-width: 0.8"/>
      </g>
     </g>
     <g id="text_8">
      <!-- 350 -->
      <g transform="translate(604.055469 393.89875) scale(0.18 -0.18)">
       <use xlink:href="#TimesNewRomanPSMT-33"/>
       <use xlink:href="#TimesNewRomanPSMT-35" x="50"/>
       <use xlink:href="#TimesNewRomanPSMT-30" x="100"/>
      </g>
     </g>
    </g>
    <g id="xtick_9">
     <g id="line2d_17">
      <path d="M 698.555469 374.4 
L 698.555469 7.2 
" clip-path="url(#p4c1278458d)" style="fill: none; stroke: #b0b0b0; stroke-width: 0.8; stroke-linecap: square"/>
     </g>
     <g id="line2d_18">
      <g>
       <use xlink:href="#m55746ff645" x="698.555469" y="374.4" style="stroke: #000000; stroke-width: 0.8"/>
      </g>
     </g>
     <g id="text_9">
      <!-- 400 -->
      <g transform="translate(685.055469 393.89875) scale(0.18 -0.18)">
       <defs>
        <path id="TimesNewRomanPSMT-34" d="M 2978 1563 
L 2978 1119 
L 2409 1119 
L 2409 0 
L 1894 0 
L 1894 1119 
L 100 1119 
L 100 1519 
L 2066 4325 
L 2409 4325 
L 2409 1563 
L 2978 1563 
z
M 1894 1563 
L 1894 3666 
L 406 1563 
L 1894 1563 
z
" transform="scale(0.015625)"/>
       </defs>
       <use xlink:href="#TimesNewRomanPSMT-34"/>
       <use xlink:href="#TimesNewRomanPSMT-30" x="50"/>
       <use xlink:href="#TimesNewRomanPSMT-30" x="100"/>
      </g>
     </g>
    </g>
    <g id="text_10">
     <!-- 采样时间/h -->
     <g transform="translate(337.055469 413.702187) scale(0.15 -0.15)">
      <defs>
       <path id="SimSun-91c7" d="M 5250 5250 
L 5625 4775 
Q 5200 4750 3800 4625 
Q 2400 4475 725 4475 
L 725 4575 
Q 1975 4650 2775 4737 
Q 3575 4825 4250 4950 
Q 4925 5075 5250 5250 
z
M 1075 4125 
Q 1825 3650 1887 3462 
Q 1950 3275 1950 3225 
Q 1950 3075 1850 2962 
Q 1750 2850 1725 2850 
Q 1625 2850 1550 3125 
Q 1425 3525 1025 4075 
L 1075 4125 
z
M 2600 4275 
L 2675 4325 
Q 3375 3925 3437 3762 
Q 3500 3600 3500 3550 
Q 3500 3400 3400 3262 
Q 3300 3125 3250 3125 
Q 3175 3125 3100 3425 
Q 2975 3825 2600 4275 
z
M 4825 4475 
L 5350 4125 
L 5125 3975 
Q 4450 3025 3975 2600 
L 3900 2675 
Q 4550 3575 4825 4475 
z
M 3350 2200 
Q 3350 50 3375 -500 
L 2950 -675 
Q 2975 875 2975 1975 
Q 2100 425 275 -450 
L 225 -350 
Q 1825 600 2675 2200 
L 1150 2200 
Q 825 2200 550 2125 
L 325 2350 
L 2975 2350 
Q 2975 2675 2950 3075 
L 3525 2775 
L 3350 2575 
L 3350 2350 
L 5300 2350 
L 5650 2700 
L 6125 2200 
L 3625 2200 
Q 4525 250 6100 -25 
L 6100 -125 
Q 5750 -100 5550 -425 
Q 4150 325 3500 2200 
L 3350 2200 
z
" transform="scale(0.015625)"/>
       <path id="SimSun-6837" d="M 2800 5025 
L 2850 5100 
Q 3625 4675 3700 4512 
Q 3775 4350 3775 4300 
Q 3775 4175 3675 4037 
Q 3575 3900 3550 3900 
Q 3450 3900 3375 4125 
Q 3250 4475 2800 5025 
z
M 4275 1325 
Q 4275 75 4300 -475 
L 3900 -625 
Q 3925 275 3925 1325 
L 3075 1325 
Q 2750 1325 2475 1250 
L 2250 1475 
L 3925 1475 
L 3925 2525 
L 3500 2525 
Q 3175 2525 2900 2450 
L 2675 2675 
L 3925 2675 
L 3925 3600 
L 3475 3600 
Q 3150 3600 2875 3525 
L 2650 3750 
L 4275 3750 
Q 4725 4600 4875 5250 
L 5400 4900 
Q 5150 4775 4900 4425 
Q 4650 4075 4425 3750 
L 5150 3750 
L 5450 4050 
L 5900 3600 
L 4275 3600 
L 4275 2675 
L 4975 2675 
L 5275 2975 
L 5725 2525 
L 4275 2525 
L 4275 1475 
L 5275 1475 
L 5600 1800 
L 6075 1325 
L 4275 1325 
z
M 1650 750 
Q 1650 400 1675 -500 
L 1275 -650 
Q 1300 825 1300 2375 
Q 875 1375 300 725 
L 225 775 
Q 925 1875 1300 3600 
L 1125 3600 
Q 800 3600 525 3525 
L 300 3750 
L 1300 3750 
Q 1300 4375 1275 5250 
L 1850 4950 
L 1650 4775 
L 1650 3750 
L 1975 3750 
L 2250 4025 
L 2675 3600 
L 1650 3600 
L 1650 2925 
Q 2125 2700 2300 2550 
Q 2475 2400 2475 2250 
Q 2475 2150 2412 2000 
Q 2350 1850 2300 1850 
Q 2225 1850 2125 2075 
Q 1950 2450 1650 2775 
L 1650 750 
z
" transform="scale(0.015625)"/>
       <path id="SimSun-65f6" d="M 4500 3600 
Q 4500 4575 4475 5225 
L 5100 4900 
L 4850 4725 
L 4850 3600 
L 5225 3600 
L 5550 3925 
L 6025 3450 
L 4850 3450 
L 4850 100 
Q 4850 -375 4300 -575 
Q 4275 -200 3475 -25 
L 3475 100 
Q 4150 0 4325 25 
Q 4500 50 4500 325 
L 4500 3450 
L 3200 3450 
Q 2875 3450 2600 3375 
L 2375 3600 
L 4500 3600 
z
M 2875 2825 
Q 3525 2375 3637 2200 
Q 3750 2025 3750 1925 
Q 3750 1800 3637 1637 
Q 3525 1475 3475 1475 
Q 3400 1475 3325 1775 
Q 3200 2225 2800 2750 
L 2875 2825 
z
M 925 4150 
L 925 2650 
L 1950 2650 
L 1950 4150 
L 925 4150 
z
M 925 2500 
L 925 900 
L 1950 900 
L 1950 2500 
L 925 2500 
z
M 2300 2000 
Q 2300 800 2325 450 
L 1950 250 
L 1950 750 
L 925 750 
L 925 225 
L 550 25 
Q 575 825 575 2425 
Q 575 4025 550 4500 
L 950 4300 
L 1900 4300 
L 2100 4550 
L 2500 4225 
L 2300 4050 
L 2300 2000 
z
" transform="scale(0.015625)"/>
       <path id="SimSun-95f4" d="M 2150 525 
Q 2175 1325 2175 2112 
Q 2175 2900 2150 3675 
L 2525 3450 
L 3750 3450 
L 4000 3700 
L 4325 3375 
L 4125 3200 
Q 4125 1550 4150 775 
L 3800 575 
L 3800 975 
L 2500 975 
L 2500 700 
L 2150 525 
z
M 2500 3300 
L 2500 2325 
L 3800 2325 
L 3800 3300 
L 2500 3300 
z
M 2500 2175 
L 2500 1125 
L 3800 1125 
L 3800 2175 
L 2500 2175 
z
M 1275 5200 
Q 1850 4825 1950 4675 
Q 2050 4525 2050 4425 
Q 2050 4275 1950 4137 
Q 1850 4000 1825 4000 
Q 1750 4000 1675 4275 
Q 1550 4650 1200 5125 
L 1275 5200 
z
M 1125 425 
Q 1125 25 1150 -375 
L 750 -525 
Q 775 -150 775 1950 
Q 775 4050 750 4425 
L 1350 4125 
L 1125 3975 
L 1125 425 
z
M 4225 125 
Q 5025 0 5125 37 
Q 5225 75 5225 250 
L 5225 4450 
L 3225 4450 
Q 2900 4450 2625 4375 
L 2400 4600 
L 5175 4600 
L 5425 4850 
L 5775 4500 
L 5575 4350 
L 5575 225 
Q 5575 -100 5462 -250 
Q 5350 -400 5000 -550 
Q 4800 -125 4225 25 
L 4225 125 
z
" transform="scale(0.015625)"/>
       <path id="SimSun-2f" d="M 400 -475 
L 225 -375 
L 2775 4975 
L 2950 4875 
L 400 -475 
z
" transform="scale(0.015625)"/>
       <path id="SimSun-68" d="M 200 100 
L 200 250 
L 325 250 
Q 450 250 500 300 
Q 550 350 550 450 
L 550 4025 
Q 550 4125 500 4175 
Q 450 4225 325 4225 
L 175 4225 
L 175 4375 
L 450 4375 
Q 550 4375 650 4425 
Q 750 4475 850 4575 
L 900 4575 
L 900 2450 
Q 1125 2725 1362 2837 
Q 1600 2950 1875 2950 
Q 2250 2950 2450 2737 
Q 2650 2525 2650 2075 
L 2650 450 
Q 2650 350 2712 300 
Q 2775 250 2875 250 
L 3000 250 
L 3000 100 
L 1950 100 
L 1950 250 
L 2075 250 
Q 2200 250 2250 300 
Q 2300 350 2300 450 
L 2300 2025 
Q 2300 2450 2162 2587 
Q 2025 2725 1800 2725 
Q 1600 2725 1362 2600 
Q 1125 2475 900 2175 
L 900 450 
Q 900 350 962 300 
Q 1025 250 1125 250 
L 1250 250 
L 1250 100 
L 200 100 
z
" transform="scale(0.015625)"/>
      </defs>
      <use xlink:href="#SimSun-91c7"/>
      <use xlink:href="#SimSun-6837" x="100"/>
      <use xlink:href="#SimSun-65f6" x="200"/>
      <use xlink:href="#SimSun-95f4" x="300"/>
      <use xlink:href="#SimSun-2f" x="400"/>
      <use xlink:href="#SimSun-68" x="450"/>
     </g>
    </g>
   </g>
   <g id="matplotlib.axis_2">
    <g id="ytick_1">
     <g id="line2d_19">
      <path d="M 50.555469 374.4 
L 698.555469 374.4 
" clip-path="url(#p4c1278458d)" style="fill: none; stroke: #b0b0b0; stroke-width: 0.8; stroke-linecap: square"/>
     </g>
     <g id="line2d_20">
      <defs>
       <path id="ma87a1fd2f8" d="M 0 0 
L -3.5 0 
" style="stroke: #000000; stroke-width: 0.8"/>
      </defs>
      <g>
       <use xlink:href="#ma87a1fd2f8" x="50.555469" y="374.4" style="stroke: #000000; stroke-width: 0.8"/>
      </g>
     </g>
     <g id="text_11">
      <!-- 0 -->
      <g transform="translate(34.555469 380.649375) scale(0.18 -0.18)">
       <use xlink:href="#TimesNewRomanPSMT-30"/>
      </g>
     </g>
    </g>
    <g id="ytick_2">
     <g id="line2d_21">
      <path d="M 50.555469 317.907692 
L 698.555469 317.907692 
" clip-path="url(#p4c1278458d)" style="fill: none; stroke: #b0b0b0; stroke-width: 0.8; stroke-linecap: square"/>
     </g>
     <g id="line2d_22">
      <g>
       <use xlink:href="#ma87a1fd2f8" x="50.555469" y="317.907692" style="stroke: #000000; stroke-width: 0.8"/>
      </g>
     </g>
     <g id="text_12">
      <!-- 2 -->
      <g transform="translate(34.555469 324.157067) scale(0.18 -0.18)">
       <use xlink:href="#TimesNewRomanPSMT-32"/>
      </g>
     </g>
    </g>
    <g id="ytick_3">
     <g id="line2d_23">
      <path d="M 50.555469 261.415385 
L 698.555469 261.415385 
" clip-path="url(#p4c1278458d)" style="fill: none; stroke: #b0b0b0; stroke-width: 0.8; stroke-linecap: square"/>
     </g>
     <g id="line2d_24">
      <g>
       <use xlink:href="#ma87a1fd2f8" x="50.555469" y="261.415385" style="stroke: #000000; stroke-width: 0.8"/>
      </g>
     </g>
     <g id="text_13">
      <!-- 4 -->
      <g transform="translate(34.555469 267.66476) scale(0.18 -0.18)">
       <use xlink:href="#TimesNewRomanPSMT-34"/>
      </g>
     </g>
    </g>
    <g id="ytick_4">
     <g id="line2d_25">
      <path d="M 50.555469 204.923077 
L 698.555469 204.923077 
" clip-path="url(#p4c1278458d)" style="fill: none; stroke: #b0b0b0; stroke-width: 0.8; stroke-linecap: square"/>
     </g>
     <g id="line2d_26">
      <g>
       <use xlink:href="#ma87a1fd2f8" x="50.555469" y="204.923077" style="stroke: #000000; stroke-width: 0.8"/>
      </g>
     </g>
     <g id="text_14">
      <!-- 6 -->
      <g transform="translate(34.555469 211.172452) scale(0.18 -0.18)">
       <defs>
        <path id="TimesNewRomanPSMT-36" d="M 2869 4325 
L 2869 4209 
Q 2456 4169 2195 4045 
Q 1934 3922 1679 3669 
Q 1425 3416 1258 3105 
Q 1091 2794 978 2366 
Q 1428 2675 1881 2675 
Q 2316 2675 2634 2325 
Q 2953 1975 2953 1425 
Q 2953 894 2631 456 
Q 2244 -75 1606 -75 
Q 1172 -75 869 213 
Q 275 772 275 1663 
Q 275 2231 503 2743 
Q 731 3256 1154 3653 
Q 1578 4050 1965 4187 
Q 2353 4325 2688 4325 
L 2869 4325 
z
M 925 2138 
Q 869 1716 869 1456 
Q 869 1156 980 804 
Q 1091 453 1309 247 
Q 1469 100 1697 100 
Q 1969 100 2183 356 
Q 2397 613 2397 1088 
Q 2397 1622 2184 2012 
Q 1972 2403 1581 2403 
Q 1463 2403 1327 2353 
Q 1191 2303 925 2138 
z
" transform="scale(0.015625)"/>
       </defs>
       <use xlink:href="#TimesNewRomanPSMT-36"/>
      </g>
     </g>
    </g>
    <g id="ytick_5">
     <g id="line2d_27">
      <path d="M 50.555469 148.430769 
L 698.555469 148.430769 
" clip-path="url(#p4c1278458d)" style="fill: none; stroke: #b0b0b0; stroke-width: 0.8; stroke-linecap: square"/>
     </g>
     <g id="line2d_28">
      <g>
       <use xlink:href="#ma87a1fd2f8" x="50.555469" y="148.430769" style="stroke: #000000; stroke-width: 0.8"/>
      </g>
     </g>
     <g id="text_15">
      <!-- 8 -->
      <g transform="translate(34.555469 154.680144) scale(0.18 -0.18)">
       <defs>
        <path id="TimesNewRomanPSMT-38" d="M 1228 2134 
Q 725 2547 579 2797 
Q 434 3047 434 3316 
Q 434 3728 753 4026 
Q 1072 4325 1600 4325 
Q 2113 4325 2425 4047 
Q 2738 3769 2738 3413 
Q 2738 3175 2569 2928 
Q 2400 2681 1866 2347 
Q 2416 1922 2594 1678 
Q 2831 1359 2831 1006 
Q 2831 559 2490 242 
Q 2150 -75 1597 -75 
Q 994 -75 656 303 
Q 388 606 388 966 
Q 388 1247 577 1523 
Q 766 1800 1228 2134 
z
M 1719 2469 
Q 2094 2806 2194 3001 
Q 2294 3197 2294 3444 
Q 2294 3772 2109 3958 
Q 1925 4144 1606 4144 
Q 1288 4144 1088 3959 
Q 888 3775 888 3528 
Q 888 3366 970 3203 
Q 1053 3041 1206 2894 
L 1719 2469 
z
M 1375 2016 
Q 1116 1797 991 1539 
Q 866 1281 866 981 
Q 866 578 1086 336 
Q 1306 94 1647 94 
Q 1984 94 2187 284 
Q 2391 475 2391 747 
Q 2391 972 2272 1150 
Q 2050 1481 1375 2016 
z
" transform="scale(0.015625)"/>
       </defs>
       <use xlink:href="#TimesNewRomanPSMT-38"/>
      </g>
     </g>
    </g>
    <g id="ytick_6">
     <g id="line2d_29">
      <path d="M 50.555469 91.938462 
L 698.555469 91.938462 
" clip-path="url(#p4c1278458d)" style="fill: none; stroke: #b0b0b0; stroke-width: 0.8; stroke-linecap: square"/>
     </g>
     <g id="line2d_30">
      <g>
       <use xlink:href="#ma87a1fd2f8" x="50.555469" y="91.938462" style="stroke: #000000; stroke-width: 0.8"/>
      </g>
     </g>
     <g id="text_16">
      <!-- 10 -->
      <g transform="translate(25.555469 98.187837) scale(0.18 -0.18)">
       <use xlink:href="#TimesNewRomanPSMT-31"/>
       <use xlink:href="#TimesNewRomanPSMT-30" x="50"/>
      </g>
     </g>
    </g>
    <g id="ytick_7">
     <g id="line2d_31">
      <path d="M 50.555469 35.446154 
L 698.555469 35.446154 
" clip-path="url(#p4c1278458d)" style="fill: none; stroke: #b0b0b0; stroke-width: 0.8; stroke-linecap: square"/>
     </g>
     <g id="line2d_32">
      <g>
       <use xlink:href="#ma87a1fd2f8" x="50.555469" y="35.446154" style="stroke: #000000; stroke-width: 0.8"/>
      </g>
     </g>
     <g id="text_17">
      <!-- 12 -->
      <g transform="translate(25.555469 41.695529) scale(0.18 -0.18)">
       <use xlink:href="#TimesNewRomanPSMT-31"/>
       <use xlink:href="#TimesNewRomanPSMT-32" x="50"/>
      </g>
     </g>
    </g>
    <g id="text_18">
     <!-- 菌体浓度/g/h -->
     <g transform="translate(19.563281 235.8) rotate(-90) scale(0.15 -0.15)">
      <defs>
       <path id="SimSun-83cc" d="M 5425 3225 
L 5425 400 
Q 5425 25 5450 -475 
L 5075 -650 
L 5075 -200 
L 1375 -200 
L 1375 -500 
L 1000 -650 
Q 1025 -150 1025 1537 
Q 1025 3225 1000 3725 
L 1425 3475 
L 5025 3475 
L 5250 3725 
L 5650 3375 
L 5425 3225 
z
M 1375 3325 
L 1375 -50 
L 5075 -50 
L 5075 3325 
L 1375 3325 
z
M 3025 2625 
Q 2200 2575 1875 2550 
L 1875 2675 
Q 2575 2725 3237 2875 
Q 3900 3025 4175 3200 
L 4525 2800 
Q 4175 2800 3350 2650 
L 3350 1950 
L 4100 1950 
L 4500 2250 
L 4925 1800 
L 3350 1800 
L 3350 1625 
Q 4050 1375 4362 1150 
Q 4675 925 4612 737 
Q 4550 550 4475 550 
Q 4350 550 4200 775 
Q 3925 1175 3350 1525 
Q 3350 775 3375 275 
L 3000 125 
Q 3025 750 3025 1600 
Q 2525 800 1550 275 
L 1500 350 
Q 2375 1025 2750 1800 
L 2375 1800 
Q 2050 1800 1775 1725 
L 1550 1950 
L 3025 1950 
L 3025 2625 
z
M 2225 3600 
L 2225 4275 
L 1075 4275 
Q 875 4275 600 4200 
L 375 4425 
L 2225 4425 
Q 2225 4825 2200 5225 
L 2750 5000 
L 2550 4825 
L 2550 4425 
L 3750 4425 
Q 3750 4800 3725 5200 
L 4300 4950 
L 4100 4775 
L 4100 4425 
L 5125 4425 
L 5500 4775 
L 6000 4275 
L 4100 4275 
L 4100 3825 
L 3750 3650 
L 3750 4275 
L 2550 4275 
L 2550 3725 
L 2225 3600 
z
" transform="scale(0.015625)"/>
       <path id="SimSun-4f53" d="M 1275 -600 
Q 1300 200 1300 650 
L 1300 3225 
Q 900 2575 325 2000 
L 250 2075 
Q 825 2800 1237 3812 
Q 1650 4825 1725 5225 
L 2250 4875 
L 2050 4775 
Q 1650 3950 1425 3475 
L 1825 3250 
L 1625 3075 
L 1625 -400 
L 1275 -600 
z
M 4100 575 
Q 4100 100 4125 -400 
L 3725 -575 
Q 3750 225 3750 500 
L 3750 825 
L 3350 825 
Q 3025 825 2750 750 
L 2525 975 
L 3750 975 
L 3750 3375 
Q 3375 2450 2875 1775 
Q 2375 1100 1800 650 
L 1725 725 
Q 2200 1175 2687 2000 
Q 3175 2825 3425 3575 
L 2875 3575 
Q 2550 3575 2275 3500 
L 2050 3725 
L 3750 3725 
L 3750 4475 
Q 3750 4725 3725 5200 
L 4325 4925 
L 4100 4750 
L 4100 3725 
L 5225 3725 
L 5550 4050 
L 6025 3575 
L 4325 3575 
Q 4675 2525 5187 1887 
Q 5700 1250 6125 1100 
L 6125 1000 
Q 5725 1000 5600 775 
Q 5250 1050 4837 1850 
Q 4425 2650 4200 3575 
L 4100 3575 
L 4100 975 
L 4600 975 
L 4900 1275 
L 5350 825 
L 4100 825 
L 4100 575 
z
" transform="scale(0.015625)"/>
       <path id="SimSun-6d53" d="M 4900 3200 
L 5250 3875 
L 3750 3875 
Q 3700 3725 3650 3575 
Q 3925 2450 4300 1925 
Q 5050 2600 5250 2975 
L 5650 2525 
Q 5275 2450 4962 2225 
Q 4650 2000 4375 1800 
Q 5075 750 6100 350 
L 6100 250 
Q 5650 275 5500 -25 
Q 3900 1250 3575 3375 
Q 3325 2800 3075 2375 
L 3375 2225 
L 3225 2075 
L 3225 100 
L 4175 600 
L 4225 500 
Q 3350 -100 3100 -500 
L 2775 -125 
Q 2900 -50 2875 425 
L 2875 2000 
Q 2200 1175 1475 625 
L 1425 700 
Q 2850 2150 3400 3875 
L 2575 3875 
Q 2600 3475 2475 3337 
Q 2350 3200 2187 3225 
Q 2025 3250 2025 3325 
Q 2025 3400 2150 3550 
Q 2375 3800 2475 4300 
L 2575 4300 
L 2575 4025 
L 3425 4025 
Q 3500 4325 3550 4637 
Q 3600 4950 3625 5225 
L 4175 4950 
L 3975 4800 
Q 3875 4375 3775 4025 
L 5200 4025 
L 5450 4300 
L 5900 3800 
Q 5500 3800 4975 3150 
L 4900 3200 
z
M 1975 3900 
Q 1350 1400 1287 1087 
Q 1225 775 1225 325 
Q 1225 -125 1225 -287 
Q 1225 -450 1125 -450 
Q 1050 -450 887 -375 
Q 725 -300 725 -100 
Q 725 75 775 250 
Q 850 500 850 675 
Q 850 825 750 925 
Q 650 1025 275 1125 
L 275 1225 
Q 725 1175 812 1200 
Q 900 1225 1037 1450 
Q 1175 1675 1875 3925 
L 1975 3900 
z
M 300 3500 
Q 1125 3150 1137 2900 
Q 1150 2650 1050 2537 
Q 950 2425 925 2425 
Q 850 2425 775 2675 
Q 650 3000 250 3425 
L 300 3500 
z
M 875 4950 
Q 1550 4650 1625 4525 
Q 1700 4400 1700 4300 
Q 1700 4175 1600 4025 
Q 1500 3875 1450 3875 
Q 1350 3875 1275 4125 
Q 1150 4525 825 4875 
L 875 4950 
z
" transform="scale(0.015625)"/>
       <path id="SimSun-5ea6" d="M 2550 2025 
Q 2575 2525 2575 3175 
L 1925 3175 
L 1625 3125 
L 1425 3325 
L 2575 3325 
Q 2575 3700 2550 4150 
L 3100 3875 
L 2900 3750 
L 2900 3325 
L 4300 3325 
Q 4300 3750 4275 4125 
L 4850 3875 
L 4625 3725 
L 4625 3325 
L 5100 3325 
L 5425 3650 
L 5900 3175 
L 4625 3175 
Q 4625 2450 4650 2225 
L 4300 2075 
L 4300 2300 
L 2900 2300 
L 2900 2175 
L 2550 2025 
z
M 4875 1500 
Q 4300 775 3900 425 
Q 4700 -75 6025 -125 
L 6025 -225 
Q 5625 -300 5550 -550 
Q 4375 -325 3675 225 
Q 2475 -450 1075 -625 
L 1050 -525 
Q 2375 -275 3450 450 
Q 2975 925 2575 1625 
L 2325 1625 
L 2100 1575 
L 1900 1775 
L 4525 1775 
L 4750 2000 
L 5125 1625 
L 4875 1500 
z
M 2700 1625 
Q 3175 975 3650 625 
Q 4150 1100 4500 1625 
L 2700 1625 
z
M 2900 3175 
L 2900 2450 
L 4300 2450 
L 4300 3175 
L 2900 3175 
z
M 975 4650 
L 1400 4400 
L 3375 4400 
Q 3350 4550 3262 4725 
Q 3175 4900 2900 5225 
L 2975 5275 
Q 3550 5025 3637 4887 
Q 3725 4750 3725 4725 
Q 3725 4575 3525 4400 
L 5150 4400 
L 5500 4750 
L 6000 4250 
L 1375 4250 
Q 1400 2750 1287 1912 
Q 1175 1075 925 475 
Q 675 -125 300 -625 
L 225 -575 
Q 725 300 862 1250 
Q 1000 2200 1012 3187 
Q 1025 4175 975 4650 
z
" transform="scale(0.015625)"/>
       <path id="SimSun-67" d="M 875 1975 
Q 875 1675 1050 1462 
Q 1225 1250 1525 1250 
Q 1850 1250 2012 1437 
Q 2175 1625 2175 1975 
Q 2175 2400 1987 2587 
Q 1800 2775 1525 2775 
Q 1250 2775 1062 2587 
Q 875 2400 875 1975 
z
M 2100 625 
Q 2475 575 2650 412 
Q 2825 250 2825 -25 
Q 2825 -400 2512 -625 
Q 2200 -850 1525 -850 
Q 1000 -850 675 -637 
Q 350 -425 350 -150 
Q 350 25 475 200 
Q 600 375 875 475 
Q 725 550 637 637 
Q 550 725 550 850 
Q 550 1000 650 1112 
Q 750 1225 900 1300 
Q 750 1425 637 1600 
Q 525 1775 525 1975 
Q 525 2350 787 2637 
Q 1050 2925 1525 2925 
Q 1725 2925 1912 2875 
Q 2100 2825 2225 2700 
Q 2400 2825 2537 2887 
Q 2675 2950 2775 2950 
Q 2900 2950 2950 2862 
Q 3000 2775 3000 2700 
Q 3000 2600 2962 2537 
Q 2925 2475 2825 2475 
Q 2750 2475 2700 2512 
Q 2650 2550 2625 2625 
Q 2600 2700 2512 2687 
Q 2425 2675 2325 2600 
Q 2425 2500 2475 2325 
Q 2525 2150 2525 1975 
Q 2525 1675 2287 1387 
Q 2050 1100 1525 1100 
Q 1375 1100 1250 1137 
Q 1125 1175 1050 1225 
Q 950 1175 900 1100 
Q 850 1025 850 975 
Q 850 875 900 825 
Q 950 775 1050 775 
Q 1375 725 1637 687 
Q 1900 650 2100 625 
z
M 1075 425 
Q 850 325 762 187 
Q 675 50 675 -150 
Q 675 -350 900 -525 
Q 1125 -700 1575 -700 
Q 2000 -700 2250 -562 
Q 2500 -425 2500 -150 
Q 2500 25 2437 125 
Q 2375 225 2250 250 
Q 2000 300 1700 350 
Q 1400 375 1075 425 
z
" transform="scale(0.015625)"/>
      </defs>
      <use xlink:href="#SimSun-83cc"/>
      <use xlink:href="#SimSun-4f53" x="100"/>
      <use xlink:href="#SimSun-6d53" x="200"/>
      <use xlink:href="#SimSun-5ea6" x="300"/>
      <use xlink:href="#SimSun-2f" x="400"/>
      <use xlink:href="#SimSun-67" x="450"/>
      <use xlink:href="#SimSun-2f" x="500"/>
      <use xlink:href="#SimSun-68" x="550"/>
     </g>
    </g>
   </g>
   <g id="line2d_33">
    <path d="M 57.035469 370.154038 
L 60.275469 369.195364 
L 63.515469 368.021453 
L 66.755469 366.584572 
L 69.995469 364.825684 
L 73.235469 362.673892 
L 76.475469 360.048694 
L 78.095469 358.525379 
L 79.715469 356.844168 
L 81.335469 354.988396 
L 82.955469 352.938855 
L 84.575469 350.678033 
L 86.195469 348.185028 
L 87.815469 345.433568 
L 89.435469 342.405582 
L 91.055469 339.078186 
L 92.675469 335.417483 
L 94.295469 331.389583 
L 95.915469 326.969057 
L 97.535469 322.127668 
L 99.155469 316.831514 
L 100.775469 311.032576 
L 102.395469 304.73086 
L 104.015469 297.929189 
L 105.635469 290.593661 
L 108.875469 274.377544 
L 113.735469 248.939059 
L 115.355469 242.651466 
L 116.975469 239.589586 
L 118.595469 237.990851 
L 123.455469 232.271009 
L 131.555469 222.661655 
L 138.035469 215.238574 
L 144.515469 208.168563 
L 150.995469 201.437496 
L 159.095469 193.359102 
L 167.195469 185.588578 
L 181.775469 171.973936 
L 188.255469 166.158061 
L 196.355469 159.167126 
L 204.455469 152.475616 
L 212.555469 146.086333 
L 222.275469 138.776241 
L 228.755469 134.098683 
L 235.235469 129.638593 
L 243.335469 124.345267 
L 253.055469 118.317541 
L 266.015469 110.67978 
L 275.735469 105.228277 
L 285.455469 100.070528 
L 293.555469 96.011566 
L 303.275469 91.497816 
L 316.235469 85.690413 
L 345.395469 73.115226 
L 353.495469 69.912099 
L 359.975469 67.612864 
L 366.455469 65.581983 
L 372.935469 63.782683 
L 381.035469 61.777231 
L 393.995469 58.862229 
L 406.955469 56.17318 
L 429.635469 51.436305 
L 439.355469 49.495799 
L 445.835469 48.399841 
L 452.315469 47.521378 
L 458.795469 46.866066 
L 468.515469 46.134494 
L 481.475469 45.43118 
L 502.535469 44.301334 
L 536.555469 42.033159 
L 547.895469 41.329817 
L 573.815469 39.327166 
L 581.915469 39.070127 
L 599.735469 38.635138 
L 606.215469 38.194493 
L 615.935469 37.239796 
L 628.895469 35.926344 
L 635.375469 35.539358 
L 643.475469 35.324692 
L 653.195469 35.344464 
L 672.635469 35.720136 
L 682.355469 36.129723 
L 696.935469 36.872582 
L 696.935469 36.872582 
" clip-path="url(#p4c1278458d)" style="fill: none; stroke: #0000ff; stroke-width: 2; stroke-linecap: square"/>
   </g>
   <g id="line2d_34">
    <path d="M 57.035469 366.133622 
L 58.655469 364.289957 
L 60.275469 363.707808 
L 61.895469 368.204129 
L 63.515469 366.497145 
L 65.135469 364.326323 
L 66.755469 363.888775 
L 68.375469 361.088446 
L 69.995469 363.30245 
L 71.615469 360.620297 
L 73.235469 359.946237 
L 74.855469 359.124181 
L 76.475469 357.602555 
L 78.095469 360.566152 
L 79.715469 357.235745 
L 81.335469 352.919529 
L 82.955469 351.586493 
L 84.575469 346.044479 
L 86.195469 344.417716 
L 87.815469 339.280278 
L 89.435469 339.07663 
L 91.055469 339.496534 
L 92.675469 339.571393 
L 94.295469 331.201386 
L 95.915469 325.132554 
L 97.535469 324.289352 
L 99.155469 316.902245 
L 100.775469 312.671017 
L 102.395469 312.82145 
L 104.015469 300.271665 
L 105.635469 291.190707 
L 107.255469 286.772733 
L 108.875469 276.143885 
L 112.115469 262.264513 
L 113.735469 250.592073 
L 115.355469 253.963035 
L 116.975469 251.513313 
L 118.595469 245.781255 
L 120.215469 244.314891 
L 121.835469 246.059965 
L 123.455469 236.404481 
L 125.075469 232.420284 
L 126.695469 212.617407 
L 128.315469 225.291294 
L 129.935469 228.150777 
L 131.555469 223.439695 
L 133.175469 211.035926 
L 134.795469 219.981604 
L 136.415469 217.127615 
L 138.035469 208.712003 
L 139.655469 205.244901 
L 141.275469 204.299794 
L 142.895469 203.027961 
L 144.515469 211.396917 
L 146.135469 213.425859 
L 147.755469 199.823352 
L 149.375469 201.773448 
L 150.995469 198.997391 
L 152.615469 198.634271 
L 154.235469 199.523779 
L 155.855469 194.205644 
L 157.475469 187.869428 
L 159.095469 192.45098 
L 160.715469 191.819185 
L 162.335469 184.144762 
L 163.955469 183.409095 
L 165.575469 186.893074 
L 167.195469 186.67698 
L 168.815469 181.512416 
L 170.435469 180.41526 
L 172.055469 181.507649 
L 173.675469 182.443772 
L 175.295469 180.642169 
L 176.915469 181.894554 
L 178.535469 176.94638 
L 180.155469 184.47359 
L 181.775469 178.883182 
L 183.395469 173.79888 
L 185.015469 171.478203 
L 186.635469 167.361971 
L 188.255469 160.410446 
L 189.875469 169.786897 
L 191.495469 162.075003 
L 193.115469 157.171869 
L 194.735469 160.140962 
L 196.355469 158.319991 
L 197.975469 159.277503 
L 199.595469 154.271939 
L 202.835469 149.258482 
L 204.455469 144.870692 
L 206.075469 141.03814 
L 207.695469 150.643709 
L 209.315469 157.627048 
L 210.935469 156.271128 
L 212.555469 146.843712 
L 214.175469 140.079295 
L 215.795469 156.085165 
L 217.415469 162.644774 
L 219.035469 161.725851 
L 220.655469 154.609831 
L 223.895469 148.093806 
L 225.515469 135.282808 
L 227.135469 141.104407 
L 228.755469 140.607569 
L 230.375469 139.84747 
L 231.995469 135.316183 
L 233.615469 125.206652 
L 235.235469 113.599334 
L 236.855469 125.29991 
L 238.475469 129.909208 
L 240.095469 121.428487 
L 241.715469 122.17967 
L 243.335469 121.999862 
L 244.955469 128.27738 
L 246.575469 120.545741 
L 248.195469 126.597684 
L 249.815469 123.418236 
L 251.435469 111.606327 
L 253.055469 112.371436 
L 254.675469 120.224806 
L 256.295469 124.465625 
L 257.915469 117.040536 
L 259.535469 124.355046 
L 261.155469 120.34414 
L 262.775469 115.211471 
L 264.395469 112.142439 
L 266.015469 111.002439 
L 267.635469 114.308952 
L 269.255469 115.098198 
L 270.875469 113.530482 
L 272.495469 107.576888 
L 274.115469 117.238608 
L 275.735469 115.221168 
L 277.355469 113.486762 
L 278.975469 118.594029 
L 280.595469 106.053807 
L 282.215469 101.59897 
L 283.835469 110.635683 
L 285.455469 110.665234 
L 287.075469 107.917784 
L 288.695469 103.866606 
L 290.315469 104.449106 
L 291.935469 104.621345 
L 293.555469 109.359216 
L 295.175469 102.890845 
L 296.795469 95.564779 
L 298.415469 96.461748 
L 300.035469 99.695368 
L 301.655469 95.136632 
L 303.275469 91.640127 
L 306.515469 90.672097 
L 308.135469 92.903314 
L 309.755469 99.409344 
L 311.375469 91.544849 
L 312.995469 91.248346 
L 314.615469 96.761294 
L 316.235469 86.792781 
L 317.855469 83.9375 
L 319.475469 85.174611 
L 321.095469 94.305741 
L 322.715469 78.573329 
L 324.335469 88.004355 
L 325.955469 81.798437 
L 327.575469 74.946581 
L 329.195469 78.452783 
L 330.815469 79.841741 
L 332.435469 70.475203 
L 334.055469 66.86777 
L 335.675469 77.972162 
L 337.295469 72.580406 
L 338.915469 69.117331 
L 340.535469 72.991501 
L 342.155469 83.221363 
L 343.775469 75.473535 
L 345.395469 65.097348 
L 347.015469 84.359128 
L 348.635469 81.932748 
L 350.255469 73.173438 
L 351.875469 72.729668 
L 353.495469 76.005822 
L 355.115469 73.565219 
L 356.735469 68.95188 
L 358.355469 70.137028 
L 359.975469 77.179899 
L 361.595469 73.324181 
L 363.215469 67.337292 
L 364.835469 70.71115 
L 366.455469 65.202674 
L 368.075469 64.169481 
L 369.695469 63.534615 
L 371.315469 65.85839 
L 372.935469 75.126066 
L 374.555469 71.304586 
L 376.175469 73.302496 
L 377.795469 63.318279 
L 379.415469 64.315294 
L 381.035469 59.135269 
L 382.655469 61.080246 
L 384.275469 73.665669 
L 385.895469 69.939764 
L 387.515469 74.141334 
L 389.135469 66.705928 
L 390.755469 65.463295 
L 392.375469 67.510286 
L 393.995469 54.007125 
L 395.615469 66.070146 
L 397.235469 60.450283 
L 398.855469 66.035047 
L 400.475469 66.02613 
L 402.095469 63.846849 
L 403.715469 67.684195 
L 405.335469 56.569998 
L 406.955469 62.895843 
L 408.575469 58.98334 
L 410.195469 65.534545 
L 411.815469 66.983925 
L 413.435469 65.220857 
L 415.055469 71.509959 
L 416.675469 55.371597 
L 418.295469 55.691265 
L 419.915469 60.409149 
L 421.535469 59.416201 
L 423.155469 57.887975 
L 424.775469 54.997406 
L 426.395469 67.508885 
L 428.015469 54.961256 
L 429.635469 52.040785 
L 431.255469 65.706084 
L 432.875469 59.446102 
L 434.495469 57.266955 
L 436.115469 51.745926 
L 437.735469 61.602513 
L 439.355469 58.875859 
L 440.975469 49.743032 
L 442.595469 53.262757 
L 444.215469 53.035242 
L 445.835469 55.795433 
L 447.455469 49.651741 
L 449.075469 53.223482 
L 450.695469 56.273711 
L 452.315469 54.03056 
L 453.935469 53.258124 
L 455.555469 51.811789 
L 457.175469 54.038319 
L 458.795469 50.51986 
L 460.415469 53.409864 
L 462.035469 56.018881 
L 463.655469 54.571791 
L 465.275469 53.599612 
L 466.895469 51.943891 
L 468.515469 53.921032 
L 470.135469 52.296154 
L 471.755469 53.197918 
L 473.375469 55.533061 
L 474.995469 55.035657 
L 476.615469 57.529705 
L 478.235469 55.988226 
L 479.855469 54.977957 
L 481.475469 52.15263 
L 483.095469 51.939742 
L 484.715469 52.202761 
L 486.335469 54.508192 
L 487.955469 54.921846 
L 489.575469 51.811277 
L 491.195469 51.52097 
L 492.815469 53.487606 
L 494.435469 51.445814 
L 497.675469 53.026487 
L 499.295469 49.27623 
L 500.915469 50.914011 
L 502.535469 50.823609 
L 504.155469 47.678748 
L 505.775469 48.075485 
L 507.395469 47.113165 
L 509.015469 45.435732 
L 510.635469 45.258267 
L 512.255469 46.841849 
L 513.875469 48.013852 
L 515.495469 48.157322 
L 517.115469 50.227344 
L 518.735469 47.880618 
L 520.355469 44.180923 
L 521.975469 45.46302 
L 523.595469 48.510528 
L 525.215469 49.475111 
L 526.835469 50.123068 
L 528.455469 51.711688 
L 530.075469 54.158514 
L 531.695469 51.098669 
L 533.315469 49.180036 
L 534.935469 50.621172 
L 536.555469 48.507646 
L 538.175469 50.057933 
L 539.795469 51.343586 
L 541.415469 48.121872 
L 543.035469 47.124722 
L 544.655469 46.923713 
L 546.275469 47.015112 
L 547.895469 46.037869 
L 549.515469 45.241808 
L 551.135469 45.427031 
L 552.755469 48.011185 
L 554.375469 48.398548 
L 555.995469 47.448485 
L 557.615469 47.903919 
L 559.235469 50.934645 
L 560.855469 50.532116 
L 562.475469 49.020673 
L 564.095469 49.537795 
L 565.715469 46.189043 
L 567.335469 43.719805 
L 568.955469 45.611123 
L 570.575469 46.812218 
L 572.195469 46.296174 
L 573.815469 45.551402 
L 575.435469 46.689167 
L 577.055469 47.966657 
L 578.675469 49.793271 
L 580.295469 51.798023 
L 581.915469 52.212621 
L 583.535469 51.24125 
L 586.775469 50.601615 
L 588.395469 51.801498 
L 590.015469 53.225637 
L 591.635469 50.842519 
L 593.255469 49.179416 
L 594.875469 49.961012 
L 596.495469 48.096443 
L 599.735469 49.220604 
L 601.355469 50.079861 
L 602.975469 48.250688 
L 604.595469 46.215172 
L 606.215469 46.980417 
L 607.835469 44.373447 
L 609.455469 44.62394 
L 611.075469 45.927963 
L 612.695469 45.748666 
L 614.315469 48.862199 
L 615.935469 48.380985 
L 617.555469 47.085581 
L 619.175469 47.240149 
L 620.795469 46.247524 
L 622.415469 45.078728 
L 624.035469 45.476812 
L 625.655469 47.306793 
L 627.275469 46.56854 
L 628.895469 44.516728 
L 630.515469 48.016519 
L 632.135469 48.755768 
L 633.755469 47.045902 
L 635.375469 48.20783 
L 636.995469 46.699915 
L 638.615469 47.570405 
L 640.235469 46.054193 
L 641.855469 44.743192 
L 643.475469 44.93418 
L 645.095469 47.086605 
L 646.715469 46.675106 
L 648.335469 45.201752 
L 649.955469 49.212523 
L 651.575469 49.494102 
L 653.195469 47.800964 
L 654.815469 48.56575 
L 656.435469 47.781596 
L 658.055469 46.614361 
L 661.295469 48.009084 
L 662.915469 47.849479 
L 664.535469 46.635507 
L 666.155469 48.379961 
L 667.775469 49.523329 
L 669.395469 45.867461 
L 671.015469 44.382282 
L 672.635469 45.774015 
L 674.255469 43.617523 
L 675.875469 42.546105 
L 677.495469 42.730951 
L 679.115469 41.828864 
L 680.735469 41.504427 
L 682.355469 43.476693 
L 683.975469 43.160068 
L 685.595469 41.781131 
L 687.215469 44.955946 
L 688.835469 43.471198 
L 690.455469 44.398903 
L 692.075469 44.502774 
L 693.695469 44.789444 
L 695.315469 47.795765 
L 696.935469 47.898316 
L 696.935469 47.898316 
" clip-path="url(#p4c1278458d)" style="fill: none; stroke-dasharray: 2,3.3; stroke-dashoffset: 0; stroke: #bf00bf; stroke-width: 2"/>
   </g>
   <g id="patch_3">
    <path d="M 50.555469 374.4 
L 50.555469 7.2 
" style="fill: none; stroke: #000000; stroke-width: 0.8; stroke-linejoin: miter; stroke-linecap: square"/>
   </g>
   <g id="patch_4">
    <path d="M 698.555469 374.4 
L 698.555469 7.2 
" style="fill: none; stroke: #000000; stroke-width: 0.8; stroke-linejoin: miter; stroke-linecap: square"/>
   </g>
   <g id="patch_5">
    <path d="M 50.555469 374.4 
L 698.555469 374.4 
" style="fill: none; stroke: #000000; stroke-width: 0.8; stroke-linejoin: miter; stroke-linecap: square"/>
   </g>
   <g id="patch_6">
    <path d="M 50.555469 7.2 
L 698.555469 7.2 
" style="fill: none; stroke: #000000; stroke-width: 0.8; stroke-linejoin: miter; stroke-linecap: square"/>
   </g>
   <g id="legend_1">
    <g id="patch_7">
     <path d="M 64.555469 79.75625 
L 215.389844 79.75625 
Q 219.389844 79.75625 219.389844 75.75625 
L 219.389844 21.2 
Q 219.389844 17.2 215.389844 17.2 
L 64.555469 17.2 
Q 60.555469 17.2 60.555469 21.2 
L 60.555469 75.75625 
Q 60.555469 79.75625 64.555469 79.75625 
z
" style="fill: #ffffff; opacity: 0.8; stroke: #cccccc; stroke-linejoin: miter"/>
    </g>
    <g id="line2d_35">
     <path d="M 68.555469 32.2 
L 88.555469 32.2 
L 108.555469 32.2 
" style="fill: none; stroke: #0000ff; stroke-width: 2; stroke-linecap: square"/>
    </g>
    <g id="text_19">
     <!-- Real Value -->
     <g transform="translate(124.555469 39.2) scale(0.2 -0.2)">
      <defs>
       <path id="TimesNewRomanPSMT-52" d="M 4325 0 
L 3194 0 
L 1759 1981 
Q 1600 1975 1500 1975 
Q 1459 1975 1412 1976 
Q 1366 1978 1316 1981 
L 1316 750 
Q 1316 350 1403 253 
Q 1522 116 1759 116 
L 1925 116 
L 1925 0 
L 109 0 
L 109 116 
L 269 116 
Q 538 116 653 291 
Q 719 388 719 750 
L 719 3488 
Q 719 3888 631 3984 
Q 509 4122 269 4122 
L 109 4122 
L 109 4238 
L 1653 4238 
Q 2328 4238 2648 4139 
Q 2969 4041 3192 3777 
Q 3416 3513 3416 3147 
Q 3416 2756 3161 2468 
Q 2906 2181 2372 2063 
L 3247 847 
Q 3547 428 3762 290 
Q 3978 153 4325 116 
L 4325 0 
z
M 1316 2178 
Q 1375 2178 1419 2176 
Q 1463 2175 1491 2175 
Q 2097 2175 2405 2437 
Q 2713 2700 2713 3106 
Q 2713 3503 2464 3751 
Q 2216 4000 1806 4000 
Q 1625 4000 1316 3941 
L 1316 2178 
z
" transform="scale(0.015625)"/>
       <path id="TimesNewRomanPSMT-65" d="M 681 1784 
Q 678 1147 991 784 
Q 1303 422 1725 422 
Q 2006 422 2214 576 
Q 2422 731 2563 1106 
L 2659 1044 
Q 2594 616 2278 264 
Q 1963 -88 1488 -88 
Q 972 -88 605 314 
Q 238 716 238 1394 
Q 238 2128 614 2539 
Q 991 2950 1559 2950 
Q 2041 2950 2350 2633 
Q 2659 2316 2659 1784 
L 681 1784 
z
M 681 1966 
L 2006 1966 
Q 1991 2241 1941 2353 
Q 1863 2528 1708 2628 
Q 1553 2728 1384 2728 
Q 1125 2728 920 2526 
Q 716 2325 681 1966 
z
" transform="scale(0.015625)"/>
       <path id="TimesNewRomanPSMT-61" d="M 1822 413 
Q 1381 72 1269 19 
Q 1100 -59 909 -59 
Q 613 -59 420 144 
Q 228 347 228 678 
Q 228 888 322 1041 
Q 450 1253 767 1440 
Q 1084 1628 1822 1897 
L 1822 2009 
Q 1822 2438 1686 2597 
Q 1550 2756 1291 2756 
Q 1094 2756 978 2650 
Q 859 2544 859 2406 
L 866 2225 
Q 866 2081 792 2003 
Q 719 1925 600 1925 
Q 484 1925 411 2006 
Q 338 2088 338 2228 
Q 338 2497 613 2722 
Q 888 2947 1384 2947 
Q 1766 2947 2009 2819 
Q 2194 2722 2281 2516 
Q 2338 2381 2338 1966 
L 2338 994 
Q 2338 584 2353 492 
Q 2369 400 2405 369 
Q 2441 338 2488 338 
Q 2538 338 2575 359 
Q 2641 400 2828 588 
L 2828 413 
Q 2478 -56 2159 -56 
Q 2006 -56 1915 50 
Q 1825 156 1822 413 
z
M 1822 616 
L 1822 1706 
Q 1350 1519 1213 1441 
Q 966 1303 859 1153 
Q 753 1003 753 825 
Q 753 600 887 451 
Q 1022 303 1197 303 
Q 1434 303 1822 616 
z
" transform="scale(0.015625)"/>
       <path id="TimesNewRomanPSMT-6c" d="M 1184 4444 
L 1184 647 
Q 1184 378 1223 290 
Q 1263 203 1344 158 
Q 1425 113 1647 113 
L 1647 0 
L 244 0 
L 244 113 
Q 441 113 512 153 
Q 584 194 625 287 
Q 666 381 666 647 
L 666 3247 
Q 666 3731 644 3842 
Q 622 3953 573 3993 
Q 525 4034 450 4034 
Q 369 4034 244 3984 
L 191 4094 
L 1044 4444 
L 1184 4444 
z
" transform="scale(0.015625)"/>
       <path id="TimesNewRomanPSMT-20" transform="scale(0.015625)"/>
       <path id="TimesNewRomanPSMT-56" d="M 4544 4238 
L 4544 4122 
Q 4319 4081 4203 3978 
Q 4038 3825 3909 3509 
L 2431 -97 
L 2316 -97 
L 728 3556 
Q 606 3838 556 3900 
Q 478 3997 364 4051 
Q 250 4106 56 4122 
L 56 4238 
L 1788 4238 
L 1788 4122 
Q 1494 4094 1406 4022 
Q 1319 3950 1319 3838 
Q 1319 3681 1463 3350 
L 2541 866 
L 3541 3319 
Q 3688 3681 3688 3822 
Q 3688 3913 3597 3995 
Q 3506 4078 3291 4113 
Q 3275 4116 3238 4122 
L 3238 4238 
L 4544 4238 
z
" transform="scale(0.015625)"/>
       <path id="TimesNewRomanPSMT-75" d="M 2709 2863 
L 2709 1128 
Q 2709 631 2732 520 
Q 2756 409 2807 365 
Q 2859 322 2928 322 
Q 3025 322 3147 375 
L 3191 266 
L 2334 -88 
L 2194 -88 
L 2194 519 
Q 1825 119 1631 15 
Q 1438 -88 1222 -88 
Q 981 -88 804 51 
Q 628 191 559 409 
Q 491 628 491 1028 
L 491 2306 
Q 491 2509 447 2587 
Q 403 2666 317 2708 
Q 231 2750 6 2747 
L 6 2863 
L 1009 2863 
L 1009 947 
Q 1009 547 1148 422 
Q 1288 297 1484 297 
Q 1619 297 1789 381 
Q 1959 466 2194 703 
L 2194 2325 
Q 2194 2569 2105 2655 
Q 2016 2741 1734 2747 
L 1734 2863 
L 2709 2863 
z
" transform="scale(0.015625)"/>
      </defs>
      <use xlink:href="#TimesNewRomanPSMT-52"/>
      <use xlink:href="#TimesNewRomanPSMT-65" x="66.699219"/>
      <use xlink:href="#TimesNewRomanPSMT-61" x="111.083984"/>
      <use xlink:href="#TimesNewRomanPSMT-6c" x="155.46875"/>
      <use xlink:href="#TimesNewRomanPSMT-20" x="183.251953"/>
      <use xlink:href="#TimesNewRomanPSMT-56" x="206.501953"/>
      <use xlink:href="#TimesNewRomanPSMT-61" x="267.59375"/>
      <use xlink:href="#TimesNewRomanPSMT-6c" x="311.978516"/>
      <use xlink:href="#TimesNewRomanPSMT-75" x="339.761719"/>
      <use xlink:href="#TimesNewRomanPSMT-65" x="389.761719"/>
     </g>
    </g>
    <g id="line2d_36">
     <path d="M 68.555469 60.478125 
L 88.555469 60.478125 
L 108.555469 60.478125 
" style="fill: none; stroke-dasharray: 2,3.3; stroke-dashoffset: 0; stroke: #bf00bf; stroke-width: 2"/>
    </g>
    <g id="text_20">
     <!-- GCN -->
     <g transform="translate(124.555469 67.478125) scale(0.2 -0.2)">
      <defs>
       <path id="TimesNewRomanPSMT-47" d="M 3928 4334 
L 4038 2997 
L 3928 2997 
Q 3763 3497 3500 3750 
Q 3122 4116 2528 4116 
Q 1719 4116 1297 3475 
Q 944 2934 944 2188 
Q 944 1581 1178 1081 
Q 1413 581 1792 348 
Q 2172 116 2572 116 
Q 2806 116 3025 175 
Q 3244 234 3447 350 
L 3447 1575 
Q 3447 1894 3398 1992 
Q 3350 2091 3248 2142 
Q 3147 2194 2891 2194 
L 2891 2313 
L 4531 2313 
L 4531 2194 
L 4453 2194 
Q 4209 2194 4119 2031 
Q 4056 1916 4056 1575 
L 4056 278 
Q 3697 84 3347 -6 
Q 2997 -97 2569 -97 
Q 1341 -97 703 691 
Q 225 1281 225 2053 
Q 225 2613 494 3125 
Q 813 3734 1369 4063 
Q 1834 4334 2469 4334 
Q 2700 4334 2889 4296 
Q 3078 4259 3425 4131 
Q 3600 4066 3659 4066 
Q 3719 4066 3761 4120 
Q 3803 4175 3813 4334 
L 3928 4334 
z
" transform="scale(0.015625)"/>
       <path id="TimesNewRomanPSMT-43" d="M 3853 4334 
L 3950 2894 
L 3853 2894 
Q 3659 3541 3300 3825 
Q 2941 4109 2438 4109 
Q 2016 4109 1675 3895 
Q 1334 3681 1139 3212 
Q 944 2744 944 2047 
Q 944 1472 1128 1050 
Q 1313 628 1683 403 
Q 2053 178 2528 178 
Q 2941 178 3256 354 
Q 3572 531 3950 1056 
L 4047 994 
Q 3728 428 3303 165 
Q 2878 -97 2294 -97 
Q 1241 -97 663 684 
Q 231 1266 231 2053 
Q 231 2688 515 3219 
Q 800 3750 1298 4042 
Q 1797 4334 2388 4334 
Q 2847 4334 3294 4109 
Q 3425 4041 3481 4041 
Q 3566 4041 3628 4100 
Q 3709 4184 3744 4334 
L 3853 4334 
z
" transform="scale(0.015625)"/>
       <path id="TimesNewRomanPSMT-4e" d="M -84 4238 
L 1066 4238 
L 3656 1059 
L 3656 3503 
Q 3656 3894 3569 3991 
Q 3453 4122 3203 4122 
L 3056 4122 
L 3056 4238 
L 4531 4238 
L 4531 4122 
L 4381 4122 
Q 4113 4122 4000 3959 
Q 3931 3859 3931 3503 
L 3931 -69 
L 3819 -69 
L 1025 3344 
L 1025 734 
Q 1025 344 1109 247 
Q 1228 116 1475 116 
L 1625 116 
L 1625 0 
L 150 0 
L 150 116 
L 297 116 
Q 569 116 681 278 
Q 750 378 750 734 
L 750 3681 
Q 566 3897 470 3965 
Q 375 4034 191 4094 
Q 100 4122 -84 4122 
L -84 4238 
z
" transform="scale(0.015625)"/>
      </defs>
      <use xlink:href="#TimesNewRomanPSMT-47"/>
      <use xlink:href="#TimesNewRomanPSMT-43" x="72.216797"/>
      <use xlink:href="#TimesNewRomanPSMT-4e" x="138.916016"/>
     </g>
    </g>
   </g>
  </g>
 </g>
 <defs>
  <clipPath id="p4c1278458d">
   <rect x="50.555469" y="7.2" width="648" height="367.2"/>
  </clipPath>
 </defs>
</svg>
