<?xml version="1.0" encoding="utf-8" standalone="no"?>
<!DOCTYPE svg PUBLIC "-//W3C//DTD SVG 1.1//EN"
  "http://www.w3.org/Graphics/SVG/1.1/DTD/svg11.dtd">
<svg xmlns:xlink="http://www.w3.org/1999/xlink" width="723.755469pt" height="429.085156pt" viewBox="0 0 723.755469 429.085156" xmlns="http://www.w3.org/2000/svg" version="1.1">
 <metadata>
  <rdf:RDF xmlns:dc="http://purl.org/dc/elements/1.1/" xmlns:cc="http://creativecommons.org/ns#" xmlns:rdf="http://www.w3.org/1999/02/22-rdf-syntax-ns#">
   <cc:Work>
    <dc:type rdf:resource="http://purl.org/dc/dcmitype/StillImage"/>
    <dc:date>2025-05-27T14:12:30.483841</dc:date>
    <dc:format>image/svg+xml</dc:format>
    <dc:creator>
     <cc:Agent>
      <dc:title>Matplotlib v3.7.2, https://matplotlib.org/</dc:title>
     </cc:Agent>
    </dc:creator>
   </cc:Work>
  </rdf:RDF>
 </metadata>
 <defs>
  <style type="text/css">*{stroke-linejoin: round; stroke-linecap: butt}</style>
 </defs>
 <g id="figure_1">
  <g id="patch_1">
   <path d="M 0 429.085156 
L 723.755469 429.085156 
L 723.755469 0 
L 0 0 
z
" style="fill: #ffffff"/>
  </g>
  <g id="axes_1">
   <g id="patch_2">
    <path d="M 55.055469 380.649375 
L 703.055469 380.649375 
L 703.055469 13.449375 
L 55.055469 13.449375 
z
" style="fill: #ffffff"/>
   </g>
   <g id="matplotlib.axis_1">
    <g id="xtick_1">
     <g id="line2d_1">
      <path d="M 55.055469 380.649375 
L 55.055469 13.449375 
" clip-path="url(#pffe967a892)" style="fill: none; stroke: #b0b0b0; stroke-width: 0.8; stroke-linecap: square"/>
     </g>
     <g id="line2d_2">
      <defs>
       <path id="m0d1e2840e0" d="M 0 0 
L 0 3.5 
" style="stroke: #000000; stroke-width: 0.8"/>
      </defs>
      <g>
       <use xlink:href="#m0d1e2840e0" x="55.055469" y="380.649375" style="stroke: #000000; stroke-width: 0.8"/>
      </g>
     </g>
     <g id="text_1">
      <!-- 0 -->
      <g transform="translate(50.555469 400.148125) scale(0.18 -0.18)">
       <defs>
        <path id="TimesNewRomanPSMT-30" d="M 231 2094 
Q 231 2819 450 3342 
Q 669 3866 1031 4122 
Q 1313 4325 1613 4325 
Q 2100 4325 2488 3828 
Q 2972 3213 2972 2159 
Q 2972 1422 2759 906 
Q 2547 391 2217 158 
Q 1888 -75 1581 -75 
Q 975 -75 572 641 
Q 231 1244 231 2094 
z
M 844 2016 
Q 844 1141 1059 588 
Q 1238 122 1591 122 
Q 1759 122 1940 273 
Q 2122 425 2216 781 
Q 2359 1319 2359 2297 
Q 2359 3022 2209 3506 
Q 2097 3866 1919 4016 
Q 1791 4119 1609 4119 
Q 1397 4119 1231 3928 
Q 1006 3669 925 3112 
Q 844 2556 844 2016 
z
" transform="scale(0.015625)"/>
       </defs>
       <use xlink:href="#TimesNewRomanPSMT-30"/>
      </g>
     </g>
    </g>
    <g id="xtick_2">
     <g id="line2d_3">
      <path d="M 136.055469 380.649375 
L 136.055469 13.449375 
" clip-path="url(#pffe967a892)" style="fill: none; stroke: #b0b0b0; stroke-width: 0.8; stroke-linecap: square"/>
     </g>
     <g id="line2d_4">
      <g>
       <use xlink:href="#m0d1e2840e0" x="136.055469" y="380.649375" style="stroke: #000000; stroke-width: 0.8"/>
      </g>
     </g>
     <g id="text_2">
      <!-- 50 -->
      <g transform="translate(127.055469 400.148125) scale(0.18 -0.18)">
       <defs>
        <path id="TimesNewRomanPSMT-35" d="M 2778 4238 
L 2534 3706 
L 1259 3706 
L 981 3138 
Q 1809 3016 2294 2522 
Q 2709 2097 2709 1522 
Q 2709 1188 2573 903 
Q 2438 619 2231 419 
Q 2025 219 1772 97 
Q 1413 -75 1034 -75 
Q 653 -75 479 54 
Q 306 184 306 341 
Q 306 428 378 495 
Q 450 563 559 563 
Q 641 563 702 538 
Q 763 513 909 409 
Q 1144 247 1384 247 
Q 1750 247 2026 523 
Q 2303 800 2303 1197 
Q 2303 1581 2056 1914 
Q 1809 2247 1375 2428 
Q 1034 2569 447 2591 
L 1259 4238 
L 2778 4238 
z
" transform="scale(0.015625)"/>
       </defs>
       <use xlink:href="#TimesNewRomanPSMT-35"/>
       <use xlink:href="#TimesNewRomanPSMT-30" x="50"/>
      </g>
     </g>
    </g>
    <g id="xtick_3">
     <g id="line2d_5">
      <path d="M 217.055469 380.649375 
L 217.055469 13.449375 
" clip-path="url(#pffe967a892)" style="fill: none; stroke: #b0b0b0; stroke-width: 0.8; stroke-linecap: square"/>
     </g>
     <g id="line2d_6">
      <g>
       <use xlink:href="#m0d1e2840e0" x="217.055469" y="380.649375" style="stroke: #000000; stroke-width: 0.8"/>
      </g>
     </g>
     <g id="text_3">
      <!-- 100 -->
      <g transform="translate(203.555469 400.148125) scale(0.18 -0.18)">
       <defs>
        <path id="TimesNewRomanPSMT-31" d="M 750 3822 
L 1781 4325 
L 1884 4325 
L 1884 747 
Q 1884 391 1914 303 
Q 1944 216 2037 169 
Q 2131 122 2419 116 
L 2419 0 
L 825 0 
L 825 116 
Q 1125 122 1212 167 
Q 1300 213 1334 289 
Q 1369 366 1369 747 
L 1369 3034 
Q 1369 3497 1338 3628 
Q 1316 3728 1258 3775 
Q 1200 3822 1119 3822 
Q 1003 3822 797 3725 
L 750 3822 
z
" transform="scale(0.015625)"/>
       </defs>
       <use xlink:href="#TimesNewRomanPSMT-31"/>
       <use xlink:href="#TimesNewRomanPSMT-30" x="50"/>
       <use xlink:href="#TimesNewRomanPSMT-30" x="100"/>
      </g>
     </g>
    </g>
    <g id="xtick_4">
     <g id="line2d_7">
      <path d="M 298.055469 380.649375 
L 298.055469 13.449375 
" clip-path="url(#pffe967a892)" style="fill: none; stroke: #b0b0b0; stroke-width: 0.8; stroke-linecap: square"/>
     </g>
     <g id="line2d_8">
      <g>
       <use xlink:href="#m0d1e2840e0" x="298.055469" y="380.649375" style="stroke: #000000; stroke-width: 0.8"/>
      </g>
     </g>
     <g id="text_4">
      <!-- 150 -->
      <g transform="translate(284.555469 400.148125) scale(0.18 -0.18)">
       <use xlink:href="#TimesNewRomanPSMT-31"/>
       <use xlink:href="#TimesNewRomanPSMT-35" x="50"/>
       <use xlink:href="#TimesNewRomanPSMT-30" x="100"/>
      </g>
     </g>
    </g>
    <g id="xtick_5">
     <g id="line2d_9">
      <path d="M 379.055469 380.649375 
L 379.055469 13.449375 
" clip-path="url(#pffe967a892)" style="fill: none; stroke: #b0b0b0; stroke-width: 0.8; stroke-linecap: square"/>
     </g>
     <g id="line2d_10">
      <g>
       <use xlink:href="#m0d1e2840e0" x="379.055469" y="380.649375" style="stroke: #000000; stroke-width: 0.8"/>
      </g>
     </g>
     <g id="text_5">
      <!-- 200 -->
      <g transform="translate(365.555469 400.148125) scale(0.18 -0.18)">
       <defs>
        <path id="TimesNewRomanPSMT-32" d="M 2934 816 
L 2638 0 
L 138 0 
L 138 116 
Q 1241 1122 1691 1759 
Q 2141 2397 2141 2925 
Q 2141 3328 1894 3587 
Q 1647 3847 1303 3847 
Q 991 3847 742 3664 
Q 494 3481 375 3128 
L 259 3128 
Q 338 3706 661 4015 
Q 984 4325 1469 4325 
Q 1984 4325 2329 3994 
Q 2675 3663 2675 3213 
Q 2675 2891 2525 2569 
Q 2294 2063 1775 1497 
Q 997 647 803 472 
L 1909 472 
Q 2247 472 2383 497 
Q 2519 522 2628 598 
Q 2738 675 2819 816 
L 2934 816 
z
" transform="scale(0.015625)"/>
       </defs>
       <use xlink:href="#TimesNewRomanPSMT-32"/>
       <use xlink:href="#TimesNewRomanPSMT-30" x="50"/>
       <use xlink:href="#TimesNewRomanPSMT-30" x="100"/>
      </g>
     </g>
    </g>
    <g id="xtick_6">
     <g id="line2d_11">
      <path d="M 460.055469 380.649375 
L 460.055469 13.449375 
" clip-path="url(#pffe967a892)" style="fill: none; stroke: #b0b0b0; stroke-width: 0.8; stroke-linecap: square"/>
     </g>
     <g id="line2d_12">
      <g>
       <use xlink:href="#m0d1e2840e0" x="460.055469" y="380.649375" style="stroke: #000000; stroke-width: 0.8"/>
      </g>
     </g>
     <g id="text_6">
      <!-- 250 -->
      <g transform="translate(446.555469 400.148125) scale(0.18 -0.18)">
       <use xlink:href="#TimesNewRomanPSMT-32"/>
       <use xlink:href="#TimesNewRomanPSMT-35" x="50"/>
       <use xlink:href="#TimesNewRomanPSMT-30" x="100"/>
      </g>
     </g>
    </g>
    <g id="xtick_7">
     <g id="line2d_13">
      <path d="M 541.055469 380.649375 
L 541.055469 13.449375 
" clip-path="url(#pffe967a892)" style="fill: none; stroke: #b0b0b0; stroke-width: 0.8; stroke-linecap: square"/>
     </g>
     <g id="line2d_14">
      <g>
       <use xlink:href="#m0d1e2840e0" x="541.055469" y="380.649375" style="stroke: #000000; stroke-width: 0.8"/>
      </g>
     </g>
     <g id="text_7">
      <!-- 300 -->
      <g transform="translate(527.555469 400.148125) scale(0.18 -0.18)">
       <defs>
        <path id="TimesNewRomanPSMT-33" d="M 325 3431 
Q 506 3859 782 4092 
Q 1059 4325 1472 4325 
Q 1981 4325 2253 3994 
Q 2459 3747 2459 3466 
Q 2459 3003 1878 2509 
Q 2269 2356 2469 2072 
Q 2669 1788 2669 1403 
Q 2669 853 2319 450 
Q 1863 -75 997 -75 
Q 569 -75 414 31 
Q 259 138 259 259 
Q 259 350 332 419 
Q 406 488 509 488 
Q 588 488 669 463 
Q 722 447 909 348 
Q 1097 250 1169 231 
Q 1284 197 1416 197 
Q 1734 197 1970 444 
Q 2206 691 2206 1028 
Q 2206 1275 2097 1509 
Q 2016 1684 1919 1775 
Q 1784 1900 1550 2001 
Q 1316 2103 1072 2103 
L 972 2103 
L 972 2197 
Q 1219 2228 1467 2375 
Q 1716 2522 1828 2728 
Q 1941 2934 1941 3181 
Q 1941 3503 1739 3701 
Q 1538 3900 1238 3900 
Q 753 3900 428 3381 
L 325 3431 
z
" transform="scale(0.015625)"/>
       </defs>
       <use xlink:href="#TimesNewRomanPSMT-33"/>
       <use xlink:href="#TimesNewRomanPSMT-30" x="50"/>
       <use xlink:href="#TimesNewRomanPSMT-30" x="100"/>
      </g>
     </g>
    </g>
    <g id="xtick_8">
     <g id="line2d_15">
      <path d="M 622.055469 380.649375 
L 622.055469 13.449375 
" clip-path="url(#pffe967a892)" style="fill: none; stroke: #b0b0b0; stroke-width: 0.8; stroke-linecap: square"/>
     </g>
     <g id="line2d_16">
      <g>
       <use xlink:href="#m0d1e2840e0" x="622.055469" y="380.649375" style="stroke: #000000; stroke-width: 0.8"/>
      </g>
     </g>
     <g id="text_8">
      <!-- 350 -->
      <g transform="translate(608.555469 400.148125) scale(0.18 -0.18)">
       <use xlink:href="#TimesNewRomanPSMT-33"/>
       <use xlink:href="#TimesNewRomanPSMT-35" x="50"/>
       <use xlink:href="#TimesNewRomanPSMT-30" x="100"/>
      </g>
     </g>
    </g>
    <g id="xtick_9">
     <g id="line2d_17">
      <path d="M 703.055469 380.649375 
L 703.055469 13.449375 
" clip-path="url(#pffe967a892)" style="fill: none; stroke: #b0b0b0; stroke-width: 0.8; stroke-linecap: square"/>
     </g>
     <g id="line2d_18">
      <g>
       <use xlink:href="#m0d1e2840e0" x="703.055469" y="380.649375" style="stroke: #000000; stroke-width: 0.8"/>
      </g>
     </g>
     <g id="text_9">
      <!-- 400 -->
      <g transform="translate(689.555469 400.148125) scale(0.18 -0.18)">
       <defs>
        <path id="TimesNewRomanPSMT-34" d="M 2978 1563 
L 2978 1119 
L 2409 1119 
L 2409 0 
L 1894 0 
L 1894 1119 
L 100 1119 
L 100 1519 
L 2066 4325 
L 2409 4325 
L 2409 1563 
L 2978 1563 
z
M 1894 1563 
L 1894 3666 
L 406 1563 
L 1894 1563 
z
" transform="scale(0.015625)"/>
       </defs>
       <use xlink:href="#TimesNewRomanPSMT-34"/>
       <use xlink:href="#TimesNewRomanPSMT-30" x="50"/>
       <use xlink:href="#TimesNewRomanPSMT-30" x="100"/>
      </g>
     </g>
    </g>
    <g id="text_10">
     <!-- 采样时间/h -->
     <g transform="translate(341.555469 419.951562) scale(0.15 -0.15)">
      <defs>
       <path id="SimSun-91c7" d="M 5250 5250 
L 5625 4775 
Q 5200 4750 3800 4625 
Q 2400 4475 725 4475 
L 725 4575 
Q 1975 4650 2775 4737 
Q 3575 4825 4250 4950 
Q 4925 5075 5250 5250 
z
M 1075 4125 
Q 1825 3650 1887 3462 
Q 1950 3275 1950 3225 
Q 1950 3075 1850 2962 
Q 1750 2850 1725 2850 
Q 1625 2850 1550 3125 
Q 1425 3525 1025 4075 
L 1075 4125 
z
M 2600 4275 
L 2675 4325 
Q 3375 3925 3437 3762 
Q 3500 3600 3500 3550 
Q 3500 3400 3400 3262 
Q 3300 3125 3250 3125 
Q 3175 3125 3100 3425 
Q 2975 3825 2600 4275 
z
M 4825 4475 
L 5350 4125 
L 5125 3975 
Q 4450 3025 3975 2600 
L 3900 2675 
Q 4550 3575 4825 4475 
z
M 3350 2200 
Q 3350 50 3375 -500 
L 2950 -675 
Q 2975 875 2975 1975 
Q 2100 425 275 -450 
L 225 -350 
Q 1825 600 2675 2200 
L 1150 2200 
Q 825 2200 550 2125 
L 325 2350 
L 2975 2350 
Q 2975 2675 2950 3075 
L 3525 2775 
L 3350 2575 
L 3350 2350 
L 5300 2350 
L 5650 2700 
L 6125 2200 
L 3625 2200 
Q 4525 250 6100 -25 
L 6100 -125 
Q 5750 -100 5550 -425 
Q 4150 325 3500 2200 
L 3350 2200 
z
" transform="scale(0.015625)"/>
       <path id="SimSun-6837" d="M 2800 5025 
L 2850 5100 
Q 3625 4675 3700 4512 
Q 3775 4350 3775 4300 
Q 3775 4175 3675 4037 
Q 3575 3900 3550 3900 
Q 3450 3900 3375 4125 
Q 3250 4475 2800 5025 
z
M 4275 1325 
Q 4275 75 4300 -475 
L 3900 -625 
Q 3925 275 3925 1325 
L 3075 1325 
Q 2750 1325 2475 1250 
L 2250 1475 
L 3925 1475 
L 3925 2525 
L 3500 2525 
Q 3175 2525 2900 2450 
L 2675 2675 
L 3925 2675 
L 3925 3600 
L 3475 3600 
Q 3150 3600 2875 3525 
L 2650 3750 
L 4275 3750 
Q 4725 4600 4875 5250 
L 5400 4900 
Q 5150 4775 4900 4425 
Q 4650 4075 4425 3750 
L 5150 3750 
L 5450 4050 
L 5900 3600 
L 4275 3600 
L 4275 2675 
L 4975 2675 
L 5275 2975 
L 5725 2525 
L 4275 2525 
L 4275 1475 
L 5275 1475 
L 5600 1800 
L 6075 1325 
L 4275 1325 
z
M 1650 750 
Q 1650 400 1675 -500 
L 1275 -650 
Q 1300 825 1300 2375 
Q 875 1375 300 725 
L 225 775 
Q 925 1875 1300 3600 
L 1125 3600 
Q 800 3600 525 3525 
L 300 3750 
L 1300 3750 
Q 1300 4375 1275 5250 
L 1850 4950 
L 1650 4775 
L 1650 3750 
L 1975 3750 
L 2250 4025 
L 2675 3600 
L 1650 3600 
L 1650 2925 
Q 2125 2700 2300 2550 
Q 2475 2400 2475 2250 
Q 2475 2150 2412 2000 
Q 2350 1850 2300 1850 
Q 2225 1850 2125 2075 
Q 1950 2450 1650 2775 
L 1650 750 
z
" transform="scale(0.015625)"/>
       <path id="SimSun-65f6" d="M 4500 3600 
Q 4500 4575 4475 5225 
L 5100 4900 
L 4850 4725 
L 4850 3600 
L 5225 3600 
L 5550 3925 
L 6025 3450 
L 4850 3450 
L 4850 100 
Q 4850 -375 4300 -575 
Q 4275 -200 3475 -25 
L 3475 100 
Q 4150 0 4325 25 
Q 4500 50 4500 325 
L 4500 3450 
L 3200 3450 
Q 2875 3450 2600 3375 
L 2375 3600 
L 4500 3600 
z
M 2875 2825 
Q 3525 2375 3637 2200 
Q 3750 2025 3750 1925 
Q 3750 1800 3637 1637 
Q 3525 1475 3475 1475 
Q 3400 1475 3325 1775 
Q 3200 2225 2800 2750 
L 2875 2825 
z
M 925 4150 
L 925 2650 
L 1950 2650 
L 1950 4150 
L 925 4150 
z
M 925 2500 
L 925 900 
L 1950 900 
L 1950 2500 
L 925 2500 
z
M 2300 2000 
Q 2300 800 2325 450 
L 1950 250 
L 1950 750 
L 925 750 
L 925 225 
L 550 25 
Q 575 825 575 2425 
Q 575 4025 550 4500 
L 950 4300 
L 1900 4300 
L 2100 4550 
L 2500 4225 
L 2300 4050 
L 2300 2000 
z
" transform="scale(0.015625)"/>
       <path id="SimSun-95f4" d="M 2150 525 
Q 2175 1325 2175 2112 
Q 2175 2900 2150 3675 
L 2525 3450 
L 3750 3450 
L 4000 3700 
L 4325 3375 
L 4125 3200 
Q 4125 1550 4150 775 
L 3800 575 
L 3800 975 
L 2500 975 
L 2500 700 
L 2150 525 
z
M 2500 3300 
L 2500 2325 
L 3800 2325 
L 3800 3300 
L 2500 3300 
z
M 2500 2175 
L 2500 1125 
L 3800 1125 
L 3800 2175 
L 2500 2175 
z
M 1275 5200 
Q 1850 4825 1950 4675 
Q 2050 4525 2050 4425 
Q 2050 4275 1950 4137 
Q 1850 4000 1825 4000 
Q 1750 4000 1675 4275 
Q 1550 4650 1200 5125 
L 1275 5200 
z
M 1125 425 
Q 1125 25 1150 -375 
L 750 -525 
Q 775 -150 775 1950 
Q 775 4050 750 4425 
L 1350 4125 
L 1125 3975 
L 1125 425 
z
M 4225 125 
Q 5025 0 5125 37 
Q 5225 75 5225 250 
L 5225 4450 
L 3225 4450 
Q 2900 4450 2625 4375 
L 2400 4600 
L 5175 4600 
L 5425 4850 
L 5775 4500 
L 5575 4350 
L 5575 225 
Q 5575 -100 5462 -250 
Q 5350 -400 5000 -550 
Q 4800 -125 4225 25 
L 4225 125 
z
" transform="scale(0.015625)"/>
       <path id="SimSun-2f" d="M 400 -475 
L 225 -375 
L 2775 4975 
L 2950 4875 
L 400 -475 
z
" transform="scale(0.015625)"/>
       <path id="SimSun-68" d="M 200 100 
L 200 250 
L 325 250 
Q 450 250 500 300 
Q 550 350 550 450 
L 550 4025 
Q 550 4125 500 4175 
Q 450 4225 325 4225 
L 175 4225 
L 175 4375 
L 450 4375 
Q 550 4375 650 4425 
Q 750 4475 850 4575 
L 900 4575 
L 900 2450 
Q 1125 2725 1362 2837 
Q 1600 2950 1875 2950 
Q 2250 2950 2450 2737 
Q 2650 2525 2650 2075 
L 2650 450 
Q 2650 350 2712 300 
Q 2775 250 2875 250 
L 3000 250 
L 3000 100 
L 1950 100 
L 1950 250 
L 2075 250 
Q 2200 250 2250 300 
Q 2300 350 2300 450 
L 2300 2025 
Q 2300 2450 2162 2587 
Q 2025 2725 1800 2725 
Q 1600 2725 1362 2600 
Q 1125 2475 900 2175 
L 900 450 
Q 900 350 962 300 
Q 1025 250 1125 250 
L 1250 250 
L 1250 100 
L 200 100 
z
" transform="scale(0.015625)"/>
      </defs>
      <use xlink:href="#SimSun-91c7"/>
      <use xlink:href="#SimSun-6837" x="100"/>
      <use xlink:href="#SimSun-65f6" x="200"/>
      <use xlink:href="#SimSun-95f4" x="300"/>
      <use xlink:href="#SimSun-2f" x="400"/>
      <use xlink:href="#SimSun-68" x="450"/>
     </g>
    </g>
   </g>
   <g id="matplotlib.axis_2">
    <g id="ytick_1">
     <g id="line2d_19">
      <path d="M 55.055469 380.649375 
L 703.055469 380.649375 
" clip-path="url(#pffe967a892)" style="fill: none; stroke: #b0b0b0; stroke-width: 0.8; stroke-linecap: square"/>
     </g>
     <g id="line2d_20">
      <defs>
       <path id="ma3e6c2b175" d="M 0 0 
L -3.5 0 
" style="stroke: #000000; stroke-width: 0.8"/>
      </defs>
      <g>
       <use xlink:href="#ma3e6c2b175" x="55.055469" y="380.649375" style="stroke: #000000; stroke-width: 0.8"/>
      </g>
     </g>
     <g id="text_11">
      <!-- 0.0 -->
      <g transform="translate(25.555469 386.89875) scale(0.18 -0.18)">
       <defs>
        <path id="TimesNewRomanPSMT-2e" d="M 800 606 
Q 947 606 1047 504 
Q 1147 403 1147 259 
Q 1147 116 1045 14 
Q 944 -88 800 -88 
Q 656 -88 554 14 
Q 453 116 453 259 
Q 453 406 554 506 
Q 656 606 800 606 
z
" transform="scale(0.015625)"/>
       </defs>
       <use xlink:href="#TimesNewRomanPSMT-30"/>
       <use xlink:href="#TimesNewRomanPSMT-2e" x="50"/>
       <use xlink:href="#TimesNewRomanPSMT-30" x="75"/>
      </g>
     </g>
    </g>
    <g id="ytick_2">
     <g id="line2d_21">
      <path d="M 55.055469 328.192232 
L 703.055469 328.192232 
" clip-path="url(#pffe967a892)" style="fill: none; stroke: #b0b0b0; stroke-width: 0.8; stroke-linecap: square"/>
     </g>
     <g id="line2d_22">
      <g>
       <use xlink:href="#ma3e6c2b175" x="55.055469" y="328.192232" style="stroke: #000000; stroke-width: 0.8"/>
      </g>
     </g>
     <g id="text_12">
      <!-- 0.2 -->
      <g transform="translate(25.555469 334.441607) scale(0.18 -0.18)">
       <use xlink:href="#TimesNewRomanPSMT-30"/>
       <use xlink:href="#TimesNewRomanPSMT-2e" x="50"/>
       <use xlink:href="#TimesNewRomanPSMT-32" x="75"/>
      </g>
     </g>
    </g>
    <g id="ytick_3">
     <g id="line2d_23">
      <path d="M 55.055469 275.735089 
L 703.055469 275.735089 
" clip-path="url(#pffe967a892)" style="fill: none; stroke: #b0b0b0; stroke-width: 0.8; stroke-linecap: square"/>
     </g>
     <g id="line2d_24">
      <g>
       <use xlink:href="#ma3e6c2b175" x="55.055469" y="275.735089" style="stroke: #000000; stroke-width: 0.8"/>
      </g>
     </g>
     <g id="text_13">
      <!-- 0.4 -->
      <g transform="translate(25.555469 281.984464) scale(0.18 -0.18)">
       <use xlink:href="#TimesNewRomanPSMT-30"/>
       <use xlink:href="#TimesNewRomanPSMT-2e" x="50"/>
       <use xlink:href="#TimesNewRomanPSMT-34" x="75"/>
      </g>
     </g>
    </g>
    <g id="ytick_4">
     <g id="line2d_25">
      <path d="M 55.055469 223.277946 
L 703.055469 223.277946 
" clip-path="url(#pffe967a892)" style="fill: none; stroke: #b0b0b0; stroke-width: 0.8; stroke-linecap: square"/>
     </g>
     <g id="line2d_26">
      <g>
       <use xlink:href="#ma3e6c2b175" x="55.055469" y="223.277946" style="stroke: #000000; stroke-width: 0.8"/>
      </g>
     </g>
     <g id="text_14">
      <!-- 0.6 -->
      <g transform="translate(25.555469 229.527321) scale(0.18 -0.18)">
       <defs>
        <path id="TimesNewRomanPSMT-36" d="M 2869 4325 
L 2869 4209 
Q 2456 4169 2195 4045 
Q 1934 3922 1679 3669 
Q 1425 3416 1258 3105 
Q 1091 2794 978 2366 
Q 1428 2675 1881 2675 
Q 2316 2675 2634 2325 
Q 2953 1975 2953 1425 
Q 2953 894 2631 456 
Q 2244 -75 1606 -75 
Q 1172 -75 869 213 
Q 275 772 275 1663 
Q 275 2231 503 2743 
Q 731 3256 1154 3653 
Q 1578 4050 1965 4187 
Q 2353 4325 2688 4325 
L 2869 4325 
z
M 925 2138 
Q 869 1716 869 1456 
Q 869 1156 980 804 
Q 1091 453 1309 247 
Q 1469 100 1697 100 
Q 1969 100 2183 356 
Q 2397 613 2397 1088 
Q 2397 1622 2184 2012 
Q 1972 2403 1581 2403 
Q 1463 2403 1327 2353 
Q 1191 2303 925 2138 
z
" transform="scale(0.015625)"/>
       </defs>
       <use xlink:href="#TimesNewRomanPSMT-30"/>
       <use xlink:href="#TimesNewRomanPSMT-2e" x="50"/>
       <use xlink:href="#TimesNewRomanPSMT-36" x="75"/>
      </g>
     </g>
    </g>
    <g id="ytick_5">
     <g id="line2d_27">
      <path d="M 55.055469 170.820804 
L 703.055469 170.820804 
" clip-path="url(#pffe967a892)" style="fill: none; stroke: #b0b0b0; stroke-width: 0.8; stroke-linecap: square"/>
     </g>
     <g id="line2d_28">
      <g>
       <use xlink:href="#ma3e6c2b175" x="55.055469" y="170.820804" style="stroke: #000000; stroke-width: 0.8"/>
      </g>
     </g>
     <g id="text_15">
      <!-- 0.8 -->
      <g transform="translate(25.555469 177.070179) scale(0.18 -0.18)">
       <defs>
        <path id="TimesNewRomanPSMT-38" d="M 1228 2134 
Q 725 2547 579 2797 
Q 434 3047 434 3316 
Q 434 3728 753 4026 
Q 1072 4325 1600 4325 
Q 2113 4325 2425 4047 
Q 2738 3769 2738 3413 
Q 2738 3175 2569 2928 
Q 2400 2681 1866 2347 
Q 2416 1922 2594 1678 
Q 2831 1359 2831 1006 
Q 2831 559 2490 242 
Q 2150 -75 1597 -75 
Q 994 -75 656 303 
Q 388 606 388 966 
Q 388 1247 577 1523 
Q 766 1800 1228 2134 
z
M 1719 2469 
Q 2094 2806 2194 3001 
Q 2294 3197 2294 3444 
Q 2294 3772 2109 3958 
Q 1925 4144 1606 4144 
Q 1288 4144 1088 3959 
Q 888 3775 888 3528 
Q 888 3366 970 3203 
Q 1053 3041 1206 2894 
L 1719 2469 
z
M 1375 2016 
Q 1116 1797 991 1539 
Q 866 1281 866 981 
Q 866 578 1086 336 
Q 1306 94 1647 94 
Q 1984 94 2187 284 
Q 2391 475 2391 747 
Q 2391 972 2272 1150 
Q 2050 1481 1375 2016 
z
" transform="scale(0.015625)"/>
       </defs>
       <use xlink:href="#TimesNewRomanPSMT-30"/>
       <use xlink:href="#TimesNewRomanPSMT-2e" x="50"/>
       <use xlink:href="#TimesNewRomanPSMT-38" x="75"/>
      </g>
     </g>
    </g>
    <g id="ytick_6">
     <g id="line2d_29">
      <path d="M 55.055469 118.363661 
L 703.055469 118.363661 
" clip-path="url(#pffe967a892)" style="fill: none; stroke: #b0b0b0; stroke-width: 0.8; stroke-linecap: square"/>
     </g>
     <g id="line2d_30">
      <g>
       <use xlink:href="#ma3e6c2b175" x="55.055469" y="118.363661" style="stroke: #000000; stroke-width: 0.8"/>
      </g>
     </g>
     <g id="text_16">
      <!-- 1.0 -->
      <g transform="translate(25.555469 124.613036) scale(0.18 -0.18)">
       <use xlink:href="#TimesNewRomanPSMT-31"/>
       <use xlink:href="#TimesNewRomanPSMT-2e" x="50"/>
       <use xlink:href="#TimesNewRomanPSMT-30" x="75"/>
      </g>
     </g>
    </g>
    <g id="ytick_7">
     <g id="line2d_31">
      <path d="M 55.055469 65.906518 
L 703.055469 65.906518 
" clip-path="url(#pffe967a892)" style="fill: none; stroke: #b0b0b0; stroke-width: 0.8; stroke-linecap: square"/>
     </g>
     <g id="line2d_32">
      <g>
       <use xlink:href="#ma3e6c2b175" x="55.055469" y="65.906518" style="stroke: #000000; stroke-width: 0.8"/>
      </g>
     </g>
     <g id="text_17">
      <!-- 1.2 -->
      <g transform="translate(25.555469 72.155893) scale(0.18 -0.18)">
       <use xlink:href="#TimesNewRomanPSMT-31"/>
       <use xlink:href="#TimesNewRomanPSMT-2e" x="50"/>
       <use xlink:href="#TimesNewRomanPSMT-32" x="75"/>
      </g>
     </g>
    </g>
    <g id="ytick_8">
     <g id="line2d_33">
      <path d="M 55.055469 13.449375 
L 703.055469 13.449375 
" clip-path="url(#pffe967a892)" style="fill: none; stroke: #b0b0b0; stroke-width: 0.8; stroke-linecap: square"/>
     </g>
     <g id="line2d_34">
      <g>
       <use xlink:href="#ma3e6c2b175" x="55.055469" y="13.449375" style="stroke: #000000; stroke-width: 0.8"/>
      </g>
     </g>
     <g id="text_18">
      <!-- 1.4 -->
      <g transform="translate(25.555469 19.69875) scale(0.18 -0.18)">
       <use xlink:href="#TimesNewRomanPSMT-31"/>
       <use xlink:href="#TimesNewRomanPSMT-2e" x="50"/>
       <use xlink:href="#TimesNewRomanPSMT-34" x="75"/>
      </g>
     </g>
    </g>
    <g id="text_19">
     <!-- 青霉素浓度/g/h -->
     <g transform="translate(19.563281 249.549375) rotate(-90) scale(0.15 -0.15)">
      <defs>
       <path id="SimSun-9752" d="M 1925 1475 
L 1925 825 
L 4450 825 
L 4450 1475 
L 1925 1475 
z
M 2875 5275 
L 3475 5025 
L 3250 4850 
L 3250 4425 
L 4875 4425 
L 5250 4800 
L 5750 4275 
L 3250 4275 
L 3250 3775 
L 4575 3775 
L 4900 4075 
L 5325 3625 
L 3250 3625 
L 3250 2975 
L 5250 2975 
L 5625 3350 
L 6125 2825 
L 1075 2825 
Q 750 2825 475 2750 
L 250 2975 
L 2900 2975 
L 2900 3625 
L 1775 3625 
Q 1450 3625 1175 3550 
L 950 3775 
L 2900 3775 
L 2900 4275 
L 1225 4275 
Q 900 4275 625 4200 
L 400 4425 
L 2900 4425 
Q 2900 4875 2875 5275 
z
M 1550 2575 
L 1975 2375 
L 4400 2375 
L 4575 2600 
L 4975 2300 
L 4800 2150 
L 4800 25 
Q 4825 -475 4250 -625 
Q 4250 -275 3525 -125 
L 3525 -25 
Q 4250 -75 4350 -62 
Q 4450 -50 4450 100 
L 4450 675 
L 1925 675 
L 1925 -500 
L 1550 -675 
Q 1575 -125 1575 962 
Q 1575 2050 1550 2575 
z
M 1925 2225 
L 1925 1625 
L 4450 1625 
L 4450 2225 
L 1925 2225 
z
" transform="scale(0.015625)"/>
       <path id="SimSun-9709" d="M 2050 2775 
L 1900 2625 
L 4850 2625 
L 5175 2950 
L 5625 2475 
L 1800 2475 
Q 1550 2275 1300 2075 
Q 1025 1850 475 1525 
L 425 1600 
Q 850 1925 1200 2300 
Q 1550 2675 1800 3175 
L 2275 2850 
L 2050 2775 
z
M 1900 1900 
L 1825 1250 
L 3125 1250 
Q 3025 1550 2675 1825 
L 2700 1900 
Q 3075 1800 3212 1712 
Q 3350 1625 3350 1500 
Q 3350 1375 3275 1250 
L 4475 1250 
L 4550 1900 
L 1900 1900 
z
M 1800 1100 
L 1675 375 
L 4350 375 
L 4450 1100 
L 2850 1100 
Q 3250 925 3287 762 
Q 3325 600 3237 500 
Q 3150 400 3125 400 
Q 3050 400 3000 575 
Q 2925 850 2725 1100 
L 1800 1100 
z
M 4875 1825 
L 4800 1250 
L 5375 1250 
L 5700 1550 
L 6125 1100 
L 4775 1100 
L 4675 375 
L 5075 375 
L 5375 675 
L 5825 225 
L 4650 225 
Q 4575 -175 4475 -350 
Q 4375 -525 4050 -625 
Q 4025 -300 3500 -200 
L 3500 -100 
Q 3925 -150 4100 -150 
Q 4275 -150 4325 225 
L 1700 225 
L 1500 0 
L 1175 300 
L 1350 425 
L 1475 1100 
L 1075 1100 
Q 750 1100 475 1025 
L 250 1250 
L 1500 1250 
L 1600 2275 
L 1950 2050 
L 4525 2050 
L 4700 2250 
L 5075 1950 
L 4875 1825 
z
M 5050 3650 
L 5350 4150 
L 3325 4150 
Q 3325 3375 3350 3025 
L 2975 2850 
Q 3000 3350 3000 4150 
L 1075 4150 
Q 1100 3775 975 3637 
Q 850 3500 662 3512 
Q 475 3525 487 3612 
Q 500 3700 675 3875 
Q 825 4050 975 4575 
L 1075 4575 
L 1075 4300 
L 3000 4300 
L 3000 4725 
L 2000 4725 
Q 1675 4725 1400 4650 
L 1175 4875 
L 4575 4875 
L 4900 5200 
L 5350 4725 
L 3325 4725 
L 3325 4300 
L 5325 4300 
L 5550 4525 
L 5975 4075 
Q 5550 4100 5125 3600 
L 5050 3650 
z
M 1375 3800 
L 2600 3800 
L 2600 3650 
L 1375 3650 
L 1375 3800 
z
M 3700 3800 
L 4875 3800 
L 4875 3650 
L 3700 3650 
L 3700 3800 
z
M 1350 3350 
L 2600 3350 
L 2600 3200 
L 1350 3200 
L 1350 3350 
z
M 3700 3350 
L 4925 3350 
L 4925 3200 
L 3700 3200 
L 3700 3350 
z
" transform="scale(0.015625)"/>
       <path id="SimSun-7d20" d="M 2025 1275 
L 4500 1450 
Q 4275 1725 3975 1975 
L 4025 2050 
Q 4600 1775 4875 1575 
Q 5150 1375 5137 1175 
Q 5125 975 5062 900 
Q 5000 825 4975 825 
Q 4900 825 4850 950 
Q 4725 1150 4600 1325 
L 3375 1175 
L 3375 -50 
Q 3400 -500 2800 -650 
Q 2775 -275 2025 -125 
L 2025 -25 
Q 2700 -75 2862 -75 
Q 3025 -75 3025 100 
L 3025 1150 
Q 2150 1025 1887 950 
Q 1625 875 1425 775 
L 1175 1250 
Q 1450 1300 1950 1500 
Q 2450 1700 3350 2225 
Q 2750 2175 2312 2100 
Q 1875 2025 1600 1875 
L 1350 2325 
Q 1625 2375 1937 2562 
Q 2250 2750 2525 3025 
L 1150 3025 
Q 825 3025 550 2950 
L 325 3175 
L 3025 3175 
L 3025 3725 
L 2125 3725 
Q 1800 3725 1525 3650 
L 1300 3875 
L 3025 3875 
L 3025 4425 
L 1675 4425 
Q 1350 4425 1075 4350 
L 850 4575 
L 3025 4575 
Q 3025 5000 3000 5250 
L 3600 5025 
L 3375 4875 
L 3375 4575 
L 4875 4575 
L 5200 4875 
L 5650 4425 
L 3375 4425 
L 3375 3875 
L 4425 3875 
L 4775 4150 
L 5175 3725 
L 3375 3725 
L 3375 3175 
L 5300 3175 
L 5675 3475 
L 6100 3025 
L 2725 3025 
L 3025 2850 
Q 2825 2800 2475 2625 
Q 2100 2450 1725 2275 
L 3475 2350 
Q 3750 2575 3975 2850 
L 4400 2500 
Q 4175 2450 3675 2150 
Q 3150 1825 2025 1275 
z
M 2025 875 
L 2450 475 
Q 2200 450 1600 50 
Q 1000 -350 500 -525 
L 450 -450 
Q 1000 -150 1387 200 
Q 1775 550 2025 875 
z
M 3925 800 
Q 4875 450 5212 275 
Q 5550 100 5575 -87 
Q 5600 -275 5537 -387 
Q 5475 -500 5450 -500 
Q 5325 -500 5150 -250 
Q 4850 125 3875 725 
L 3925 800 
z
" transform="scale(0.015625)"/>
       <path id="SimSun-6d53" d="M 4900 3200 
L 5250 3875 
L 3750 3875 
Q 3700 3725 3650 3575 
Q 3925 2450 4300 1925 
Q 5050 2600 5250 2975 
L 5650 2525 
Q 5275 2450 4962 2225 
Q 4650 2000 4375 1800 
Q 5075 750 6100 350 
L 6100 250 
Q 5650 275 5500 -25 
Q 3900 1250 3575 3375 
Q 3325 2800 3075 2375 
L 3375 2225 
L 3225 2075 
L 3225 100 
L 4175 600 
L 4225 500 
Q 3350 -100 3100 -500 
L 2775 -125 
Q 2900 -50 2875 425 
L 2875 2000 
Q 2200 1175 1475 625 
L 1425 700 
Q 2850 2150 3400 3875 
L 2575 3875 
Q 2600 3475 2475 3337 
Q 2350 3200 2187 3225 
Q 2025 3250 2025 3325 
Q 2025 3400 2150 3550 
Q 2375 3800 2475 4300 
L 2575 4300 
L 2575 4025 
L 3425 4025 
Q 3500 4325 3550 4637 
Q 3600 4950 3625 5225 
L 4175 4950 
L 3975 4800 
Q 3875 4375 3775 4025 
L 5200 4025 
L 5450 4300 
L 5900 3800 
Q 5500 3800 4975 3150 
L 4900 3200 
z
M 1975 3900 
Q 1350 1400 1287 1087 
Q 1225 775 1225 325 
Q 1225 -125 1225 -287 
Q 1225 -450 1125 -450 
Q 1050 -450 887 -375 
Q 725 -300 725 -100 
Q 725 75 775 250 
Q 850 500 850 675 
Q 850 825 750 925 
Q 650 1025 275 1125 
L 275 1225 
Q 725 1175 812 1200 
Q 900 1225 1037 1450 
Q 1175 1675 1875 3925 
L 1975 3900 
z
M 300 3500 
Q 1125 3150 1137 2900 
Q 1150 2650 1050 2537 
Q 950 2425 925 2425 
Q 850 2425 775 2675 
Q 650 3000 250 3425 
L 300 3500 
z
M 875 4950 
Q 1550 4650 1625 4525 
Q 1700 4400 1700 4300 
Q 1700 4175 1600 4025 
Q 1500 3875 1450 3875 
Q 1350 3875 1275 4125 
Q 1150 4525 825 4875 
L 875 4950 
z
" transform="scale(0.015625)"/>
       <path id="SimSun-5ea6" d="M 2550 2025 
Q 2575 2525 2575 3175 
L 1925 3175 
L 1625 3125 
L 1425 3325 
L 2575 3325 
Q 2575 3700 2550 4150 
L 3100 3875 
L 2900 3750 
L 2900 3325 
L 4300 3325 
Q 4300 3750 4275 4125 
L 4850 3875 
L 4625 3725 
L 4625 3325 
L 5100 3325 
L 5425 3650 
L 5900 3175 
L 4625 3175 
Q 4625 2450 4650 2225 
L 4300 2075 
L 4300 2300 
L 2900 2300 
L 2900 2175 
L 2550 2025 
z
M 4875 1500 
Q 4300 775 3900 425 
Q 4700 -75 6025 -125 
L 6025 -225 
Q 5625 -300 5550 -550 
Q 4375 -325 3675 225 
Q 2475 -450 1075 -625 
L 1050 -525 
Q 2375 -275 3450 450 
Q 2975 925 2575 1625 
L 2325 1625 
L 2100 1575 
L 1900 1775 
L 4525 1775 
L 4750 2000 
L 5125 1625 
L 4875 1500 
z
M 2700 1625 
Q 3175 975 3650 625 
Q 4150 1100 4500 1625 
L 2700 1625 
z
M 2900 3175 
L 2900 2450 
L 4300 2450 
L 4300 3175 
L 2900 3175 
z
M 975 4650 
L 1400 4400 
L 3375 4400 
Q 3350 4550 3262 4725 
Q 3175 4900 2900 5225 
L 2975 5275 
Q 3550 5025 3637 4887 
Q 3725 4750 3725 4725 
Q 3725 4575 3525 4400 
L 5150 4400 
L 5500 4750 
L 6000 4250 
L 1375 4250 
Q 1400 2750 1287 1912 
Q 1175 1075 925 475 
Q 675 -125 300 -625 
L 225 -575 
Q 725 300 862 1250 
Q 1000 2200 1012 3187 
Q 1025 4175 975 4650 
z
" transform="scale(0.015625)"/>
       <path id="SimSun-67" d="M 875 1975 
Q 875 1675 1050 1462 
Q 1225 1250 1525 1250 
Q 1850 1250 2012 1437 
Q 2175 1625 2175 1975 
Q 2175 2400 1987 2587 
Q 1800 2775 1525 2775 
Q 1250 2775 1062 2587 
Q 875 2400 875 1975 
z
M 2100 625 
Q 2475 575 2650 412 
Q 2825 250 2825 -25 
Q 2825 -400 2512 -625 
Q 2200 -850 1525 -850 
Q 1000 -850 675 -637 
Q 350 -425 350 -150 
Q 350 25 475 200 
Q 600 375 875 475 
Q 725 550 637 637 
Q 550 725 550 850 
Q 550 1000 650 1112 
Q 750 1225 900 1300 
Q 750 1425 637 1600 
Q 525 1775 525 1975 
Q 525 2350 787 2637 
Q 1050 2925 1525 2925 
Q 1725 2925 1912 2875 
Q 2100 2825 2225 2700 
Q 2400 2825 2537 2887 
Q 2675 2950 2775 2950 
Q 2900 2950 2950 2862 
Q 3000 2775 3000 2700 
Q 3000 2600 2962 2537 
Q 2925 2475 2825 2475 
Q 2750 2475 2700 2512 
Q 2650 2550 2625 2625 
Q 2600 2700 2512 2687 
Q 2425 2675 2325 2600 
Q 2425 2500 2475 2325 
Q 2525 2150 2525 1975 
Q 2525 1675 2287 1387 
Q 2050 1100 1525 1100 
Q 1375 1100 1250 1137 
Q 1125 1175 1050 1225 
Q 950 1175 900 1100 
Q 850 1025 850 975 
Q 850 875 900 825 
Q 950 775 1050 775 
Q 1375 725 1637 687 
Q 1900 650 2100 625 
z
M 1075 425 
Q 850 325 762 187 
Q 675 50 675 -150 
Q 675 -350 900 -525 
Q 1125 -700 1575 -700 
Q 2000 -700 2250 -562 
Q 2500 -425 2500 -150 
Q 2500 25 2437 125 
Q 2375 225 2250 250 
Q 2000 300 1700 350 
Q 1400 375 1075 425 
z
" transform="scale(0.015625)"/>
      </defs>
      <use xlink:href="#SimSun-9752"/>
      <use xlink:href="#SimSun-9709" x="100"/>
      <use xlink:href="#SimSun-7d20" x="200"/>
      <use xlink:href="#SimSun-6d53" x="300"/>
      <use xlink:href="#SimSun-5ea6" x="400"/>
      <use xlink:href="#SimSun-2f" x="500"/>
      <use xlink:href="#SimSun-67" x="550"/>
      <use xlink:href="#SimSun-2f" x="600"/>
      <use xlink:href="#SimSun-68" x="650"/>
     </g>
    </g>
   </g>
   <g id="line2d_35">
    <path d="M 61.535469 380.64402 
L 98.795469 380.499893 
L 108.515469 380.304732 
L 113.375469 380.06154 
L 116.615469 379.699245 
L 118.235469 379.329029 
L 119.855469 378.561214 
L 121.475469 376.520736 
L 123.095469 373.531728 
L 126.335469 368.339782 
L 131.195469 361.184889 
L 136.055469 354.440738 
L 140.915469 348.015786 
L 149.015469 337.763039 
L 157.115469 327.937817 
L 163.595469 320.444311 
L 170.075469 313.276043 
L 174.935469 308.116881 
L 179.795469 303.196402 
L 187.895469 295.39865 
L 197.615469 286.223896 
L 210.575469 274.292519 
L 225.155469 261.201837 
L 246.215469 242.747413 
L 254.315469 235.733889 
L 264.035469 227.51648 
L 272.135469 221.11671 
L 311.015469 191.037786 
L 319.115469 185.238653 
L 327.215469 179.714918 
L 332.075469 176.727476 
L 340.175469 172.134854 
L 351.515469 165.774433 
L 357.995469 161.868995 
L 361.235469 159.710376 
L 366.095469 156.145918 
L 370.955469 152.3113 
L 377.435469 146.879365 
L 388.775469 137.25085 
L 393.635469 133.382135 
L 400.115469 128.590186 
L 406.595469 124.044761 
L 411.455469 120.871109 
L 416.315469 117.970229 
L 421.175469 115.399841 
L 426.035469 113.117951 
L 430.895469 111.072127 
L 442.235469 106.42965 
L 447.095469 104.042861 
L 450.335469 102.311769 
L 453.575469 100.397078 
L 456.815469 98.298788 
L 463.295469 93.656342 
L 474.635469 85.525481 
L 481.115469 81.145333 
L 485.975469 78.129047 
L 489.215469 76.293023 
L 494.075469 73.801333 
L 498.935469 71.650578 
L 503.795469 69.76212 
L 507.035469 68.739192 
L 510.275469 67.952361 
L 518.375469 66.273704 
L 528.095469 64.122979 
L 532.955469 63.073819 
L 539.435469 61.84109 
L 545.915469 60.477197 
L 549.155469 60.031331 
L 554.015469 59.716567 
L 560.495469 59.716567 
L 565.355469 59.611667 
L 570.215469 59.244468 
L 575.075469 58.641205 
L 578.315469 58.011709 
L 583.175469 56.674048 
L 596.135469 52.5824 
L 599.375469 51.874236 
L 602.615469 51.402106 
L 605.855469 51.24474 
L 609.095469 51.375904 
L 612.335469 51.769304 
L 617.195469 52.5824 
L 625.295469 54.103659 
L 628.535469 54.523324 
L 631.775469 54.733156 
L 635.015469 54.628224 
L 638.255469 54.156125 
L 643.115469 52.949598 
L 647.975469 51.402106 
L 652.835469 49.592347 
L 664.175469 45.238401 
L 670.655469 43.113878 
L 680.375469 40.018924 
L 690.095469 36.950173 
L 694.955469 35.612512 
L 699.815469 34.510917 
L 701.435469 34.222418 
L 701.435469 34.222418 
" clip-path="url(#pffe967a892)" style="fill: none; stroke: #0000ff; stroke-width: 2; stroke-linecap: square"/>
   </g>
   <g id="line2d_36">
    <path d="M 61.535469 378.18756 
L 64.775469 382.986059 
L 66.395469 380.985541 
L 68.015469 379.920372 
L 69.635469 383.143113 
L 71.255469 380.307612 
L 72.875469 378.761245 
L 74.495469 382.764377 
L 76.115469 377.227776 
L 77.735469 383.641148 
L 79.355469 378.955772 
L 80.975469 381.454935 
L 82.595469 381.663016 
L 84.215469 379.921138 
L 85.835469 382.081524 
L 87.455469 380.427802 
L 89.075469 378.395063 
L 90.695469 380.73822 
L 92.315469 378.674574 
L 93.935469 381.349128 
L 95.555469 380.189673 
L 97.175469 383.499649 
L 98.795469 383.164625 
L 100.415469 383.402659 
L 102.035469 381.91312 
L 103.655469 379.949794 
L 105.275469 380.162112 
L 106.895469 379.688215 
L 108.515469 377.72442 
L 110.135469 381.16667 
L 111.755469 376.551786 
L 113.375469 377.02587 
L 114.995469 378.588168 
L 116.615469 379.253293 
L 118.235469 376.877024 
L 119.855469 376.914404 
L 121.475469 377.903423 
L 123.095469 376.402408 
L 124.715469 369.866862 
L 126.335469 371.976955 
L 127.955469 365.645722 
L 129.575469 357.764526 
L 131.195469 362.462783 
L 132.815469 362.040508 
L 134.435469 359.158466 
L 136.055469 354.444779 
L 137.675469 355.755331 
L 139.295469 348.894468 
L 140.915469 351.309397 
L 142.535469 343.989771 
L 144.155469 338.476808 
L 145.775469 327.38508 
L 147.395469 330.900417 
L 149.015469 339.938285 
L 150.635469 328.74752 
L 152.255469 329.441457 
L 153.875469 327.190256 
L 155.495469 324.518672 
L 157.115469 318.072205 
L 158.735469 327.021681 
L 160.355469 316.801815 
L 161.975469 320.785671 
L 163.595469 307.758367 
L 165.215469 317.646944 
L 166.835469 310.992552 
L 168.455469 310.573341 
L 170.075469 309.782757 
L 171.695469 316.953178 
L 173.315469 309.410713 
L 174.935469 308.058826 
L 176.555469 305.875083 
L 178.175469 309.061946 
L 179.795469 304.251394 
L 181.415469 304.339723 
L 183.035469 304.660224 
L 184.655469 305.801684 
L 186.275469 305.512763 
L 187.895469 296.962487 
L 189.515469 299.759482 
L 191.135469 290.412753 
L 192.755469 298.522908 
L 194.375469 292.749812 
L 195.995469 295.229832 
L 197.615469 295.098816 
L 199.235469 289.138689 
L 200.855469 285.814127 
L 202.475469 284.37184 
L 204.095469 285.428677 
L 205.715469 277.675535 
L 207.335469 274.16069 
L 208.955469 268.137428 
L 210.575469 270.120163 
L 212.195469 276.807104 
L 213.815469 276.191256 
L 215.435469 277.985272 
L 217.055469 274.769527 
L 218.675469 256.687632 
L 220.295469 265.460091 
L 221.915469 280.238724 
L 223.535469 281.664463 
L 225.155469 279.951225 
L 226.775469 266.55573 
L 228.395469 259.749404 
L 230.015469 246.789143 
L 231.635469 257.112792 
L 233.255469 261.524746 
L 234.875469 249.927011 
L 236.495469 257.261067 
L 238.115469 251.025479 
L 239.735469 232.701876 
L 241.355469 238.517627 
L 242.975469 241.710728 
L 244.595469 244.453366 
L 246.215469 230.322621 
L 247.835469 233.08624 
L 249.455469 236.775108 
L 251.075469 236.783659 
L 252.695469 237.689602 
L 254.315469 243.623402 
L 255.935469 238.71056 
L 257.555469 221.838631 
L 259.175469 222.218086 
L 260.795469 229.527223 
L 264.035469 230.834507 
L 265.655469 232.205264 
L 267.275469 231.184869 
L 268.895469 223.520743 
L 270.515469 219.162529 
L 272.135469 220.841577 
L 273.755469 221.051503 
L 275.375469 222.452103 
L 276.995469 218.937345 
L 278.615469 226.123118 
L 280.235469 214.947924 
L 281.855469 216.524573 
L 283.475469 228.274781 
L 285.095469 208.897373 
L 286.715469 204.778757 
L 288.335469 214.348631 
L 289.955469 215.095676 
L 291.575469 210.512918 
L 293.195469 211.40984 
L 294.815469 210.670112 
L 296.435469 206.501813 
L 298.055469 205.070212 
L 299.675469 209.379681 
L 301.295469 205.49355 
L 302.915469 200.548941 
L 304.535469 204.047284 
L 306.155469 197.70023 
L 307.775469 194.977946 
L 309.395469 191.290626 
L 311.015469 194.22307 
L 312.635469 194.18322 
L 314.255469 193.683982 
L 315.875469 198.8718 
L 317.495469 190.892614 
L 319.115469 192.759279 
L 320.735469 185.164519 
L 322.355469 179.181474 
L 323.975469 182.858977 
L 325.595469 175.735503 
L 328.835469 179.489422 
L 330.455469 176.177116 
L 333.695469 158.716823 
L 335.315469 162.871005 
L 336.935469 160.215992 
L 338.555469 160.321878 
L 340.175469 168.435699 
L 341.795469 165.049792 
L 343.415469 160.586161 
L 345.035469 146.888479 
L 346.655469 162.599124 
L 348.275469 161.630804 
L 349.895469 161.601163 
L 351.515469 168.877438 
L 353.135469 171.639555 
L 354.755469 164.268104 
L 356.375469 154.84495 
L 357.995469 151.723935 
L 359.615469 161.081523 
L 361.235469 159.57202 
L 362.855469 161.041564 
L 364.475469 169.999654 
L 366.095469 158.286888 
L 367.715469 144.090499 
L 369.335469 139.692701 
L 370.955469 151.795005 
L 372.575469 155.09199 
L 374.195469 157.607224 
L 375.815469 168.65649 
L 377.435469 158.368713 
L 379.055469 140.137566 
L 380.675469 148.506478 
L 382.295469 145.94919 
L 383.915469 157.172254 
L 385.535469 147.320775 
L 387.155469 156.85402 
L 388.775469 150.676979 
L 390.395469 146.282777 
L 393.635469 149.540506 
L 395.255469 148.069054 
L 396.875469 146.803761 
L 398.495469 139.567352 
L 400.115469 135.446422 
L 401.735469 135.044439 
L 403.355469 137.315291 
L 404.975469 143.429735 
L 406.595469 142.304455 
L 408.215469 142.388016 
L 409.835469 138.360215 
L 411.455469 134.841658 
L 413.075469 132.924028 
L 414.695469 132.661792 
L 416.315469 137.3371 
L 417.935469 137.028605 
L 419.555469 142.211218 
L 421.175469 133.45458 
L 422.795469 136.10151 
L 424.415469 133.460943 
L 426.035469 126.145021 
L 427.655469 121.334 
L 429.275469 121.15062 
L 430.895469 125.996894 
L 432.515469 125.152501 
L 434.135469 129.633687 
L 435.755469 135.256225 
L 437.375469 126.876479 
L 438.995469 130.571616 
L 440.615469 127.329271 
L 442.235469 114.922895 
L 443.855469 115.485043 
L 445.475469 120.021103 
L 447.095469 119.92713 
L 448.715469 104.965359 
L 450.335469 109.411824 
L 451.955469 101.035923 
L 453.575469 103.387038 
L 455.195469 100.952722 
L 456.815469 103.017682 
L 458.435469 106.051727 
L 460.055469 104.110428 
L 461.675469 101.835043 
L 463.295469 98.864813 
L 464.915469 99.052477 
L 466.535469 88.867255 
L 468.155469 98.204268 
L 469.775469 95.949081 
L 471.395469 91.552299 
L 473.015469 88.808223 
L 474.635469 93.5899 
L 476.255469 97.734952 
L 477.875469 99.243174 
L 479.495469 99.508692 
L 481.115469 101.496891 
L 482.735469 97.824532 
L 484.355469 93.213134 
L 485.975469 96.008019 
L 487.595469 89.672033 
L 489.215469 82.824678 
L 490.835469 85.024741 
L 492.455469 86.831311 
L 494.075469 86.036976 
L 495.695469 92.935797 
L 497.315469 95.196612 
L 498.935469 83.992058 
L 500.555469 83.545723 
L 502.175469 94.199323 
L 503.795469 73.972176 
L 505.415469 91.040836 
L 507.035469 88.268619 
L 508.655469 78.397504 
L 510.275469 81.163436 
L 511.895469 69.660721 
L 513.515469 81.441086 
L 515.135469 85.637979 
L 516.755469 92.450034 
L 518.375469 85.303454 
L 519.995469 79.038538 
L 521.615469 75.945867 
L 523.235469 69.921831 
L 524.855469 69.298901 
L 526.475469 68.058043 
L 528.095469 81.052626 
L 529.715469 88.795935 
L 531.335469 89.021432 
L 532.955469 86.979766 
L 534.575469 88.952707 
L 536.195469 79.49491 
L 537.815469 80.787202 
L 539.435469 84.803559 
L 542.675469 81.609333 
L 544.295469 86.352146 
L 545.915469 74.802343 
L 547.535469 73.559953 
L 549.155469 66.848921 
L 550.775469 66.715255 
L 552.395469 72.189713 
L 554.015469 69.879152 
L 555.635469 70.077134 
L 557.255469 79.927862 
L 558.875469 83.583494 
L 560.495469 78.022333 
L 562.115469 79.163637 
L 563.735469 85.154311 
L 565.355469 77.492922 
L 566.975469 78.065481 
L 568.595469 84.447336 
L 570.215469 77.121846 
L 571.835469 72.564478 
L 573.455469 70.513119 
L 575.075469 74.118599 
L 576.695469 79.63511 
L 578.315469 78.79747 
L 579.935469 82.761393 
L 581.555469 80.39746 
L 583.175469 75.898998 
L 584.795469 73.732859 
L 586.415469 69.776034 
L 588.035469 72.9525 
L 589.655469 77.55827 
L 591.275469 75.858633 
L 592.895469 79.425247 
L 594.515469 73.311256 
L 596.135469 65.10107 
L 597.755469 60.385898 
L 599.375469 73.567676 
L 600.995469 63.629275 
L 602.615469 72.578235 
L 604.235469 75.242518 
L 605.855469 72.531397 
L 607.475469 64.634599 
L 609.095469 58.259968 
L 610.715469 68.461136 
L 612.335469 55.129651 
L 613.955469 64.722303 
L 615.575469 67.558711 
L 617.195469 72.695986 
L 618.815469 75.064735 
L 620.435469 71.518412 
L 622.055469 69.433911 
L 623.675469 69.623983 
L 625.295469 62.294992 
L 626.915469 58.362242 
L 628.535469 61.18855 
L 630.155469 62.924707 
L 631.775469 60.930942 
L 633.395469 64.267651 
L 635.015469 70.309478 
L 636.635469 70.957609 
L 638.255469 69.116333 
L 639.875469 80.053243 
L 641.495469 67.984159 
L 643.115469 73.593971 
L 644.735469 64.914845 
L 646.355469 60.897049 
L 647.975469 58.196683 
L 649.595469 64.502184 
L 651.215469 60.72358 
L 652.835469 58.645426 
L 654.455469 66.610573 
L 656.075469 61.552559 
L 657.695469 62.639709 
L 659.315469 61.057635 
L 660.935469 62.760337 
L 662.555469 61.791063 
L 664.175469 67.207146 
L 665.795469 72.054046 
L 667.415469 60.194263 
L 669.035469 62.973327 
L 670.655469 57.370018 
L 672.275469 62.867051 
L 673.895469 59.03967 
L 675.515469 52.463179 
L 677.135469 50.313643 
L 678.755469 50.529385 
L 680.375469 54.588546 
L 681.995469 61.764142 
L 683.615469 46.080137 
L 685.235469 53.036458 
L 686.855469 58.155661 
L 688.475469 65.073243 
L 690.095469 56.381734 
L 691.715469 64.522132 
L 693.335469 52.179245 
L 694.955469 50.169565 
L 696.575469 55.113111 
L 698.195469 47.008357 
L 699.815469 57.848777 
L 701.435469 59.227897 
L 701.435469 59.227897 
" clip-path="url(#pffe967a892)" style="fill: none; stroke-dasharray: 2,3.3; stroke-dashoffset: 0; stroke: #bf00bf; stroke-width: 2"/>
   </g>
   <g id="patch_3">
    <path d="M 55.055469 380.649375 
L 55.055469 13.449375 
" style="fill: none; stroke: #000000; stroke-width: 0.8; stroke-linejoin: miter; stroke-linecap: square"/>
   </g>
   <g id="patch_4">
    <path d="M 703.055469 380.649375 
L 703.055469 13.449375 
" style="fill: none; stroke: #000000; stroke-width: 0.8; stroke-linejoin: miter; stroke-linecap: square"/>
   </g>
   <g id="patch_5">
    <path d="M 55.055469 380.649375 
L 703.055469 380.649375 
" style="fill: none; stroke: #000000; stroke-width: 0.8; stroke-linejoin: miter; stroke-linecap: square"/>
   </g>
   <g id="patch_6">
    <path d="M 55.055469 13.449375 
L 703.055469 13.449375 
" style="fill: none; stroke: #000000; stroke-width: 0.8; stroke-linejoin: miter; stroke-linecap: square"/>
   </g>
   <g id="legend_1">
    <g id="patch_7">
     <path d="M 69.055469 86.005625 
L 219.889844 86.005625 
Q 223.889844 86.005625 223.889844 82.005625 
L 223.889844 27.449375 
Q 223.889844 23.449375 219.889844 23.449375 
L 69.055469 23.449375 
Q 65.055469 23.449375 65.055469 27.449375 
L 65.055469 82.005625 
Q 65.055469 86.005625 69.055469 86.005625 
z
" style="fill: #ffffff; opacity: 0.8; stroke: #cccccc; stroke-linejoin: miter"/>
    </g>
    <g id="line2d_37">
     <path d="M 73.055469 38.449375 
L 93.055469 38.449375 
L 113.055469 38.449375 
" style="fill: none; stroke: #0000ff; stroke-width: 2; stroke-linecap: square"/>
    </g>
    <g id="text_20">
     <!-- Real Value -->
     <g transform="translate(129.055469 45.449375) scale(0.2 -0.2)">
      <defs>
       <path id="TimesNewRomanPSMT-52" d="M 4325 0 
L 3194 0 
L 1759 1981 
Q 1600 1975 1500 1975 
Q 1459 1975 1412 1976 
Q 1366 1978 1316 1981 
L 1316 750 
Q 1316 350 1403 253 
Q 1522 116 1759 116 
L 1925 116 
L 1925 0 
L 109 0 
L 109 116 
L 269 116 
Q 538 116 653 291 
Q 719 388 719 750 
L 719 3488 
Q 719 3888 631 3984 
Q 509 4122 269 4122 
L 109 4122 
L 109 4238 
L 1653 4238 
Q 2328 4238 2648 4139 
Q 2969 4041 3192 3777 
Q 3416 3513 3416 3147 
Q 3416 2756 3161 2468 
Q 2906 2181 2372 2063 
L 3247 847 
Q 3547 428 3762 290 
Q 3978 153 4325 116 
L 4325 0 
z
M 1316 2178 
Q 1375 2178 1419 2176 
Q 1463 2175 1491 2175 
Q 2097 2175 2405 2437 
Q 2713 2700 2713 3106 
Q 2713 3503 2464 3751 
Q 2216 4000 1806 4000 
Q 1625 4000 1316 3941 
L 1316 2178 
z
" transform="scale(0.015625)"/>
       <path id="TimesNewRomanPSMT-65" d="M 681 1784 
Q 678 1147 991 784 
Q 1303 422 1725 422 
Q 2006 422 2214 576 
Q 2422 731 2563 1106 
L 2659 1044 
Q 2594 616 2278 264 
Q 1963 -88 1488 -88 
Q 972 -88 605 314 
Q 238 716 238 1394 
Q 238 2128 614 2539 
Q 991 2950 1559 2950 
Q 2041 2950 2350 2633 
Q 2659 2316 2659 1784 
L 681 1784 
z
M 681 1966 
L 2006 1966 
Q 1991 2241 1941 2353 
Q 1863 2528 1708 2628 
Q 1553 2728 1384 2728 
Q 1125 2728 920 2526 
Q 716 2325 681 1966 
z
" transform="scale(0.015625)"/>
       <path id="TimesNewRomanPSMT-61" d="M 1822 413 
Q 1381 72 1269 19 
Q 1100 -59 909 -59 
Q 613 -59 420 144 
Q 228 347 228 678 
Q 228 888 322 1041 
Q 450 1253 767 1440 
Q 1084 1628 1822 1897 
L 1822 2009 
Q 1822 2438 1686 2597 
Q 1550 2756 1291 2756 
Q 1094 2756 978 2650 
Q 859 2544 859 2406 
L 866 2225 
Q 866 2081 792 2003 
Q 719 1925 600 1925 
Q 484 1925 411 2006 
Q 338 2088 338 2228 
Q 338 2497 613 2722 
Q 888 2947 1384 2947 
Q 1766 2947 2009 2819 
Q 2194 2722 2281 2516 
Q 2338 2381 2338 1966 
L 2338 994 
Q 2338 584 2353 492 
Q 2369 400 2405 369 
Q 2441 338 2488 338 
Q 2538 338 2575 359 
Q 2641 400 2828 588 
L 2828 413 
Q 2478 -56 2159 -56 
Q 2006 -56 1915 50 
Q 1825 156 1822 413 
z
M 1822 616 
L 1822 1706 
Q 1350 1519 1213 1441 
Q 966 1303 859 1153 
Q 753 1003 753 825 
Q 753 600 887 451 
Q 1022 303 1197 303 
Q 1434 303 1822 616 
z
" transform="scale(0.015625)"/>
       <path id="TimesNewRomanPSMT-6c" d="M 1184 4444 
L 1184 647 
Q 1184 378 1223 290 
Q 1263 203 1344 158 
Q 1425 113 1647 113 
L 1647 0 
L 244 0 
L 244 113 
Q 441 113 512 153 
Q 584 194 625 287 
Q 666 381 666 647 
L 666 3247 
Q 666 3731 644 3842 
Q 622 3953 573 3993 
Q 525 4034 450 4034 
Q 369 4034 244 3984 
L 191 4094 
L 1044 4444 
L 1184 4444 
z
" transform="scale(0.015625)"/>
       <path id="TimesNewRomanPSMT-20" transform="scale(0.015625)"/>
       <path id="TimesNewRomanPSMT-56" d="M 4544 4238 
L 4544 4122 
Q 4319 4081 4203 3978 
Q 4038 3825 3909 3509 
L 2431 -97 
L 2316 -97 
L 728 3556 
Q 606 3838 556 3900 
Q 478 3997 364 4051 
Q 250 4106 56 4122 
L 56 4238 
L 1788 4238 
L 1788 4122 
Q 1494 4094 1406 4022 
Q 1319 3950 1319 3838 
Q 1319 3681 1463 3350 
L 2541 866 
L 3541 3319 
Q 3688 3681 3688 3822 
Q 3688 3913 3597 3995 
Q 3506 4078 3291 4113 
Q 3275 4116 3238 4122 
L 3238 4238 
L 4544 4238 
z
" transform="scale(0.015625)"/>
       <path id="TimesNewRomanPSMT-75" d="M 2709 2863 
L 2709 1128 
Q 2709 631 2732 520 
Q 2756 409 2807 365 
Q 2859 322 2928 322 
Q 3025 322 3147 375 
L 3191 266 
L 2334 -88 
L 2194 -88 
L 2194 519 
Q 1825 119 1631 15 
Q 1438 -88 1222 -88 
Q 981 -88 804 51 
Q 628 191 559 409 
Q 491 628 491 1028 
L 491 2306 
Q 491 2509 447 2587 
Q 403 2666 317 2708 
Q 231 2750 6 2747 
L 6 2863 
L 1009 2863 
L 1009 947 
Q 1009 547 1148 422 
Q 1288 297 1484 297 
Q 1619 297 1789 381 
Q 1959 466 2194 703 
L 2194 2325 
Q 2194 2569 2105 2655 
Q 2016 2741 1734 2747 
L 1734 2863 
L 2709 2863 
z
" transform="scale(0.015625)"/>
      </defs>
      <use xlink:href="#TimesNewRomanPSMT-52"/>
      <use xlink:href="#TimesNewRomanPSMT-65" x="66.699219"/>
      <use xlink:href="#TimesNewRomanPSMT-61" x="111.083984"/>
      <use xlink:href="#TimesNewRomanPSMT-6c" x="155.46875"/>
      <use xlink:href="#TimesNewRomanPSMT-20" x="183.251953"/>
      <use xlink:href="#TimesNewRomanPSMT-56" x="206.501953"/>
      <use xlink:href="#TimesNewRomanPSMT-61" x="267.59375"/>
      <use xlink:href="#TimesNewRomanPSMT-6c" x="311.978516"/>
      <use xlink:href="#TimesNewRomanPSMT-75" x="339.761719"/>
      <use xlink:href="#TimesNewRomanPSMT-65" x="389.761719"/>
     </g>
    </g>
    <g id="line2d_38">
     <path d="M 73.055469 66.7275 
L 93.055469 66.7275 
L 113.055469 66.7275 
" style="fill: none; stroke-dasharray: 2,3.3; stroke-dashoffset: 0; stroke: #bf00bf; stroke-width: 2"/>
    </g>
    <g id="text_21">
     <!-- GCN -->
     <g transform="translate(129.055469 73.7275) scale(0.2 -0.2)">
      <defs>
       <path id="TimesNewRomanPSMT-47" d="M 3928 4334 
L 4038 2997 
L 3928 2997 
Q 3763 3497 3500 3750 
Q 3122 4116 2528 4116 
Q 1719 4116 1297 3475 
Q 944 2934 944 2188 
Q 944 1581 1178 1081 
Q 1413 581 1792 348 
Q 2172 116 2572 116 
Q 2806 116 3025 175 
Q 3244 234 3447 350 
L 3447 1575 
Q 3447 1894 3398 1992 
Q 3350 2091 3248 2142 
Q 3147 2194 2891 2194 
L 2891 2313 
L 4531 2313 
L 4531 2194 
L 4453 2194 
Q 4209 2194 4119 2031 
Q 4056 1916 4056 1575 
L 4056 278 
Q 3697 84 3347 -6 
Q 2997 -97 2569 -97 
Q 1341 -97 703 691 
Q 225 1281 225 2053 
Q 225 2613 494 3125 
Q 813 3734 1369 4063 
Q 1834 4334 2469 4334 
Q 2700 4334 2889 4296 
Q 3078 4259 3425 4131 
Q 3600 4066 3659 4066 
Q 3719 4066 3761 4120 
Q 3803 4175 3813 4334 
L 3928 4334 
z
" transform="scale(0.015625)"/>
       <path id="TimesNewRomanPSMT-43" d="M 3853 4334 
L 3950 2894 
L 3853 2894 
Q 3659 3541 3300 3825 
Q 2941 4109 2438 4109 
Q 2016 4109 1675 3895 
Q 1334 3681 1139 3212 
Q 944 2744 944 2047 
Q 944 1472 1128 1050 
Q 1313 628 1683 403 
Q 2053 178 2528 178 
Q 2941 178 3256 354 
Q 3572 531 3950 1056 
L 4047 994 
Q 3728 428 3303 165 
Q 2878 -97 2294 -97 
Q 1241 -97 663 684 
Q 231 1266 231 2053 
Q 231 2688 515 3219 
Q 800 3750 1298 4042 
Q 1797 4334 2388 4334 
Q 2847 4334 3294 4109 
Q 3425 4041 3481 4041 
Q 3566 4041 3628 4100 
Q 3709 4184 3744 4334 
L 3853 4334 
z
" transform="scale(0.015625)"/>
       <path id="TimesNewRomanPSMT-4e" d="M -84 4238 
L 1066 4238 
L 3656 1059 
L 3656 3503 
Q 3656 3894 3569 3991 
Q 3453 4122 3203 4122 
L 3056 4122 
L 3056 4238 
L 4531 4238 
L 4531 4122 
L 4381 4122 
Q 4113 4122 4000 3959 
Q 3931 3859 3931 3503 
L 3931 -69 
L 3819 -69 
L 1025 3344 
L 1025 734 
Q 1025 344 1109 247 
Q 1228 116 1475 116 
L 1625 116 
L 1625 0 
L 150 0 
L 150 116 
L 297 116 
Q 569 116 681 278 
Q 750 378 750 734 
L 750 3681 
Q 566 3897 470 3965 
Q 375 4034 191 4094 
Q 100 4122 -84 4122 
L -84 4238 
z
" transform="scale(0.015625)"/>
      </defs>
      <use xlink:href="#TimesNewRomanPSMT-47"/>
      <use xlink:href="#TimesNewRomanPSMT-43" x="72.216797"/>
      <use xlink:href="#TimesNewRomanPSMT-4e" x="138.916016"/>
     </g>
    </g>
   </g>
  </g>
 </g>
 <defs>
  <clipPath id="pffe967a892">
   <rect x="55.055469" y="13.449375" width="648" height="367.2"/>
  </clipPath>
 </defs>
</svg>
