<?xml version="1.0" encoding="utf-8" standalone="no"?>
<!DOCTYPE svg PUBLIC "-//W3C//DTD SVG 1.1//EN"
  "http://www.w3.org/Graphics/SVG/1.1/DTD/svg11.dtd">
<svg xmlns:xlink="http://www.w3.org/1999/xlink" width="723.755469pt" height="429.085156pt" viewBox="0 0 723.755469 429.085156" xmlns="http://www.w3.org/2000/svg" version="1.1">
 <metadata>
  <rdf:RDF xmlns:dc="http://purl.org/dc/elements/1.1/" xmlns:cc="http://creativecommons.org/ns#" xmlns:rdf="http://www.w3.org/1999/02/22-rdf-syntax-ns#">
   <cc:Work>
    <dc:type rdf:resource="http://purl.org/dc/dcmitype/StillImage"/>
    <dc:date>2025-05-27T14:12:30.108967</dc:date>
    <dc:format>image/svg+xml</dc:format>
    <dc:creator>
     <cc:Agent>
      <dc:title>Matplotlib v3.7.2, https://matplotlib.org/</dc:title>
     </cc:Agent>
    </dc:creator>
   </cc:Work>
  </rdf:RDF>
 </metadata>
 <defs>
  <style type="text/css">*{stroke-linejoin: round; stroke-linecap: butt}</style>
 </defs>
 <g id="figure_1">
  <g id="patch_1">
   <path d="M 0 429.085156 
L 723.755469 429.085156 
L 723.755469 0 
L 0 0 
z
" style="fill: #ffffff"/>
  </g>
  <g id="axes_1">
   <g id="patch_2">
    <path d="M 55.055469 380.649375 
L 703.055469 380.649375 
L 703.055469 13.449375 
L 55.055469 13.449375 
z
" style="fill: #ffffff"/>
   </g>
   <g id="matplotlib.axis_1">
    <g id="xtick_1">
     <g id="line2d_1">
      <path d="M 55.055469 380.649375 
L 55.055469 13.449375 
" clip-path="url(#pe3f8bc6468)" style="fill: none; stroke: #b0b0b0; stroke-width: 0.8; stroke-linecap: square"/>
     </g>
     <g id="line2d_2">
      <defs>
       <path id="m46e4527a2c" d="M 0 0 
L 0 3.5 
" style="stroke: #000000; stroke-width: 0.8"/>
      </defs>
      <g>
       <use xlink:href="#m46e4527a2c" x="55.055469" y="380.649375" style="stroke: #000000; stroke-width: 0.8"/>
      </g>
     </g>
     <g id="text_1">
      <!-- 0 -->
      <g transform="translate(50.555469 400.148125) scale(0.18 -0.18)">
       <defs>
        <path id="TimesNewRomanPSMT-30" d="M 231 2094 
Q 231 2819 450 3342 
Q 669 3866 1031 4122 
Q 1313 4325 1613 4325 
Q 2100 4325 2488 3828 
Q 2972 3213 2972 2159 
Q 2972 1422 2759 906 
Q 2547 391 2217 158 
Q 1888 -75 1581 -75 
Q 975 -75 572 641 
Q 231 1244 231 2094 
z
M 844 2016 
Q 844 1141 1059 588 
Q 1238 122 1591 122 
Q 1759 122 1940 273 
Q 2122 425 2216 781 
Q 2359 1319 2359 2297 
Q 2359 3022 2209 3506 
Q 2097 3866 1919 4016 
Q 1791 4119 1609 4119 
Q 1397 4119 1231 3928 
Q 1006 3669 925 3112 
Q 844 2556 844 2016 
z
" transform="scale(0.015625)"/>
       </defs>
       <use xlink:href="#TimesNewRomanPSMT-30"/>
      </g>
     </g>
    </g>
    <g id="xtick_2">
     <g id="line2d_3">
      <path d="M 136.055469 380.649375 
L 136.055469 13.449375 
" clip-path="url(#pe3f8bc6468)" style="fill: none; stroke: #b0b0b0; stroke-width: 0.8; stroke-linecap: square"/>
     </g>
     <g id="line2d_4">
      <g>
       <use xlink:href="#m46e4527a2c" x="136.055469" y="380.649375" style="stroke: #000000; stroke-width: 0.8"/>
      </g>
     </g>
     <g id="text_2">
      <!-- 50 -->
      <g transform="translate(127.055469 400.148125) scale(0.18 -0.18)">
       <defs>
        <path id="TimesNewRomanPSMT-35" d="M 2778 4238 
L 2534 3706 
L 1259 3706 
L 981 3138 
Q 1809 3016 2294 2522 
Q 2709 2097 2709 1522 
Q 2709 1188 2573 903 
Q 2438 619 2231 419 
Q 2025 219 1772 97 
Q 1413 -75 1034 -75 
Q 653 -75 479 54 
Q 306 184 306 341 
Q 306 428 378 495 
Q 450 563 559 563 
Q 641 563 702 538 
Q 763 513 909 409 
Q 1144 247 1384 247 
Q 1750 247 2026 523 
Q 2303 800 2303 1197 
Q 2303 1581 2056 1914 
Q 1809 2247 1375 2428 
Q 1034 2569 447 2591 
L 1259 4238 
L 2778 4238 
z
" transform="scale(0.015625)"/>
       </defs>
       <use xlink:href="#TimesNewRomanPSMT-35"/>
       <use xlink:href="#TimesNewRomanPSMT-30" x="50"/>
      </g>
     </g>
    </g>
    <g id="xtick_3">
     <g id="line2d_5">
      <path d="M 217.055469 380.649375 
L 217.055469 13.449375 
" clip-path="url(#pe3f8bc6468)" style="fill: none; stroke: #b0b0b0; stroke-width: 0.8; stroke-linecap: square"/>
     </g>
     <g id="line2d_6">
      <g>
       <use xlink:href="#m46e4527a2c" x="217.055469" y="380.649375" style="stroke: #000000; stroke-width: 0.8"/>
      </g>
     </g>
     <g id="text_3">
      <!-- 100 -->
      <g transform="translate(203.555469 400.148125) scale(0.18 -0.18)">
       <defs>
        <path id="TimesNewRomanPSMT-31" d="M 750 3822 
L 1781 4325 
L 1884 4325 
L 1884 747 
Q 1884 391 1914 303 
Q 1944 216 2037 169 
Q 2131 122 2419 116 
L 2419 0 
L 825 0 
L 825 116 
Q 1125 122 1212 167 
Q 1300 213 1334 289 
Q 1369 366 1369 747 
L 1369 3034 
Q 1369 3497 1338 3628 
Q 1316 3728 1258 3775 
Q 1200 3822 1119 3822 
Q 1003 3822 797 3725 
L 750 3822 
z
" transform="scale(0.015625)"/>
       </defs>
       <use xlink:href="#TimesNewRomanPSMT-31"/>
       <use xlink:href="#TimesNewRomanPSMT-30" x="50"/>
       <use xlink:href="#TimesNewRomanPSMT-30" x="100"/>
      </g>
     </g>
    </g>
    <g id="xtick_4">
     <g id="line2d_7">
      <path d="M 298.055469 380.649375 
L 298.055469 13.449375 
" clip-path="url(#pe3f8bc6468)" style="fill: none; stroke: #b0b0b0; stroke-width: 0.8; stroke-linecap: square"/>
     </g>
     <g id="line2d_8">
      <g>
       <use xlink:href="#m46e4527a2c" x="298.055469" y="380.649375" style="stroke: #000000; stroke-width: 0.8"/>
      </g>
     </g>
     <g id="text_4">
      <!-- 150 -->
      <g transform="translate(284.555469 400.148125) scale(0.18 -0.18)">
       <use xlink:href="#TimesNewRomanPSMT-31"/>
       <use xlink:href="#TimesNewRomanPSMT-35" x="50"/>
       <use xlink:href="#TimesNewRomanPSMT-30" x="100"/>
      </g>
     </g>
    </g>
    <g id="xtick_5">
     <g id="line2d_9">
      <path d="M 379.055469 380.649375 
L 379.055469 13.449375 
" clip-path="url(#pe3f8bc6468)" style="fill: none; stroke: #b0b0b0; stroke-width: 0.8; stroke-linecap: square"/>
     </g>
     <g id="line2d_10">
      <g>
       <use xlink:href="#m46e4527a2c" x="379.055469" y="380.649375" style="stroke: #000000; stroke-width: 0.8"/>
      </g>
     </g>
     <g id="text_5">
      <!-- 200 -->
      <g transform="translate(365.555469 400.148125) scale(0.18 -0.18)">
       <defs>
        <path id="TimesNewRomanPSMT-32" d="M 2934 816 
L 2638 0 
L 138 0 
L 138 116 
Q 1241 1122 1691 1759 
Q 2141 2397 2141 2925 
Q 2141 3328 1894 3587 
Q 1647 3847 1303 3847 
Q 991 3847 742 3664 
Q 494 3481 375 3128 
L 259 3128 
Q 338 3706 661 4015 
Q 984 4325 1469 4325 
Q 1984 4325 2329 3994 
Q 2675 3663 2675 3213 
Q 2675 2891 2525 2569 
Q 2294 2063 1775 1497 
Q 997 647 803 472 
L 1909 472 
Q 2247 472 2383 497 
Q 2519 522 2628 598 
Q 2738 675 2819 816 
L 2934 816 
z
" transform="scale(0.015625)"/>
       </defs>
       <use xlink:href="#TimesNewRomanPSMT-32"/>
       <use xlink:href="#TimesNewRomanPSMT-30" x="50"/>
       <use xlink:href="#TimesNewRomanPSMT-30" x="100"/>
      </g>
     </g>
    </g>
    <g id="xtick_6">
     <g id="line2d_11">
      <path d="M 460.055469 380.649375 
L 460.055469 13.449375 
" clip-path="url(#pe3f8bc6468)" style="fill: none; stroke: #b0b0b0; stroke-width: 0.8; stroke-linecap: square"/>
     </g>
     <g id="line2d_12">
      <g>
       <use xlink:href="#m46e4527a2c" x="460.055469" y="380.649375" style="stroke: #000000; stroke-width: 0.8"/>
      </g>
     </g>
     <g id="text_6">
      <!-- 250 -->
      <g transform="translate(446.555469 400.148125) scale(0.18 -0.18)">
       <use xlink:href="#TimesNewRomanPSMT-32"/>
       <use xlink:href="#TimesNewRomanPSMT-35" x="50"/>
       <use xlink:href="#TimesNewRomanPSMT-30" x="100"/>
      </g>
     </g>
    </g>
    <g id="xtick_7">
     <g id="line2d_13">
      <path d="M 541.055469 380.649375 
L 541.055469 13.449375 
" clip-path="url(#pe3f8bc6468)" style="fill: none; stroke: #b0b0b0; stroke-width: 0.8; stroke-linecap: square"/>
     </g>
     <g id="line2d_14">
      <g>
       <use xlink:href="#m46e4527a2c" x="541.055469" y="380.649375" style="stroke: #000000; stroke-width: 0.8"/>
      </g>
     </g>
     <g id="text_7">
      <!-- 300 -->
      <g transform="translate(527.555469 400.148125) scale(0.18 -0.18)">
       <defs>
        <path id="TimesNewRomanPSMT-33" d="M 325 3431 
Q 506 3859 782 4092 
Q 1059 4325 1472 4325 
Q 1981 4325 2253 3994 
Q 2459 3747 2459 3466 
Q 2459 3003 1878 2509 
Q 2269 2356 2469 2072 
Q 2669 1788 2669 1403 
Q 2669 853 2319 450 
Q 1863 -75 997 -75 
Q 569 -75 414 31 
Q 259 138 259 259 
Q 259 350 332 419 
Q 406 488 509 488 
Q 588 488 669 463 
Q 722 447 909 348 
Q 1097 250 1169 231 
Q 1284 197 1416 197 
Q 1734 197 1970 444 
Q 2206 691 2206 1028 
Q 2206 1275 2097 1509 
Q 2016 1684 1919 1775 
Q 1784 1900 1550 2001 
Q 1316 2103 1072 2103 
L 972 2103 
L 972 2197 
Q 1219 2228 1467 2375 
Q 1716 2522 1828 2728 
Q 1941 2934 1941 3181 
Q 1941 3503 1739 3701 
Q 1538 3900 1238 3900 
Q 753 3900 428 3381 
L 325 3431 
z
" transform="scale(0.015625)"/>
       </defs>
       <use xlink:href="#TimesNewRomanPSMT-33"/>
       <use xlink:href="#TimesNewRomanPSMT-30" x="50"/>
       <use xlink:href="#TimesNewRomanPSMT-30" x="100"/>
      </g>
     </g>
    </g>
    <g id="xtick_8">
     <g id="line2d_15">
      <path d="M 622.055469 380.649375 
L 622.055469 13.449375 
" clip-path="url(#pe3f8bc6468)" style="fill: none; stroke: #b0b0b0; stroke-width: 0.8; stroke-linecap: square"/>
     </g>
     <g id="line2d_16">
      <g>
       <use xlink:href="#m46e4527a2c" x="622.055469" y="380.649375" style="stroke: #000000; stroke-width: 0.8"/>
      </g>
     </g>
     <g id="text_8">
      <!-- 350 -->
      <g transform="translate(608.555469 400.148125) scale(0.18 -0.18)">
       <use xlink:href="#TimesNewRomanPSMT-33"/>
       <use xlink:href="#TimesNewRomanPSMT-35" x="50"/>
       <use xlink:href="#TimesNewRomanPSMT-30" x="100"/>
      </g>
     </g>
    </g>
    <g id="xtick_9">
     <g id="line2d_17">
      <path d="M 703.055469 380.649375 
L 703.055469 13.449375 
" clip-path="url(#pe3f8bc6468)" style="fill: none; stroke: #b0b0b0; stroke-width: 0.8; stroke-linecap: square"/>
     </g>
     <g id="line2d_18">
      <g>
       <use xlink:href="#m46e4527a2c" x="703.055469" y="380.649375" style="stroke: #000000; stroke-width: 0.8"/>
      </g>
     </g>
     <g id="text_9">
      <!-- 400 -->
      <g transform="translate(689.555469 400.148125) scale(0.18 -0.18)">
       <defs>
        <path id="TimesNewRomanPSMT-34" d="M 2978 1563 
L 2978 1119 
L 2409 1119 
L 2409 0 
L 1894 0 
L 1894 1119 
L 100 1119 
L 100 1519 
L 2066 4325 
L 2409 4325 
L 2409 1563 
L 2978 1563 
z
M 1894 1563 
L 1894 3666 
L 406 1563 
L 1894 1563 
z
" transform="scale(0.015625)"/>
       </defs>
       <use xlink:href="#TimesNewRomanPSMT-34"/>
       <use xlink:href="#TimesNewRomanPSMT-30" x="50"/>
       <use xlink:href="#TimesNewRomanPSMT-30" x="100"/>
      </g>
     </g>
    </g>
    <g id="text_10">
     <!-- 采样时间/h -->
     <g transform="translate(341.555469 419.951562) scale(0.15 -0.15)">
      <defs>
       <path id="SimSun-91c7" d="M 5250 5250 
L 5625 4775 
Q 5200 4750 3800 4625 
Q 2400 4475 725 4475 
L 725 4575 
Q 1975 4650 2775 4737 
Q 3575 4825 4250 4950 
Q 4925 5075 5250 5250 
z
M 1075 4125 
Q 1825 3650 1887 3462 
Q 1950 3275 1950 3225 
Q 1950 3075 1850 2962 
Q 1750 2850 1725 2850 
Q 1625 2850 1550 3125 
Q 1425 3525 1025 4075 
L 1075 4125 
z
M 2600 4275 
L 2675 4325 
Q 3375 3925 3437 3762 
Q 3500 3600 3500 3550 
Q 3500 3400 3400 3262 
Q 3300 3125 3250 3125 
Q 3175 3125 3100 3425 
Q 2975 3825 2600 4275 
z
M 4825 4475 
L 5350 4125 
L 5125 3975 
Q 4450 3025 3975 2600 
L 3900 2675 
Q 4550 3575 4825 4475 
z
M 3350 2200 
Q 3350 50 3375 -500 
L 2950 -675 
Q 2975 875 2975 1975 
Q 2100 425 275 -450 
L 225 -350 
Q 1825 600 2675 2200 
L 1150 2200 
Q 825 2200 550 2125 
L 325 2350 
L 2975 2350 
Q 2975 2675 2950 3075 
L 3525 2775 
L 3350 2575 
L 3350 2350 
L 5300 2350 
L 5650 2700 
L 6125 2200 
L 3625 2200 
Q 4525 250 6100 -25 
L 6100 -125 
Q 5750 -100 5550 -425 
Q 4150 325 3500 2200 
L 3350 2200 
z
" transform="scale(0.015625)"/>
       <path id="SimSun-6837" d="M 2800 5025 
L 2850 5100 
Q 3625 4675 3700 4512 
Q 3775 4350 3775 4300 
Q 3775 4175 3675 4037 
Q 3575 3900 3550 3900 
Q 3450 3900 3375 4125 
Q 3250 4475 2800 5025 
z
M 4275 1325 
Q 4275 75 4300 -475 
L 3900 -625 
Q 3925 275 3925 1325 
L 3075 1325 
Q 2750 1325 2475 1250 
L 2250 1475 
L 3925 1475 
L 3925 2525 
L 3500 2525 
Q 3175 2525 2900 2450 
L 2675 2675 
L 3925 2675 
L 3925 3600 
L 3475 3600 
Q 3150 3600 2875 3525 
L 2650 3750 
L 4275 3750 
Q 4725 4600 4875 5250 
L 5400 4900 
Q 5150 4775 4900 4425 
Q 4650 4075 4425 3750 
L 5150 3750 
L 5450 4050 
L 5900 3600 
L 4275 3600 
L 4275 2675 
L 4975 2675 
L 5275 2975 
L 5725 2525 
L 4275 2525 
L 4275 1475 
L 5275 1475 
L 5600 1800 
L 6075 1325 
L 4275 1325 
z
M 1650 750 
Q 1650 400 1675 -500 
L 1275 -650 
Q 1300 825 1300 2375 
Q 875 1375 300 725 
L 225 775 
Q 925 1875 1300 3600 
L 1125 3600 
Q 800 3600 525 3525 
L 300 3750 
L 1300 3750 
Q 1300 4375 1275 5250 
L 1850 4950 
L 1650 4775 
L 1650 3750 
L 1975 3750 
L 2250 4025 
L 2675 3600 
L 1650 3600 
L 1650 2925 
Q 2125 2700 2300 2550 
Q 2475 2400 2475 2250 
Q 2475 2150 2412 2000 
Q 2350 1850 2300 1850 
Q 2225 1850 2125 2075 
Q 1950 2450 1650 2775 
L 1650 750 
z
" transform="scale(0.015625)"/>
       <path id="SimSun-65f6" d="M 4500 3600 
Q 4500 4575 4475 5225 
L 5100 4900 
L 4850 4725 
L 4850 3600 
L 5225 3600 
L 5550 3925 
L 6025 3450 
L 4850 3450 
L 4850 100 
Q 4850 -375 4300 -575 
Q 4275 -200 3475 -25 
L 3475 100 
Q 4150 0 4325 25 
Q 4500 50 4500 325 
L 4500 3450 
L 3200 3450 
Q 2875 3450 2600 3375 
L 2375 3600 
L 4500 3600 
z
M 2875 2825 
Q 3525 2375 3637 2200 
Q 3750 2025 3750 1925 
Q 3750 1800 3637 1637 
Q 3525 1475 3475 1475 
Q 3400 1475 3325 1775 
Q 3200 2225 2800 2750 
L 2875 2825 
z
M 925 4150 
L 925 2650 
L 1950 2650 
L 1950 4150 
L 925 4150 
z
M 925 2500 
L 925 900 
L 1950 900 
L 1950 2500 
L 925 2500 
z
M 2300 2000 
Q 2300 800 2325 450 
L 1950 250 
L 1950 750 
L 925 750 
L 925 225 
L 550 25 
Q 575 825 575 2425 
Q 575 4025 550 4500 
L 950 4300 
L 1900 4300 
L 2100 4550 
L 2500 4225 
L 2300 4050 
L 2300 2000 
z
" transform="scale(0.015625)"/>
       <path id="SimSun-95f4" d="M 2150 525 
Q 2175 1325 2175 2112 
Q 2175 2900 2150 3675 
L 2525 3450 
L 3750 3450 
L 4000 3700 
L 4325 3375 
L 4125 3200 
Q 4125 1550 4150 775 
L 3800 575 
L 3800 975 
L 2500 975 
L 2500 700 
L 2150 525 
z
M 2500 3300 
L 2500 2325 
L 3800 2325 
L 3800 3300 
L 2500 3300 
z
M 2500 2175 
L 2500 1125 
L 3800 1125 
L 3800 2175 
L 2500 2175 
z
M 1275 5200 
Q 1850 4825 1950 4675 
Q 2050 4525 2050 4425 
Q 2050 4275 1950 4137 
Q 1850 4000 1825 4000 
Q 1750 4000 1675 4275 
Q 1550 4650 1200 5125 
L 1275 5200 
z
M 1125 425 
Q 1125 25 1150 -375 
L 750 -525 
Q 775 -150 775 1950 
Q 775 4050 750 4425 
L 1350 4125 
L 1125 3975 
L 1125 425 
z
M 4225 125 
Q 5025 0 5125 37 
Q 5225 75 5225 250 
L 5225 4450 
L 3225 4450 
Q 2900 4450 2625 4375 
L 2400 4600 
L 5175 4600 
L 5425 4850 
L 5775 4500 
L 5575 4350 
L 5575 225 
Q 5575 -100 5462 -250 
Q 5350 -400 5000 -550 
Q 4800 -125 4225 25 
L 4225 125 
z
" transform="scale(0.015625)"/>
       <path id="SimSun-2f" d="M 400 -475 
L 225 -375 
L 2775 4975 
L 2950 4875 
L 400 -475 
z
" transform="scale(0.015625)"/>
       <path id="SimSun-68" d="M 200 100 
L 200 250 
L 325 250 
Q 450 250 500 300 
Q 550 350 550 450 
L 550 4025 
Q 550 4125 500 4175 
Q 450 4225 325 4225 
L 175 4225 
L 175 4375 
L 450 4375 
Q 550 4375 650 4425 
Q 750 4475 850 4575 
L 900 4575 
L 900 2450 
Q 1125 2725 1362 2837 
Q 1600 2950 1875 2950 
Q 2250 2950 2450 2737 
Q 2650 2525 2650 2075 
L 2650 450 
Q 2650 350 2712 300 
Q 2775 250 2875 250 
L 3000 250 
L 3000 100 
L 1950 100 
L 1950 250 
L 2075 250 
Q 2200 250 2250 300 
Q 2300 350 2300 450 
L 2300 2025 
Q 2300 2450 2162 2587 
Q 2025 2725 1800 2725 
Q 1600 2725 1362 2600 
Q 1125 2475 900 2175 
L 900 450 
Q 900 350 962 300 
Q 1025 250 1125 250 
L 1250 250 
L 1250 100 
L 200 100 
z
" transform="scale(0.015625)"/>
      </defs>
      <use xlink:href="#SimSun-91c7"/>
      <use xlink:href="#SimSun-6837" x="100"/>
      <use xlink:href="#SimSun-65f6" x="200"/>
      <use xlink:href="#SimSun-95f4" x="300"/>
      <use xlink:href="#SimSun-2f" x="400"/>
      <use xlink:href="#SimSun-68" x="450"/>
     </g>
    </g>
   </g>
   <g id="matplotlib.axis_2">
    <g id="ytick_1">
     <g id="line2d_19">
      <path d="M 55.055469 380.649375 
L 703.055469 380.649375 
" clip-path="url(#pe3f8bc6468)" style="fill: none; stroke: #b0b0b0; stroke-width: 0.8; stroke-linecap: square"/>
     </g>
     <g id="line2d_20">
      <defs>
       <path id="m9287b9e67f" d="M 0 0 
L -3.5 0 
" style="stroke: #000000; stroke-width: 0.8"/>
      </defs>
      <g>
       <use xlink:href="#m9287b9e67f" x="55.055469" y="380.649375" style="stroke: #000000; stroke-width: 0.8"/>
      </g>
     </g>
     <g id="text_11">
      <!-- 0.0 -->
      <g transform="translate(25.555469 386.89875) scale(0.18 -0.18)">
       <defs>
        <path id="TimesNewRomanPSMT-2e" d="M 800 606 
Q 947 606 1047 504 
Q 1147 403 1147 259 
Q 1147 116 1045 14 
Q 944 -88 800 -88 
Q 656 -88 554 14 
Q 453 116 453 259 
Q 453 406 554 506 
Q 656 606 800 606 
z
" transform="scale(0.015625)"/>
       </defs>
       <use xlink:href="#TimesNewRomanPSMT-30"/>
       <use xlink:href="#TimesNewRomanPSMT-2e" x="50"/>
       <use xlink:href="#TimesNewRomanPSMT-30" x="75"/>
      </g>
     </g>
    </g>
    <g id="ytick_2">
     <g id="line2d_21">
      <path d="M 55.055469 328.192232 
L 703.055469 328.192232 
" clip-path="url(#pe3f8bc6468)" style="fill: none; stroke: #b0b0b0; stroke-width: 0.8; stroke-linecap: square"/>
     </g>
     <g id="line2d_22">
      <g>
       <use xlink:href="#m9287b9e67f" x="55.055469" y="328.192232" style="stroke: #000000; stroke-width: 0.8"/>
      </g>
     </g>
     <g id="text_12">
      <!-- 0.2 -->
      <g transform="translate(25.555469 334.441607) scale(0.18 -0.18)">
       <use xlink:href="#TimesNewRomanPSMT-30"/>
       <use xlink:href="#TimesNewRomanPSMT-2e" x="50"/>
       <use xlink:href="#TimesNewRomanPSMT-32" x="75"/>
      </g>
     </g>
    </g>
    <g id="ytick_3">
     <g id="line2d_23">
      <path d="M 55.055469 275.735089 
L 703.055469 275.735089 
" clip-path="url(#pe3f8bc6468)" style="fill: none; stroke: #b0b0b0; stroke-width: 0.8; stroke-linecap: square"/>
     </g>
     <g id="line2d_24">
      <g>
       <use xlink:href="#m9287b9e67f" x="55.055469" y="275.735089" style="stroke: #000000; stroke-width: 0.8"/>
      </g>
     </g>
     <g id="text_13">
      <!-- 0.4 -->
      <g transform="translate(25.555469 281.984464) scale(0.18 -0.18)">
       <use xlink:href="#TimesNewRomanPSMT-30"/>
       <use xlink:href="#TimesNewRomanPSMT-2e" x="50"/>
       <use xlink:href="#TimesNewRomanPSMT-34" x="75"/>
      </g>
     </g>
    </g>
    <g id="ytick_4">
     <g id="line2d_25">
      <path d="M 55.055469 223.277946 
L 703.055469 223.277946 
" clip-path="url(#pe3f8bc6468)" style="fill: none; stroke: #b0b0b0; stroke-width: 0.8; stroke-linecap: square"/>
     </g>
     <g id="line2d_26">
      <g>
       <use xlink:href="#m9287b9e67f" x="55.055469" y="223.277946" style="stroke: #000000; stroke-width: 0.8"/>
      </g>
     </g>
     <g id="text_14">
      <!-- 0.6 -->
      <g transform="translate(25.555469 229.527321) scale(0.18 -0.18)">
       <defs>
        <path id="TimesNewRomanPSMT-36" d="M 2869 4325 
L 2869 4209 
Q 2456 4169 2195 4045 
Q 1934 3922 1679 3669 
Q 1425 3416 1258 3105 
Q 1091 2794 978 2366 
Q 1428 2675 1881 2675 
Q 2316 2675 2634 2325 
Q 2953 1975 2953 1425 
Q 2953 894 2631 456 
Q 2244 -75 1606 -75 
Q 1172 -75 869 213 
Q 275 772 275 1663 
Q 275 2231 503 2743 
Q 731 3256 1154 3653 
Q 1578 4050 1965 4187 
Q 2353 4325 2688 4325 
L 2869 4325 
z
M 925 2138 
Q 869 1716 869 1456 
Q 869 1156 980 804 
Q 1091 453 1309 247 
Q 1469 100 1697 100 
Q 1969 100 2183 356 
Q 2397 613 2397 1088 
Q 2397 1622 2184 2012 
Q 1972 2403 1581 2403 
Q 1463 2403 1327 2353 
Q 1191 2303 925 2138 
z
" transform="scale(0.015625)"/>
       </defs>
       <use xlink:href="#TimesNewRomanPSMT-30"/>
       <use xlink:href="#TimesNewRomanPSMT-2e" x="50"/>
       <use xlink:href="#TimesNewRomanPSMT-36" x="75"/>
      </g>
     </g>
    </g>
    <g id="ytick_5">
     <g id="line2d_27">
      <path d="M 55.055469 170.820804 
L 703.055469 170.820804 
" clip-path="url(#pe3f8bc6468)" style="fill: none; stroke: #b0b0b0; stroke-width: 0.8; stroke-linecap: square"/>
     </g>
     <g id="line2d_28">
      <g>
       <use xlink:href="#m9287b9e67f" x="55.055469" y="170.820804" style="stroke: #000000; stroke-width: 0.8"/>
      </g>
     </g>
     <g id="text_15">
      <!-- 0.8 -->
      <g transform="translate(25.555469 177.070179) scale(0.18 -0.18)">
       <defs>
        <path id="TimesNewRomanPSMT-38" d="M 1228 2134 
Q 725 2547 579 2797 
Q 434 3047 434 3316 
Q 434 3728 753 4026 
Q 1072 4325 1600 4325 
Q 2113 4325 2425 4047 
Q 2738 3769 2738 3413 
Q 2738 3175 2569 2928 
Q 2400 2681 1866 2347 
Q 2416 1922 2594 1678 
Q 2831 1359 2831 1006 
Q 2831 559 2490 242 
Q 2150 -75 1597 -75 
Q 994 -75 656 303 
Q 388 606 388 966 
Q 388 1247 577 1523 
Q 766 1800 1228 2134 
z
M 1719 2469 
Q 2094 2806 2194 3001 
Q 2294 3197 2294 3444 
Q 2294 3772 2109 3958 
Q 1925 4144 1606 4144 
Q 1288 4144 1088 3959 
Q 888 3775 888 3528 
Q 888 3366 970 3203 
Q 1053 3041 1206 2894 
L 1719 2469 
z
M 1375 2016 
Q 1116 1797 991 1539 
Q 866 1281 866 981 
Q 866 578 1086 336 
Q 1306 94 1647 94 
Q 1984 94 2187 284 
Q 2391 475 2391 747 
Q 2391 972 2272 1150 
Q 2050 1481 1375 2016 
z
" transform="scale(0.015625)"/>
       </defs>
       <use xlink:href="#TimesNewRomanPSMT-30"/>
       <use xlink:href="#TimesNewRomanPSMT-2e" x="50"/>
       <use xlink:href="#TimesNewRomanPSMT-38" x="75"/>
      </g>
     </g>
    </g>
    <g id="ytick_6">
     <g id="line2d_29">
      <path d="M 55.055469 118.363661 
L 703.055469 118.363661 
" clip-path="url(#pe3f8bc6468)" style="fill: none; stroke: #b0b0b0; stroke-width: 0.8; stroke-linecap: square"/>
     </g>
     <g id="line2d_30">
      <g>
       <use xlink:href="#m9287b9e67f" x="55.055469" y="118.363661" style="stroke: #000000; stroke-width: 0.8"/>
      </g>
     </g>
     <g id="text_16">
      <!-- 1.0 -->
      <g transform="translate(25.555469 124.613036) scale(0.18 -0.18)">
       <use xlink:href="#TimesNewRomanPSMT-31"/>
       <use xlink:href="#TimesNewRomanPSMT-2e" x="50"/>
       <use xlink:href="#TimesNewRomanPSMT-30" x="75"/>
      </g>
     </g>
    </g>
    <g id="ytick_7">
     <g id="line2d_31">
      <path d="M 55.055469 65.906518 
L 703.055469 65.906518 
" clip-path="url(#pe3f8bc6468)" style="fill: none; stroke: #b0b0b0; stroke-width: 0.8; stroke-linecap: square"/>
     </g>
     <g id="line2d_32">
      <g>
       <use xlink:href="#m9287b9e67f" x="55.055469" y="65.906518" style="stroke: #000000; stroke-width: 0.8"/>
      </g>
     </g>
     <g id="text_17">
      <!-- 1.2 -->
      <g transform="translate(25.555469 72.155893) scale(0.18 -0.18)">
       <use xlink:href="#TimesNewRomanPSMT-31"/>
       <use xlink:href="#TimesNewRomanPSMT-2e" x="50"/>
       <use xlink:href="#TimesNewRomanPSMT-32" x="75"/>
      </g>
     </g>
    </g>
    <g id="ytick_8">
     <g id="line2d_33">
      <path d="M 55.055469 13.449375 
L 703.055469 13.449375 
" clip-path="url(#pe3f8bc6468)" style="fill: none; stroke: #b0b0b0; stroke-width: 0.8; stroke-linecap: square"/>
     </g>
     <g id="line2d_34">
      <g>
       <use xlink:href="#m9287b9e67f" x="55.055469" y="13.449375" style="stroke: #000000; stroke-width: 0.8"/>
      </g>
     </g>
     <g id="text_18">
      <!-- 1.4 -->
      <g transform="translate(25.555469 19.69875) scale(0.18 -0.18)">
       <use xlink:href="#TimesNewRomanPSMT-31"/>
       <use xlink:href="#TimesNewRomanPSMT-2e" x="50"/>
       <use xlink:href="#TimesNewRomanPSMT-34" x="75"/>
      </g>
     </g>
    </g>
    <g id="text_19">
     <!-- 青霉素浓度/g/h -->
     <g transform="translate(19.563281 249.549375) rotate(-90) scale(0.15 -0.15)">
      <defs>
       <path id="SimSun-9752" d="M 1925 1475 
L 1925 825 
L 4450 825 
L 4450 1475 
L 1925 1475 
z
M 2875 5275 
L 3475 5025 
L 3250 4850 
L 3250 4425 
L 4875 4425 
L 5250 4800 
L 5750 4275 
L 3250 4275 
L 3250 3775 
L 4575 3775 
L 4900 4075 
L 5325 3625 
L 3250 3625 
L 3250 2975 
L 5250 2975 
L 5625 3350 
L 6125 2825 
L 1075 2825 
Q 750 2825 475 2750 
L 250 2975 
L 2900 2975 
L 2900 3625 
L 1775 3625 
Q 1450 3625 1175 3550 
L 950 3775 
L 2900 3775 
L 2900 4275 
L 1225 4275 
Q 900 4275 625 4200 
L 400 4425 
L 2900 4425 
Q 2900 4875 2875 5275 
z
M 1550 2575 
L 1975 2375 
L 4400 2375 
L 4575 2600 
L 4975 2300 
L 4800 2150 
L 4800 25 
Q 4825 -475 4250 -625 
Q 4250 -275 3525 -125 
L 3525 -25 
Q 4250 -75 4350 -62 
Q 4450 -50 4450 100 
L 4450 675 
L 1925 675 
L 1925 -500 
L 1550 -675 
Q 1575 -125 1575 962 
Q 1575 2050 1550 2575 
z
M 1925 2225 
L 1925 1625 
L 4450 1625 
L 4450 2225 
L 1925 2225 
z
" transform="scale(0.015625)"/>
       <path id="SimSun-9709" d="M 2050 2775 
L 1900 2625 
L 4850 2625 
L 5175 2950 
L 5625 2475 
L 1800 2475 
Q 1550 2275 1300 2075 
Q 1025 1850 475 1525 
L 425 1600 
Q 850 1925 1200 2300 
Q 1550 2675 1800 3175 
L 2275 2850 
L 2050 2775 
z
M 1900 1900 
L 1825 1250 
L 3125 1250 
Q 3025 1550 2675 1825 
L 2700 1900 
Q 3075 1800 3212 1712 
Q 3350 1625 3350 1500 
Q 3350 1375 3275 1250 
L 4475 1250 
L 4550 1900 
L 1900 1900 
z
M 1800 1100 
L 1675 375 
L 4350 375 
L 4450 1100 
L 2850 1100 
Q 3250 925 3287 762 
Q 3325 600 3237 500 
Q 3150 400 3125 400 
Q 3050 400 3000 575 
Q 2925 850 2725 1100 
L 1800 1100 
z
M 4875 1825 
L 4800 1250 
L 5375 1250 
L 5700 1550 
L 6125 1100 
L 4775 1100 
L 4675 375 
L 5075 375 
L 5375 675 
L 5825 225 
L 4650 225 
Q 4575 -175 4475 -350 
Q 4375 -525 4050 -625 
Q 4025 -300 3500 -200 
L 3500 -100 
Q 3925 -150 4100 -150 
Q 4275 -150 4325 225 
L 1700 225 
L 1500 0 
L 1175 300 
L 1350 425 
L 1475 1100 
L 1075 1100 
Q 750 1100 475 1025 
L 250 1250 
L 1500 1250 
L 1600 2275 
L 1950 2050 
L 4525 2050 
L 4700 2250 
L 5075 1950 
L 4875 1825 
z
M 5050 3650 
L 5350 4150 
L 3325 4150 
Q 3325 3375 3350 3025 
L 2975 2850 
Q 3000 3350 3000 4150 
L 1075 4150 
Q 1100 3775 975 3637 
Q 850 3500 662 3512 
Q 475 3525 487 3612 
Q 500 3700 675 3875 
Q 825 4050 975 4575 
L 1075 4575 
L 1075 4300 
L 3000 4300 
L 3000 4725 
L 2000 4725 
Q 1675 4725 1400 4650 
L 1175 4875 
L 4575 4875 
L 4900 5200 
L 5350 4725 
L 3325 4725 
L 3325 4300 
L 5325 4300 
L 5550 4525 
L 5975 4075 
Q 5550 4100 5125 3600 
L 5050 3650 
z
M 1375 3800 
L 2600 3800 
L 2600 3650 
L 1375 3650 
L 1375 3800 
z
M 3700 3800 
L 4875 3800 
L 4875 3650 
L 3700 3650 
L 3700 3800 
z
M 1350 3350 
L 2600 3350 
L 2600 3200 
L 1350 3200 
L 1350 3350 
z
M 3700 3350 
L 4925 3350 
L 4925 3200 
L 3700 3200 
L 3700 3350 
z
" transform="scale(0.015625)"/>
       <path id="SimSun-7d20" d="M 2025 1275 
L 4500 1450 
Q 4275 1725 3975 1975 
L 4025 2050 
Q 4600 1775 4875 1575 
Q 5150 1375 5137 1175 
Q 5125 975 5062 900 
Q 5000 825 4975 825 
Q 4900 825 4850 950 
Q 4725 1150 4600 1325 
L 3375 1175 
L 3375 -50 
Q 3400 -500 2800 -650 
Q 2775 -275 2025 -125 
L 2025 -25 
Q 2700 -75 2862 -75 
Q 3025 -75 3025 100 
L 3025 1150 
Q 2150 1025 1887 950 
Q 1625 875 1425 775 
L 1175 1250 
Q 1450 1300 1950 1500 
Q 2450 1700 3350 2225 
Q 2750 2175 2312 2100 
Q 1875 2025 1600 1875 
L 1350 2325 
Q 1625 2375 1937 2562 
Q 2250 2750 2525 3025 
L 1150 3025 
Q 825 3025 550 2950 
L 325 3175 
L 3025 3175 
L 3025 3725 
L 2125 3725 
Q 1800 3725 1525 3650 
L 1300 3875 
L 3025 3875 
L 3025 4425 
L 1675 4425 
Q 1350 4425 1075 4350 
L 850 4575 
L 3025 4575 
Q 3025 5000 3000 5250 
L 3600 5025 
L 3375 4875 
L 3375 4575 
L 4875 4575 
L 5200 4875 
L 5650 4425 
L 3375 4425 
L 3375 3875 
L 4425 3875 
L 4775 4150 
L 5175 3725 
L 3375 3725 
L 3375 3175 
L 5300 3175 
L 5675 3475 
L 6100 3025 
L 2725 3025 
L 3025 2850 
Q 2825 2800 2475 2625 
Q 2100 2450 1725 2275 
L 3475 2350 
Q 3750 2575 3975 2850 
L 4400 2500 
Q 4175 2450 3675 2150 
Q 3150 1825 2025 1275 
z
M 2025 875 
L 2450 475 
Q 2200 450 1600 50 
Q 1000 -350 500 -525 
L 450 -450 
Q 1000 -150 1387 200 
Q 1775 550 2025 875 
z
M 3925 800 
Q 4875 450 5212 275 
Q 5550 100 5575 -87 
Q 5600 -275 5537 -387 
Q 5475 -500 5450 -500 
Q 5325 -500 5150 -250 
Q 4850 125 3875 725 
L 3925 800 
z
" transform="scale(0.015625)"/>
       <path id="SimSun-6d53" d="M 4900 3200 
L 5250 3875 
L 3750 3875 
Q 3700 3725 3650 3575 
Q 3925 2450 4300 1925 
Q 5050 2600 5250 2975 
L 5650 2525 
Q 5275 2450 4962 2225 
Q 4650 2000 4375 1800 
Q 5075 750 6100 350 
L 6100 250 
Q 5650 275 5500 -25 
Q 3900 1250 3575 3375 
Q 3325 2800 3075 2375 
L 3375 2225 
L 3225 2075 
L 3225 100 
L 4175 600 
L 4225 500 
Q 3350 -100 3100 -500 
L 2775 -125 
Q 2900 -50 2875 425 
L 2875 2000 
Q 2200 1175 1475 625 
L 1425 700 
Q 2850 2150 3400 3875 
L 2575 3875 
Q 2600 3475 2475 3337 
Q 2350 3200 2187 3225 
Q 2025 3250 2025 3325 
Q 2025 3400 2150 3550 
Q 2375 3800 2475 4300 
L 2575 4300 
L 2575 4025 
L 3425 4025 
Q 3500 4325 3550 4637 
Q 3600 4950 3625 5225 
L 4175 4950 
L 3975 4800 
Q 3875 4375 3775 4025 
L 5200 4025 
L 5450 4300 
L 5900 3800 
Q 5500 3800 4975 3150 
L 4900 3200 
z
M 1975 3900 
Q 1350 1400 1287 1087 
Q 1225 775 1225 325 
Q 1225 -125 1225 -287 
Q 1225 -450 1125 -450 
Q 1050 -450 887 -375 
Q 725 -300 725 -100 
Q 725 75 775 250 
Q 850 500 850 675 
Q 850 825 750 925 
Q 650 1025 275 1125 
L 275 1225 
Q 725 1175 812 1200 
Q 900 1225 1037 1450 
Q 1175 1675 1875 3925 
L 1975 3900 
z
M 300 3500 
Q 1125 3150 1137 2900 
Q 1150 2650 1050 2537 
Q 950 2425 925 2425 
Q 850 2425 775 2675 
Q 650 3000 250 3425 
L 300 3500 
z
M 875 4950 
Q 1550 4650 1625 4525 
Q 1700 4400 1700 4300 
Q 1700 4175 1600 4025 
Q 1500 3875 1450 3875 
Q 1350 3875 1275 4125 
Q 1150 4525 825 4875 
L 875 4950 
z
" transform="scale(0.015625)"/>
       <path id="SimSun-5ea6" d="M 2550 2025 
Q 2575 2525 2575 3175 
L 1925 3175 
L 1625 3125 
L 1425 3325 
L 2575 3325 
Q 2575 3700 2550 4150 
L 3100 3875 
L 2900 3750 
L 2900 3325 
L 4300 3325 
Q 4300 3750 4275 4125 
L 4850 3875 
L 4625 3725 
L 4625 3325 
L 5100 3325 
L 5425 3650 
L 5900 3175 
L 4625 3175 
Q 4625 2450 4650 2225 
L 4300 2075 
L 4300 2300 
L 2900 2300 
L 2900 2175 
L 2550 2025 
z
M 4875 1500 
Q 4300 775 3900 425 
Q 4700 -75 6025 -125 
L 6025 -225 
Q 5625 -300 5550 -550 
Q 4375 -325 3675 225 
Q 2475 -450 1075 -625 
L 1050 -525 
Q 2375 -275 3450 450 
Q 2975 925 2575 1625 
L 2325 1625 
L 2100 1575 
L 1900 1775 
L 4525 1775 
L 4750 2000 
L 5125 1625 
L 4875 1500 
z
M 2700 1625 
Q 3175 975 3650 625 
Q 4150 1100 4500 1625 
L 2700 1625 
z
M 2900 3175 
L 2900 2450 
L 4300 2450 
L 4300 3175 
L 2900 3175 
z
M 975 4650 
L 1400 4400 
L 3375 4400 
Q 3350 4550 3262 4725 
Q 3175 4900 2900 5225 
L 2975 5275 
Q 3550 5025 3637 4887 
Q 3725 4750 3725 4725 
Q 3725 4575 3525 4400 
L 5150 4400 
L 5500 4750 
L 6000 4250 
L 1375 4250 
Q 1400 2750 1287 1912 
Q 1175 1075 925 475 
Q 675 -125 300 -625 
L 225 -575 
Q 725 300 862 1250 
Q 1000 2200 1012 3187 
Q 1025 4175 975 4650 
z
" transform="scale(0.015625)"/>
       <path id="SimSun-67" d="M 875 1975 
Q 875 1675 1050 1462 
Q 1225 1250 1525 1250 
Q 1850 1250 2012 1437 
Q 2175 1625 2175 1975 
Q 2175 2400 1987 2587 
Q 1800 2775 1525 2775 
Q 1250 2775 1062 2587 
Q 875 2400 875 1975 
z
M 2100 625 
Q 2475 575 2650 412 
Q 2825 250 2825 -25 
Q 2825 -400 2512 -625 
Q 2200 -850 1525 -850 
Q 1000 -850 675 -637 
Q 350 -425 350 -150 
Q 350 25 475 200 
Q 600 375 875 475 
Q 725 550 637 637 
Q 550 725 550 850 
Q 550 1000 650 1112 
Q 750 1225 900 1300 
Q 750 1425 637 1600 
Q 525 1775 525 1975 
Q 525 2350 787 2637 
Q 1050 2925 1525 2925 
Q 1725 2925 1912 2875 
Q 2100 2825 2225 2700 
Q 2400 2825 2537 2887 
Q 2675 2950 2775 2950 
Q 2900 2950 2950 2862 
Q 3000 2775 3000 2700 
Q 3000 2600 2962 2537 
Q 2925 2475 2825 2475 
Q 2750 2475 2700 2512 
Q 2650 2550 2625 2625 
Q 2600 2700 2512 2687 
Q 2425 2675 2325 2600 
Q 2425 2500 2475 2325 
Q 2525 2150 2525 1975 
Q 2525 1675 2287 1387 
Q 2050 1100 1525 1100 
Q 1375 1100 1250 1137 
Q 1125 1175 1050 1225 
Q 950 1175 900 1100 
Q 850 1025 850 975 
Q 850 875 900 825 
Q 950 775 1050 775 
Q 1375 725 1637 687 
Q 1900 650 2100 625 
z
M 1075 425 
Q 850 325 762 187 
Q 675 50 675 -150 
Q 675 -350 900 -525 
Q 1125 -700 1575 -700 
Q 2000 -700 2250 -562 
Q 2500 -425 2500 -150 
Q 2500 25 2437 125 
Q 2375 225 2250 250 
Q 2000 300 1700 350 
Q 1400 375 1075 425 
z
" transform="scale(0.015625)"/>
      </defs>
      <use xlink:href="#SimSun-9752"/>
      <use xlink:href="#SimSun-9709" x="100"/>
      <use xlink:href="#SimSun-7d20" x="200"/>
      <use xlink:href="#SimSun-6d53" x="300"/>
      <use xlink:href="#SimSun-5ea6" x="400"/>
      <use xlink:href="#SimSun-2f" x="500"/>
      <use xlink:href="#SimSun-67" x="550"/>
      <use xlink:href="#SimSun-2f" x="600"/>
      <use xlink:href="#SimSun-68" x="650"/>
     </g>
    </g>
   </g>
   <g id="line2d_35">
    <path d="M 55.055469 380.649375 
L 97.175469 380.517574 
L 108.515469 380.304732 
L 113.375469 380.06154 
L 116.615469 379.699245 
L 118.235469 379.329029 
L 119.855469 378.561214 
L 121.475469 376.520736 
L 123.095469 373.531728 
L 126.335469 368.339782 
L 131.195469 361.18489 
L 136.055469 354.440737 
L 140.915469 348.015786 
L 149.015469 337.763038 
L 157.115469 327.937815 
L 163.595469 320.444312 
L 170.075469 313.276044 
L 174.935469 308.116884 
L 179.795469 303.196404 
L 187.895469 295.398649 
L 197.615469 286.223895 
L 210.575469 274.292518 
L 225.155469 261.201838 
L 246.215469 242.747415 
L 254.315469 235.733895 
L 264.035469 227.516484 
L 272.135469 221.116712 
L 311.015469 191.037786 
L 319.115469 185.238649 
L 327.215469 179.714912 
L 332.075469 176.727478 
L 340.175469 172.134855 
L 351.515469 165.774426 
L 357.995469 161.868992 
L 361.235469 159.710381 
L 366.095469 156.145918 
L 370.955469 152.311301 
L 377.435469 146.879364 
L 388.775469 137.250855 
L 393.635469 133.382141 
L 400.115469 128.590181 
L 406.595469 124.044769 
L 411.455469 120.871112 
L 416.315469 117.970232 
L 421.175469 115.399832 
L 426.035469 113.117946 
L 430.895469 111.072118 
L 442.235469 106.429661 
L 447.095469 104.042861 
L 450.335469 102.311775 
L 453.575469 100.397089 
L 456.815469 98.298804 
L 463.295469 93.656346 
L 474.635469 85.525489 
L 481.115469 81.145318 
L 485.975469 78.129032 
L 489.215469 76.293032 
L 494.075469 73.801318 
L 498.935469 71.650575 
L 503.795469 69.762118 
L 507.035469 68.739204 
L 510.275469 67.952346 
L 518.375469 66.273718 
L 528.095469 64.122975 
L 532.955469 63.073832 
L 539.435469 61.841089 
L 545.915469 60.477204 
L 549.155469 60.031318 
L 554.015469 59.716575 
L 560.495469 59.716575 
L 565.355469 59.611661 
L 570.215469 59.244461 
L 575.075469 58.641204 
L 578.315469 58.011718 
L 583.175469 56.674061 
L 596.135469 52.582404 
L 599.375469 51.874232 
L 602.615469 51.402118 
L 605.855469 51.244746 
L 609.095469 51.375889 
L 612.335469 51.769318 
L 617.195469 52.582404 
L 625.295469 54.103661 
L 628.535469 54.523318 
L 631.775469 54.733146 
L 635.015469 54.628232 
L 638.255469 54.156118 
L 643.115469 52.949604 
L 647.975469 51.402118 
L 652.835469 49.592346 
L 664.175469 45.238404 
L 670.655469 43.113889 
L 680.375469 40.018918 
L 690.095469 36.950175 
L 694.955469 35.612518 
L 699.815469 34.510918 
L 701.435469 34.222404 
L 701.435469 34.222404 
" clip-path="url(#pe3f8bc6468)" style="fill: none; stroke: #0000ff; stroke-width: 2; stroke-linecap: square"/>
   </g>
   <g id="line2d_36">
    <path d="M 55.055469 380.532622 
L 56.675469 380.458605 
L 58.295469 380.518674 
L 59.915469 380.74709 
L 66.395469 380.617828 
L 68.015469 380.675833 
L 72.875469 380.538655 
L 74.495469 380.650179 
L 77.735469 380.429832 
L 80.975469 380.69031 
L 82.595469 380.593251 
L 84.215469 380.68615 
L 89.075469 380.51642 
L 90.695469 380.376037 
L 92.315469 380.546647 
L 98.795469 380.276694 
L 100.415469 380.464722 
L 102.035469 380.330308 
L 103.655469 379.913583 
L 106.895469 380.196547 
L 110.135469 380.252938 
L 111.755469 380.052199 
L 116.615469 379.868021 
L 118.235469 379.356961 
L 119.855469 378.311786 
L 121.475469 377.686787 
L 123.095469 375.883826 
L 124.715469 373.489879 
L 126.335469 369.258169 
L 127.955469 369.747591 
L 129.575469 365.236638 
L 131.195469 359.533048 
L 132.815469 360.903967 
L 134.435469 357.701352 
L 136.055469 359.259525 
L 137.675469 353.741971 
L 139.295469 350.439975 
L 140.915469 350.582453 
L 142.535469 347.201835 
L 145.775469 343.601567 
L 147.395469 341.216132 
L 149.015469 337.86102 
L 153.875469 331.033655 
L 155.495469 330.023446 
L 157.115469 328.042273 
L 158.735469 329.411682 
L 160.355469 325.324456 
L 161.975469 324.710486 
L 163.595469 320.572464 
L 165.215469 319.276867 
L 166.835469 317.102324 
L 168.455469 315.564246 
L 170.075469 314.859097 
L 171.695469 309.758701 
L 173.315469 309.848905 
L 174.935469 306.540588 
L 176.555469 308.066792 
L 181.415469 300.35272 
L 183.035469 299.602563 
L 184.655469 299.607147 
L 186.275469 297.912329 
L 187.895469 295.20975 
L 189.515469 293.410793 
L 191.135469 291.89693 
L 192.755469 291.085417 
L 194.375469 289.723592 
L 195.995469 287.256472 
L 197.615469 287.083224 
L 199.235469 284.279227 
L 202.475469 279.679699 
L 204.095469 278.466558 
L 205.715469 279.482735 
L 207.335469 277.488169 
L 208.955469 277.481329 
L 210.575469 275.610845 
L 212.195469 274.946241 
L 213.815469 270.914815 
L 215.435469 272.261181 
L 217.055469 275.338387 
L 218.675469 266.69714 
L 220.295469 266.688125 
L 221.915469 263.649972 
L 223.535469 263.567921 
L 225.155469 261.43198 
L 226.775469 263.376346 
L 228.395469 267.732322 
L 230.015469 263.816136 
L 231.635469 255.448375 
L 233.255469 253.996432 
L 234.875469 254.335342 
L 236.495469 248.93923 
L 238.115469 249.943058 
L 239.735469 247.977423 
L 241.355469 250.463854 
L 242.975469 248.509148 
L 244.595469 238.657044 
L 246.215469 243.739347 
L 247.835469 240.657981 
L 249.455469 241.227677 
L 251.075469 240.283653 
L 252.695469 235.144626 
L 254.315469 236.982626 
L 255.935469 234.115693 
L 257.555469 228.955999 
L 259.175469 226.575469 
L 260.795469 226.644249 
L 262.415469 228.918294 
L 264.035469 222.72994 
L 265.655469 226.986017 
L 267.275469 224.739398 
L 268.895469 217.826661 
L 272.135469 220.590423 
L 273.755469 214.547736 
L 275.375469 219.643026 
L 276.995469 216.39728 
L 278.615469 207.792359 
L 280.235469 208.838338 
L 281.855469 208.018066 
L 283.475469 210.890833 
L 285.095469 198.995164 
L 286.715469 201.080801 
L 288.335469 206.383216 
L 291.575469 194.047952 
L 293.195469 204.561766 
L 294.815469 199.781563 
L 296.435469 197.137954 
L 298.055469 197.415411 
L 299.675469 199.424753 
L 301.295469 194.858574 
L 302.915469 191.764442 
L 304.535469 195.813795 
L 306.155469 189.719713 
L 307.775469 186.124128 
L 311.015469 188.122233 
L 312.635469 184.42112 
L 314.255469 182.546791 
L 315.875469 185.145456 
L 317.495469 184.457932 
L 319.115469 177.03447 
L 320.735469 182.097241 
L 322.355469 181.054984 
L 323.975469 181.598349 
L 325.595469 171.424838 
L 327.215469 175.82325 
L 328.835469 170.32268 
L 330.455469 167.286041 
L 332.075469 169.876792 
L 333.695469 168.967065 
L 335.315469 167.208421 
L 336.935469 170.945349 
L 338.555469 162.559284 
L 340.175469 164.822466 
L 341.795469 158.754879 
L 343.415469 166.294645 
L 345.035469 163.841892 
L 346.655469 157.538295 
L 348.275469 165.327746 
L 349.895469 158.889341 
L 351.515469 159.820971 
L 353.135469 152.200663 
L 354.755469 160.37948 
L 356.375469 153.358827 
L 357.995469 157.799412 
L 359.615469 153.28778 
L 361.235469 154.009848 
L 362.855469 152.867337 
L 364.475469 153.920939 
L 366.095469 146.52632 
L 367.715469 145.335225 
L 369.335469 149.619879 
L 370.955469 147.0772 
L 372.575469 142.055411 
L 374.195469 147.001891 
L 375.815469 143.867055 
L 377.435469 141.050667 
L 379.055469 137.174971 
L 380.675469 139.30078 
L 382.295469 133.566028 
L 383.915469 130.884533 
L 385.535469 132.16014 
L 387.155469 133.237338 
L 388.775469 128.385252 
L 390.395469 124.617305 
L 392.015469 127.842652 
L 393.635469 123.966844 
L 395.255469 121.418887 
L 396.875469 117.743992 
L 398.495469 124.489393 
L 400.115469 128.351606 
L 401.735469 114.294309 
L 403.355469 117.032471 
L 404.975469 118.067667 
L 406.595469 119.647696 
L 408.215469 114.019797 
L 409.835469 106.909156 
L 411.455469 116.284172 
L 413.075469 104.570326 
L 414.695469 110.279173 
L 416.315469 106.832206 
L 417.935469 109.462339 
L 419.555469 108.015386 
L 421.175469 106.835545 
L 422.795469 115.743208 
L 424.415469 101.829567 
L 426.035469 98.741902 
L 427.655469 107.08394 
L 429.275469 97.400096 
L 430.895469 94.302456 
L 432.515469 101.625143 
L 434.135469 109.58786 
L 435.755469 100.011697 
L 437.375469 103.595085 
L 438.995469 107.509638 
L 440.615469 103.120766 
L 442.235469 103.560004 
L 443.855469 98.405656 
L 445.475469 101.837781 
L 447.095469 95.78451 
L 448.715469 104.12859 
L 450.335469 102.432524 
L 451.955469 100.135297 
L 453.575469 94.866513 
L 455.195469 103.050198 
L 456.815469 96.804178 
L 458.435469 93.293038 
L 460.055469 90.380091 
L 461.675469 96.941758 
L 463.295469 85.694974 
L 464.915469 86.802315 
L 466.535469 93.654477 
L 468.155469 87.820295 
L 469.775469 86.347661 
L 471.395469 86.984221 
L 473.015469 92.085509 
L 474.635469 85.698801 
L 476.255469 86.105048 
L 477.875469 90.526863 
L 479.495469 82.653737 
L 481.115469 80.519978 
L 482.735469 79.87135 
L 484.355469 80.532353 
L 485.975469 76.540798 
L 487.595469 78.868149 
L 489.215469 77.783969 
L 490.835469 76.044946 
L 492.455469 72.011227 
L 494.075469 76.060808 
L 495.695469 73.376304 
L 497.315469 68.520085 
L 498.935469 69.53847 
L 500.555469 70.767032 
L 502.175469 69.611446 
L 503.795469 68.686896 
L 505.415469 72.853891 
L 507.035469 67.871245 
L 508.655469 65.075273 
L 510.275469 66.839857 
L 511.895469 66.816591 
L 513.515469 65.850492 
L 515.135469 65.217956 
L 518.375469 63.168242 
L 519.995469 62.852088 
L 521.615469 65.798114 
L 523.235469 65.59424 
L 524.855469 64.546538 
L 526.475469 64.532815 
L 528.095469 66.850138 
L 529.715469 62.404381 
L 531.335469 60.565202 
L 532.955469 63.184886 
L 534.575469 60.723947 
L 536.195469 62.067565 
L 537.815469 63.693511 
L 539.435469 62.774549 
L 541.055469 60.746349 
L 542.675469 59.947634 
L 544.295469 57.946981 
L 545.915469 61.722899 
L 547.535469 61.812101 
L 549.155469 67.244422 
L 550.775469 62.17363 
L 552.395469 64.017143 
L 554.015469 63.816729 
L 555.635469 64.630337 
L 557.255469 61.358387 
L 558.875469 61.172281 
L 560.495469 60.350881 
L 562.115469 57.050623 
L 563.735469 62.354836 
L 565.355469 58.105644 
L 566.975469 59.32249 
L 568.595469 61.578025 
L 570.215469 59.224771 
L 571.835469 61.201959 
L 573.455469 60.3969 
L 575.075469 60.13694 
L 576.695469 61.796148 
L 578.315469 60.65049 
L 579.935469 55.663309 
L 581.555469 56.951291 
L 584.795469 63.338978 
L 586.415469 58.395537 
L 589.655469 57.693608 
L 592.895469 52.476244 
L 594.515469 54.817926 
L 596.135469 54.938873 
L 597.755469 53.66157 
L 599.375469 53.130567 
L 600.995469 51.45624 
L 602.615469 50.374419 
L 604.235469 51.311991 
L 605.855469 50.237804 
L 607.475469 51.147898 
L 609.095469 59.977498 
L 610.715469 51.735244 
L 612.335469 53.500725 
L 613.955469 52.315864 
L 615.575469 52.790985 
L 617.195469 54.899918 
L 618.815469 55.388351 
L 620.435469 52.736095 
L 622.055469 53.4045 
L 623.675469 55.533923 
L 625.295469 54.890876 
L 626.915469 55.341433 
L 628.535469 56.632073 
L 630.155469 53.82107 
L 631.775469 56.990325 
L 633.395469 52.486342 
L 635.015469 53.792857 
L 636.635469 53.911901 
L 638.255469 57.421215 
L 639.875469 57.539081 
L 641.495469 57.1998 
L 643.115469 57.786243 
L 644.735469 55.712291 
L 646.355469 57.278486 
L 647.975469 54.262274 
L 651.215469 50.254341 
L 654.455469 48.850127 
L 656.075469 49.76469 
L 657.695469 48.275239 
L 659.315469 46.30724 
L 660.935469 45.264826 
L 662.555469 45.189175 
L 664.175469 44.74324 
L 665.795469 45.419642 
L 667.415469 43.542599 
L 669.035469 44.429679 
L 670.655469 43.538802 
L 672.275469 44.010002 
L 673.895469 41.261101 
L 675.515469 42.637801 
L 677.135469 43.560022 
L 678.755469 41.194287 
L 680.375469 40.802455 
L 681.995469 40.654471 
L 683.615469 40.788402 
L 685.235469 38.63106 
L 686.855469 37.898343 
L 688.475469 39.76233 
L 690.095469 37.42827 
L 691.715469 36.624302 
L 693.335469 37.004823 
L 694.955469 36.389397 
L 696.575469 36.268398 
L 698.195469 37.647249 
L 699.815469 36.906289 
L 701.435469 38.879419 
L 701.435469 38.879419 
" clip-path="url(#pe3f8bc6468)" style="fill: none; stroke: #008000; stroke-width: 2; stroke-linecap: square"/>
   </g>
   <g id="patch_3">
    <path d="M 55.055469 380.649375 
L 55.055469 13.449375 
" style="fill: none; stroke: #000000; stroke-width: 0.8; stroke-linejoin: miter; stroke-linecap: square"/>
   </g>
   <g id="patch_4">
    <path d="M 703.055469 380.649375 
L 703.055469 13.449375 
" style="fill: none; stroke: #000000; stroke-width: 0.8; stroke-linejoin: miter; stroke-linecap: square"/>
   </g>
   <g id="patch_5">
    <path d="M 55.055469 380.649375 
L 703.055469 380.649375 
" style="fill: none; stroke: #000000; stroke-width: 0.8; stroke-linejoin: miter; stroke-linecap: square"/>
   </g>
   <g id="patch_6">
    <path d="M 55.055469 13.449375 
L 703.055469 13.449375 
" style="fill: none; stroke: #000000; stroke-width: 0.8; stroke-linejoin: miter; stroke-linecap: square"/>
   </g>
   <g id="legend_1">
    <g id="patch_7">
     <path d="M 69.055469 86.005625 
L 222.558594 86.005625 
Q 226.558594 86.005625 226.558594 82.005625 
L 226.558594 27.449375 
Q 226.558594 23.449375 222.558594 23.449375 
L 69.055469 23.449375 
Q 65.055469 23.449375 65.055469 27.449375 
L 65.055469 82.005625 
Q 65.055469 86.005625 69.055469 86.005625 
z
" style="fill: #ffffff; opacity: 0.8; stroke: #cccccc; stroke-linejoin: miter"/>
    </g>
    <g id="line2d_37">
     <path d="M 73.055469 38.449375 
L 93.055469 38.449375 
L 113.055469 38.449375 
" style="fill: none; stroke: #0000ff; stroke-width: 2; stroke-linecap: square"/>
    </g>
    <g id="text_20">
     <!-- Real Value -->
     <g transform="translate(129.055469 45.449375) scale(0.2 -0.2)">
      <defs>
       <path id="TimesNewRomanPSMT-52" d="M 4325 0 
L 3194 0 
L 1759 1981 
Q 1600 1975 1500 1975 
Q 1459 1975 1412 1976 
Q 1366 1978 1316 1981 
L 1316 750 
Q 1316 350 1403 253 
Q 1522 116 1759 116 
L 1925 116 
L 1925 0 
L 109 0 
L 109 116 
L 269 116 
Q 538 116 653 291 
Q 719 388 719 750 
L 719 3488 
Q 719 3888 631 3984 
Q 509 4122 269 4122 
L 109 4122 
L 109 4238 
L 1653 4238 
Q 2328 4238 2648 4139 
Q 2969 4041 3192 3777 
Q 3416 3513 3416 3147 
Q 3416 2756 3161 2468 
Q 2906 2181 2372 2063 
L 3247 847 
Q 3547 428 3762 290 
Q 3978 153 4325 116 
L 4325 0 
z
M 1316 2178 
Q 1375 2178 1419 2176 
Q 1463 2175 1491 2175 
Q 2097 2175 2405 2437 
Q 2713 2700 2713 3106 
Q 2713 3503 2464 3751 
Q 2216 4000 1806 4000 
Q 1625 4000 1316 3941 
L 1316 2178 
z
" transform="scale(0.015625)"/>
       <path id="TimesNewRomanPSMT-65" d="M 681 1784 
Q 678 1147 991 784 
Q 1303 422 1725 422 
Q 2006 422 2214 576 
Q 2422 731 2563 1106 
L 2659 1044 
Q 2594 616 2278 264 
Q 1963 -88 1488 -88 
Q 972 -88 605 314 
Q 238 716 238 1394 
Q 238 2128 614 2539 
Q 991 2950 1559 2950 
Q 2041 2950 2350 2633 
Q 2659 2316 2659 1784 
L 681 1784 
z
M 681 1966 
L 2006 1966 
Q 1991 2241 1941 2353 
Q 1863 2528 1708 2628 
Q 1553 2728 1384 2728 
Q 1125 2728 920 2526 
Q 716 2325 681 1966 
z
" transform="scale(0.015625)"/>
       <path id="TimesNewRomanPSMT-61" d="M 1822 413 
Q 1381 72 1269 19 
Q 1100 -59 909 -59 
Q 613 -59 420 144 
Q 228 347 228 678 
Q 228 888 322 1041 
Q 450 1253 767 1440 
Q 1084 1628 1822 1897 
L 1822 2009 
Q 1822 2438 1686 2597 
Q 1550 2756 1291 2756 
Q 1094 2756 978 2650 
Q 859 2544 859 2406 
L 866 2225 
Q 866 2081 792 2003 
Q 719 1925 600 1925 
Q 484 1925 411 2006 
Q 338 2088 338 2228 
Q 338 2497 613 2722 
Q 888 2947 1384 2947 
Q 1766 2947 2009 2819 
Q 2194 2722 2281 2516 
Q 2338 2381 2338 1966 
L 2338 994 
Q 2338 584 2353 492 
Q 2369 400 2405 369 
Q 2441 338 2488 338 
Q 2538 338 2575 359 
Q 2641 400 2828 588 
L 2828 413 
Q 2478 -56 2159 -56 
Q 2006 -56 1915 50 
Q 1825 156 1822 413 
z
M 1822 616 
L 1822 1706 
Q 1350 1519 1213 1441 
Q 966 1303 859 1153 
Q 753 1003 753 825 
Q 753 600 887 451 
Q 1022 303 1197 303 
Q 1434 303 1822 616 
z
" transform="scale(0.015625)"/>
       <path id="TimesNewRomanPSMT-6c" d="M 1184 4444 
L 1184 647 
Q 1184 378 1223 290 
Q 1263 203 1344 158 
Q 1425 113 1647 113 
L 1647 0 
L 244 0 
L 244 113 
Q 441 113 512 153 
Q 584 194 625 287 
Q 666 381 666 647 
L 666 3247 
Q 666 3731 644 3842 
Q 622 3953 573 3993 
Q 525 4034 450 4034 
Q 369 4034 244 3984 
L 191 4094 
L 1044 4444 
L 1184 4444 
z
" transform="scale(0.015625)"/>
       <path id="TimesNewRomanPSMT-20" transform="scale(0.015625)"/>
       <path id="TimesNewRomanPSMT-56" d="M 4544 4238 
L 4544 4122 
Q 4319 4081 4203 3978 
Q 4038 3825 3909 3509 
L 2431 -97 
L 2316 -97 
L 728 3556 
Q 606 3838 556 3900 
Q 478 3997 364 4051 
Q 250 4106 56 4122 
L 56 4238 
L 1788 4238 
L 1788 4122 
Q 1494 4094 1406 4022 
Q 1319 3950 1319 3838 
Q 1319 3681 1463 3350 
L 2541 866 
L 3541 3319 
Q 3688 3681 3688 3822 
Q 3688 3913 3597 3995 
Q 3506 4078 3291 4113 
Q 3275 4116 3238 4122 
L 3238 4238 
L 4544 4238 
z
" transform="scale(0.015625)"/>
       <path id="TimesNewRomanPSMT-75" d="M 2709 2863 
L 2709 1128 
Q 2709 631 2732 520 
Q 2756 409 2807 365 
Q 2859 322 2928 322 
Q 3025 322 3147 375 
L 3191 266 
L 2334 -88 
L 2194 -88 
L 2194 519 
Q 1825 119 1631 15 
Q 1438 -88 1222 -88 
Q 981 -88 804 51 
Q 628 191 559 409 
Q 491 628 491 1028 
L 491 2306 
Q 491 2509 447 2587 
Q 403 2666 317 2708 
Q 231 2750 6 2747 
L 6 2863 
L 1009 2863 
L 1009 947 
Q 1009 547 1148 422 
Q 1288 297 1484 297 
Q 1619 297 1789 381 
Q 1959 466 2194 703 
L 2194 2325 
Q 2194 2569 2105 2655 
Q 2016 2741 1734 2747 
L 1734 2863 
L 2709 2863 
z
" transform="scale(0.015625)"/>
      </defs>
      <use xlink:href="#TimesNewRomanPSMT-52"/>
      <use xlink:href="#TimesNewRomanPSMT-65" x="66.699219"/>
      <use xlink:href="#TimesNewRomanPSMT-61" x="111.083984"/>
      <use xlink:href="#TimesNewRomanPSMT-6c" x="155.46875"/>
      <use xlink:href="#TimesNewRomanPSMT-20" x="183.251953"/>
      <use xlink:href="#TimesNewRomanPSMT-56" x="206.501953"/>
      <use xlink:href="#TimesNewRomanPSMT-61" x="267.59375"/>
      <use xlink:href="#TimesNewRomanPSMT-6c" x="311.978516"/>
      <use xlink:href="#TimesNewRomanPSMT-75" x="339.761719"/>
      <use xlink:href="#TimesNewRomanPSMT-65" x="389.761719"/>
     </g>
    </g>
    <g id="line2d_38">
     <path d="M 73.055469 66.7275 
L 93.055469 66.7275 
L 113.055469 66.7275 
" style="fill: none; stroke: #008000; stroke-width: 2; stroke-linecap: square"/>
    </g>
    <g id="text_21">
     <!-- JITL-RVM -->
     <g transform="translate(129.055469 73.7275) scale(0.2 -0.2)">
      <defs>
       <path id="TimesNewRomanPSMT-4a" d="M 638 4122 
L 638 4238 
L 2453 4238 
L 2453 4122 
L 2300 4122 
Q 2041 4122 1922 3969 
Q 1847 3869 1847 3488 
L 1847 1416 
Q 1847 938 1742 641 
Q 1638 344 1381 123 
Q 1125 -97 763 -97 
Q 469 -97 300 48 
Q 131 194 131 381 
Q 131 534 209 613 
Q 313 709 450 709 
Q 550 709 629 643 
Q 709 578 831 294 
Q 903 125 1016 125 
Q 1100 125 1173 228 
Q 1247 331 1247 594 
L 1247 3488 
Q 1247 3809 1206 3913 
Q 1175 3991 1075 4047 
Q 941 4122 791 4122 
L 638 4122 
z
" transform="scale(0.015625)"/>
       <path id="TimesNewRomanPSMT-49" d="M 1975 116 
L 1975 0 
L 159 0 
L 159 116 
L 309 116 
Q 572 116 691 269 
Q 766 369 766 750 
L 766 3488 
Q 766 3809 725 3913 
Q 694 3991 597 4047 
Q 459 4122 309 4122 
L 159 4122 
L 159 4238 
L 1975 4238 
L 1975 4122 
L 1822 4122 
Q 1563 4122 1444 3969 
Q 1366 3869 1366 3488 
L 1366 750 
Q 1366 428 1406 325 
Q 1438 247 1538 191 
Q 1672 116 1822 116 
L 1975 116 
z
" transform="scale(0.015625)"/>
       <path id="TimesNewRomanPSMT-54" d="M 3703 4238 
L 3750 3244 
L 3631 3244 
Q 3597 3506 3538 3619 
Q 3441 3800 3280 3886 
Q 3119 3972 2856 3972 
L 2259 3972 
L 2259 734 
Q 2259 344 2344 247 
Q 2463 116 2709 116 
L 2856 116 
L 2856 0 
L 1059 0 
L 1059 116 
L 1209 116 
Q 1478 116 1591 278 
Q 1659 378 1659 734 
L 1659 3972 
L 1150 3972 
Q 853 3972 728 3928 
Q 566 3869 450 3700 
Q 334 3531 313 3244 
L 194 3244 
L 244 4238 
L 3703 4238 
z
" transform="scale(0.015625)"/>
       <path id="TimesNewRomanPSMT-4c" d="M 3669 1172 
L 3772 1150 
L 3409 0 
L 128 0 
L 128 116 
L 288 116 
Q 556 116 672 291 
Q 738 391 738 753 
L 738 3488 
Q 738 3884 650 3984 
Q 528 4122 288 4122 
L 128 4122 
L 128 4238 
L 2047 4238 
L 2047 4122 
Q 1709 4125 1573 4059 
Q 1438 3994 1388 3894 
Q 1338 3794 1338 3416 
L 1338 753 
Q 1338 494 1388 397 
Q 1425 331 1503 300 
Q 1581 269 1991 269 
L 2300 269 
Q 2788 269 2984 341 
Q 3181 413 3343 595 
Q 3506 778 3669 1172 
z
" transform="scale(0.015625)"/>
       <path id="TimesNewRomanPSMT-2d" d="M 259 1672 
L 1875 1672 
L 1875 1200 
L 259 1200 
L 259 1672 
z
" transform="scale(0.015625)"/>
       <path id="TimesNewRomanPSMT-4d" d="M 2619 0 
L 981 3566 
L 981 734 
Q 981 344 1066 247 
Q 1181 116 1431 116 
L 1581 116 
L 1581 0 
L 106 0 
L 106 116 
L 256 116 
Q 525 116 638 278 
Q 706 378 706 734 
L 706 3503 
Q 706 3784 644 3909 
Q 600 4000 483 4061 
Q 366 4122 106 4122 
L 106 4238 
L 1306 4238 
L 2844 922 
L 4356 4238 
L 5556 4238 
L 5556 4122 
L 5409 4122 
Q 5138 4122 5025 3959 
Q 4956 3859 4956 3503 
L 4956 734 
Q 4956 344 5044 247 
Q 5159 116 5409 116 
L 5556 116 
L 5556 0 
L 3756 0 
L 3756 116 
L 3906 116 
Q 4178 116 4288 278 
Q 4356 378 4356 734 
L 4356 3566 
L 2722 0 
L 2619 0 
z
" transform="scale(0.015625)"/>
      </defs>
      <use xlink:href="#TimesNewRomanPSMT-4a"/>
      <use xlink:href="#TimesNewRomanPSMT-49" x="38.916016"/>
      <use xlink:href="#TimesNewRomanPSMT-54" x="72.216797"/>
      <use xlink:href="#TimesNewRomanPSMT-4c" x="133.300781"/>
      <use xlink:href="#TimesNewRomanPSMT-2d" x="194.384766"/>
      <use xlink:href="#TimesNewRomanPSMT-52" x="227.685547"/>
      <use xlink:href="#TimesNewRomanPSMT-56" x="286.384766"/>
      <use xlink:href="#TimesNewRomanPSMT-4d" x="358.601562"/>
     </g>
    </g>
   </g>
  </g>
 </g>
 <defs>
  <clipPath id="pe3f8bc6468">
   <rect x="55.055469" y="13.449375" width="648" height="367.2"/>
  </clipPath>
 </defs>
</svg>
