<?xml version="1.0" encoding="utf-8" standalone="no"?>
<!DOCTYPE svg PUBLIC "-//W3C//DTD SVG 1.1//EN"
  "http://www.w3.org/Graphics/SVG/1.1/DTD/svg11.dtd">
<svg xmlns:xlink="http://www.w3.org/1999/xlink" width="719.255469pt" height="422.835781pt" viewBox="0 0 719.255469 422.835781" xmlns="http://www.w3.org/2000/svg" version="1.1">
 <metadata>
  <rdf:RDF xmlns:dc="http://purl.org/dc/elements/1.1/" xmlns:cc="http://creativecommons.org/ns#" xmlns:rdf="http://www.w3.org/1999/02/22-rdf-syntax-ns#">
   <cc:Work>
    <dc:type rdf:resource="http://purl.org/dc/dcmitype/StillImage"/>
    <dc:date>2025-05-27T14:12:30.295317</dc:date>
    <dc:format>image/svg+xml</dc:format>
    <dc:creator>
     <cc:Agent>
      <dc:title>Matplotlib v3.7.2, https://matplotlib.org/</dc:title>
     </cc:Agent>
    </dc:creator>
   </cc:Work>
  </rdf:RDF>
 </metadata>
 <defs>
  <style type="text/css">*{stroke-linejoin: round; stroke-linecap: butt}</style>
 </defs>
 <g id="figure_1">
  <g id="patch_1">
   <path d="M 0 422.835781 
L 719.255469 422.835781 
L 719.255469 0 
L 0 0 
z
" style="fill: #ffffff"/>
  </g>
  <g id="axes_1">
   <g id="patch_2">
    <path d="M 50.555469 374.4 
L 698.555469 374.4 
L 698.555469 7.2 
L 50.555469 7.2 
z
" style="fill: #ffffff"/>
   </g>
   <g id="matplotlib.axis_1">
    <g id="xtick_1">
     <g id="line2d_1">
      <path d="M 50.555469 374.4 
L 50.555469 7.2 
" clip-path="url(#p15c7d4af9c)" style="fill: none; stroke: #b0b0b0; stroke-width: 0.8; stroke-linecap: square"/>
     </g>
     <g id="line2d_2">
      <defs>
       <path id="m8d832b30d8" d="M 0 0 
L 0 3.5 
" style="stroke: #000000; stroke-width: 0.8"/>
      </defs>
      <g>
       <use xlink:href="#m8d832b30d8" x="50.555469" y="374.4" style="stroke: #000000; stroke-width: 0.8"/>
      </g>
     </g>
     <g id="text_1">
      <!-- 0 -->
      <g transform="translate(46.055469 393.89875) scale(0.18 -0.18)">
       <defs>
        <path id="TimesNewRomanPSMT-30" d="M 231 2094 
Q 231 2819 450 3342 
Q 669 3866 1031 4122 
Q 1313 4325 1613 4325 
Q 2100 4325 2488 3828 
Q 2972 3213 2972 2159 
Q 2972 1422 2759 906 
Q 2547 391 2217 158 
Q 1888 -75 1581 -75 
Q 975 -75 572 641 
Q 231 1244 231 2094 
z
M 844 2016 
Q 844 1141 1059 588 
Q 1238 122 1591 122 
Q 1759 122 1940 273 
Q 2122 425 2216 781 
Q 2359 1319 2359 2297 
Q 2359 3022 2209 3506 
Q 2097 3866 1919 4016 
Q 1791 4119 1609 4119 
Q 1397 4119 1231 3928 
Q 1006 3669 925 3112 
Q 844 2556 844 2016 
z
" transform="scale(0.015625)"/>
       </defs>
       <use xlink:href="#TimesNewRomanPSMT-30"/>
      </g>
     </g>
    </g>
    <g id="xtick_2">
     <g id="line2d_3">
      <path d="M 131.555469 374.4 
L 131.555469 7.2 
" clip-path="url(#p15c7d4af9c)" style="fill: none; stroke: #b0b0b0; stroke-width: 0.8; stroke-linecap: square"/>
     </g>
     <g id="line2d_4">
      <g>
       <use xlink:href="#m8d832b30d8" x="131.555469" y="374.4" style="stroke: #000000; stroke-width: 0.8"/>
      </g>
     </g>
     <g id="text_2">
      <!-- 50 -->
      <g transform="translate(122.555469 393.89875) scale(0.18 -0.18)">
       <defs>
        <path id="TimesNewRomanPSMT-35" d="M 2778 4238 
L 2534 3706 
L 1259 3706 
L 981 3138 
Q 1809 3016 2294 2522 
Q 2709 2097 2709 1522 
Q 2709 1188 2573 903 
Q 2438 619 2231 419 
Q 2025 219 1772 97 
Q 1413 -75 1034 -75 
Q 653 -75 479 54 
Q 306 184 306 341 
Q 306 428 378 495 
Q 450 563 559 563 
Q 641 563 702 538 
Q 763 513 909 409 
Q 1144 247 1384 247 
Q 1750 247 2026 523 
Q 2303 800 2303 1197 
Q 2303 1581 2056 1914 
Q 1809 2247 1375 2428 
Q 1034 2569 447 2591 
L 1259 4238 
L 2778 4238 
z
" transform="scale(0.015625)"/>
       </defs>
       <use xlink:href="#TimesNewRomanPSMT-35"/>
       <use xlink:href="#TimesNewRomanPSMT-30" x="50"/>
      </g>
     </g>
    </g>
    <g id="xtick_3">
     <g id="line2d_5">
      <path d="M 212.555469 374.4 
L 212.555469 7.2 
" clip-path="url(#p15c7d4af9c)" style="fill: none; stroke: #b0b0b0; stroke-width: 0.8; stroke-linecap: square"/>
     </g>
     <g id="line2d_6">
      <g>
       <use xlink:href="#m8d832b30d8" x="212.555469" y="374.4" style="stroke: #000000; stroke-width: 0.8"/>
      </g>
     </g>
     <g id="text_3">
      <!-- 100 -->
      <g transform="translate(199.055469 393.89875) scale(0.18 -0.18)">
       <defs>
        <path id="TimesNewRomanPSMT-31" d="M 750 3822 
L 1781 4325 
L 1884 4325 
L 1884 747 
Q 1884 391 1914 303 
Q 1944 216 2037 169 
Q 2131 122 2419 116 
L 2419 0 
L 825 0 
L 825 116 
Q 1125 122 1212 167 
Q 1300 213 1334 289 
Q 1369 366 1369 747 
L 1369 3034 
Q 1369 3497 1338 3628 
Q 1316 3728 1258 3775 
Q 1200 3822 1119 3822 
Q 1003 3822 797 3725 
L 750 3822 
z
" transform="scale(0.015625)"/>
       </defs>
       <use xlink:href="#TimesNewRomanPSMT-31"/>
       <use xlink:href="#TimesNewRomanPSMT-30" x="50"/>
       <use xlink:href="#TimesNewRomanPSMT-30" x="100"/>
      </g>
     </g>
    </g>
    <g id="xtick_4">
     <g id="line2d_7">
      <path d="M 293.555469 374.4 
L 293.555469 7.2 
" clip-path="url(#p15c7d4af9c)" style="fill: none; stroke: #b0b0b0; stroke-width: 0.8; stroke-linecap: square"/>
     </g>
     <g id="line2d_8">
      <g>
       <use xlink:href="#m8d832b30d8" x="293.555469" y="374.4" style="stroke: #000000; stroke-width: 0.8"/>
      </g>
     </g>
     <g id="text_4">
      <!-- 150 -->
      <g transform="translate(280.055469 393.89875) scale(0.18 -0.18)">
       <use xlink:href="#TimesNewRomanPSMT-31"/>
       <use xlink:href="#TimesNewRomanPSMT-35" x="50"/>
       <use xlink:href="#TimesNewRomanPSMT-30" x="100"/>
      </g>
     </g>
    </g>
    <g id="xtick_5">
     <g id="line2d_9">
      <path d="M 374.555469 374.4 
L 374.555469 7.2 
" clip-path="url(#p15c7d4af9c)" style="fill: none; stroke: #b0b0b0; stroke-width: 0.8; stroke-linecap: square"/>
     </g>
     <g id="line2d_10">
      <g>
       <use xlink:href="#m8d832b30d8" x="374.555469" y="374.4" style="stroke: #000000; stroke-width: 0.8"/>
      </g>
     </g>
     <g id="text_5">
      <!-- 200 -->
      <g transform="translate(361.055469 393.89875) scale(0.18 -0.18)">
       <defs>
        <path id="TimesNewRomanPSMT-32" d="M 2934 816 
L 2638 0 
L 138 0 
L 138 116 
Q 1241 1122 1691 1759 
Q 2141 2397 2141 2925 
Q 2141 3328 1894 3587 
Q 1647 3847 1303 3847 
Q 991 3847 742 3664 
Q 494 3481 375 3128 
L 259 3128 
Q 338 3706 661 4015 
Q 984 4325 1469 4325 
Q 1984 4325 2329 3994 
Q 2675 3663 2675 3213 
Q 2675 2891 2525 2569 
Q 2294 2063 1775 1497 
Q 997 647 803 472 
L 1909 472 
Q 2247 472 2383 497 
Q 2519 522 2628 598 
Q 2738 675 2819 816 
L 2934 816 
z
" transform="scale(0.015625)"/>
       </defs>
       <use xlink:href="#TimesNewRomanPSMT-32"/>
       <use xlink:href="#TimesNewRomanPSMT-30" x="50"/>
       <use xlink:href="#TimesNewRomanPSMT-30" x="100"/>
      </g>
     </g>
    </g>
    <g id="xtick_6">
     <g id="line2d_11">
      <path d="M 455.555469 374.4 
L 455.555469 7.2 
" clip-path="url(#p15c7d4af9c)" style="fill: none; stroke: #b0b0b0; stroke-width: 0.8; stroke-linecap: square"/>
     </g>
     <g id="line2d_12">
      <g>
       <use xlink:href="#m8d832b30d8" x="455.555469" y="374.4" style="stroke: #000000; stroke-width: 0.8"/>
      </g>
     </g>
     <g id="text_6">
      <!-- 250 -->
      <g transform="translate(442.055469 393.89875) scale(0.18 -0.18)">
       <use xlink:href="#TimesNewRomanPSMT-32"/>
       <use xlink:href="#TimesNewRomanPSMT-35" x="50"/>
       <use xlink:href="#TimesNewRomanPSMT-30" x="100"/>
      </g>
     </g>
    </g>
    <g id="xtick_7">
     <g id="line2d_13">
      <path d="M 536.555469 374.4 
L 536.555469 7.2 
" clip-path="url(#p15c7d4af9c)" style="fill: none; stroke: #b0b0b0; stroke-width: 0.8; stroke-linecap: square"/>
     </g>
     <g id="line2d_14">
      <g>
       <use xlink:href="#m8d832b30d8" x="536.555469" y="374.4" style="stroke: #000000; stroke-width: 0.8"/>
      </g>
     </g>
     <g id="text_7">
      <!-- 300 -->
      <g transform="translate(523.055469 393.89875) scale(0.18 -0.18)">
       <defs>
        <path id="TimesNewRomanPSMT-33" d="M 325 3431 
Q 506 3859 782 4092 
Q 1059 4325 1472 4325 
Q 1981 4325 2253 3994 
Q 2459 3747 2459 3466 
Q 2459 3003 1878 2509 
Q 2269 2356 2469 2072 
Q 2669 1788 2669 1403 
Q 2669 853 2319 450 
Q 1863 -75 997 -75 
Q 569 -75 414 31 
Q 259 138 259 259 
Q 259 350 332 419 
Q 406 488 509 488 
Q 588 488 669 463 
Q 722 447 909 348 
Q 1097 250 1169 231 
Q 1284 197 1416 197 
Q 1734 197 1970 444 
Q 2206 691 2206 1028 
Q 2206 1275 2097 1509 
Q 2016 1684 1919 1775 
Q 1784 1900 1550 2001 
Q 1316 2103 1072 2103 
L 972 2103 
L 972 2197 
Q 1219 2228 1467 2375 
Q 1716 2522 1828 2728 
Q 1941 2934 1941 3181 
Q 1941 3503 1739 3701 
Q 1538 3900 1238 3900 
Q 753 3900 428 3381 
L 325 3431 
z
" transform="scale(0.015625)"/>
       </defs>
       <use xlink:href="#TimesNewRomanPSMT-33"/>
       <use xlink:href="#TimesNewRomanPSMT-30" x="50"/>
       <use xlink:href="#TimesNewRomanPSMT-30" x="100"/>
      </g>
     </g>
    </g>
    <g id="xtick_8">
     <g id="line2d_15">
      <path d="M 617.555469 374.4 
L 617.555469 7.2 
" clip-path="url(#p15c7d4af9c)" style="fill: none; stroke: #b0b0b0; stroke-width: 0.8; stroke-linecap: square"/>
     </g>
     <g id="line2d_16">
      <g>
       <use xlink:href="#m8d832b30d8" x="617.555469" y="374.4" style="stroke: #000000; stroke-width: 0.8"/>
      </g>
     </g>
     <g id="text_8">
      <!-- 350 -->
      <g transform="translate(604.055469 393.89875) scale(0.18 -0.18)">
       <use xlink:href="#TimesNewRomanPSMT-33"/>
       <use xlink:href="#TimesNewRomanPSMT-35" x="50"/>
       <use xlink:href="#TimesNewRomanPSMT-30" x="100"/>
      </g>
     </g>
    </g>
    <g id="xtick_9">
     <g id="line2d_17">
      <path d="M 698.555469 374.4 
L 698.555469 7.2 
" clip-path="url(#p15c7d4af9c)" style="fill: none; stroke: #b0b0b0; stroke-width: 0.8; stroke-linecap: square"/>
     </g>
     <g id="line2d_18">
      <g>
       <use xlink:href="#m8d832b30d8" x="698.555469" y="374.4" style="stroke: #000000; stroke-width: 0.8"/>
      </g>
     </g>
     <g id="text_9">
      <!-- 400 -->
      <g transform="translate(685.055469 393.89875) scale(0.18 -0.18)">
       <defs>
        <path id="TimesNewRomanPSMT-34" d="M 2978 1563 
L 2978 1119 
L 2409 1119 
L 2409 0 
L 1894 0 
L 1894 1119 
L 100 1119 
L 100 1519 
L 2066 4325 
L 2409 4325 
L 2409 1563 
L 2978 1563 
z
M 1894 1563 
L 1894 3666 
L 406 1563 
L 1894 1563 
z
" transform="scale(0.015625)"/>
       </defs>
       <use xlink:href="#TimesNewRomanPSMT-34"/>
       <use xlink:href="#TimesNewRomanPSMT-30" x="50"/>
       <use xlink:href="#TimesNewRomanPSMT-30" x="100"/>
      </g>
     </g>
    </g>
    <g id="text_10">
     <!-- 采样时间/h -->
     <g transform="translate(337.055469 413.702187) scale(0.15 -0.15)">
      <defs>
       <path id="SimSun-91c7" d="M 5250 5250 
L 5625 4775 
Q 5200 4750 3800 4625 
Q 2400 4475 725 4475 
L 725 4575 
Q 1975 4650 2775 4737 
Q 3575 4825 4250 4950 
Q 4925 5075 5250 5250 
z
M 1075 4125 
Q 1825 3650 1887 3462 
Q 1950 3275 1950 3225 
Q 1950 3075 1850 2962 
Q 1750 2850 1725 2850 
Q 1625 2850 1550 3125 
Q 1425 3525 1025 4075 
L 1075 4125 
z
M 2600 4275 
L 2675 4325 
Q 3375 3925 3437 3762 
Q 3500 3600 3500 3550 
Q 3500 3400 3400 3262 
Q 3300 3125 3250 3125 
Q 3175 3125 3100 3425 
Q 2975 3825 2600 4275 
z
M 4825 4475 
L 5350 4125 
L 5125 3975 
Q 4450 3025 3975 2600 
L 3900 2675 
Q 4550 3575 4825 4475 
z
M 3350 2200 
Q 3350 50 3375 -500 
L 2950 -675 
Q 2975 875 2975 1975 
Q 2100 425 275 -450 
L 225 -350 
Q 1825 600 2675 2200 
L 1150 2200 
Q 825 2200 550 2125 
L 325 2350 
L 2975 2350 
Q 2975 2675 2950 3075 
L 3525 2775 
L 3350 2575 
L 3350 2350 
L 5300 2350 
L 5650 2700 
L 6125 2200 
L 3625 2200 
Q 4525 250 6100 -25 
L 6100 -125 
Q 5750 -100 5550 -425 
Q 4150 325 3500 2200 
L 3350 2200 
z
" transform="scale(0.015625)"/>
       <path id="SimSun-6837" d="M 2800 5025 
L 2850 5100 
Q 3625 4675 3700 4512 
Q 3775 4350 3775 4300 
Q 3775 4175 3675 4037 
Q 3575 3900 3550 3900 
Q 3450 3900 3375 4125 
Q 3250 4475 2800 5025 
z
M 4275 1325 
Q 4275 75 4300 -475 
L 3900 -625 
Q 3925 275 3925 1325 
L 3075 1325 
Q 2750 1325 2475 1250 
L 2250 1475 
L 3925 1475 
L 3925 2525 
L 3500 2525 
Q 3175 2525 2900 2450 
L 2675 2675 
L 3925 2675 
L 3925 3600 
L 3475 3600 
Q 3150 3600 2875 3525 
L 2650 3750 
L 4275 3750 
Q 4725 4600 4875 5250 
L 5400 4900 
Q 5150 4775 4900 4425 
Q 4650 4075 4425 3750 
L 5150 3750 
L 5450 4050 
L 5900 3600 
L 4275 3600 
L 4275 2675 
L 4975 2675 
L 5275 2975 
L 5725 2525 
L 4275 2525 
L 4275 1475 
L 5275 1475 
L 5600 1800 
L 6075 1325 
L 4275 1325 
z
M 1650 750 
Q 1650 400 1675 -500 
L 1275 -650 
Q 1300 825 1300 2375 
Q 875 1375 300 725 
L 225 775 
Q 925 1875 1300 3600 
L 1125 3600 
Q 800 3600 525 3525 
L 300 3750 
L 1300 3750 
Q 1300 4375 1275 5250 
L 1850 4950 
L 1650 4775 
L 1650 3750 
L 1975 3750 
L 2250 4025 
L 2675 3600 
L 1650 3600 
L 1650 2925 
Q 2125 2700 2300 2550 
Q 2475 2400 2475 2250 
Q 2475 2150 2412 2000 
Q 2350 1850 2300 1850 
Q 2225 1850 2125 2075 
Q 1950 2450 1650 2775 
L 1650 750 
z
" transform="scale(0.015625)"/>
       <path id="SimSun-65f6" d="M 4500 3600 
Q 4500 4575 4475 5225 
L 5100 4900 
L 4850 4725 
L 4850 3600 
L 5225 3600 
L 5550 3925 
L 6025 3450 
L 4850 3450 
L 4850 100 
Q 4850 -375 4300 -575 
Q 4275 -200 3475 -25 
L 3475 100 
Q 4150 0 4325 25 
Q 4500 50 4500 325 
L 4500 3450 
L 3200 3450 
Q 2875 3450 2600 3375 
L 2375 3600 
L 4500 3600 
z
M 2875 2825 
Q 3525 2375 3637 2200 
Q 3750 2025 3750 1925 
Q 3750 1800 3637 1637 
Q 3525 1475 3475 1475 
Q 3400 1475 3325 1775 
Q 3200 2225 2800 2750 
L 2875 2825 
z
M 925 4150 
L 925 2650 
L 1950 2650 
L 1950 4150 
L 925 4150 
z
M 925 2500 
L 925 900 
L 1950 900 
L 1950 2500 
L 925 2500 
z
M 2300 2000 
Q 2300 800 2325 450 
L 1950 250 
L 1950 750 
L 925 750 
L 925 225 
L 550 25 
Q 575 825 575 2425 
Q 575 4025 550 4500 
L 950 4300 
L 1900 4300 
L 2100 4550 
L 2500 4225 
L 2300 4050 
L 2300 2000 
z
" transform="scale(0.015625)"/>
       <path id="SimSun-95f4" d="M 2150 525 
Q 2175 1325 2175 2112 
Q 2175 2900 2150 3675 
L 2525 3450 
L 3750 3450 
L 4000 3700 
L 4325 3375 
L 4125 3200 
Q 4125 1550 4150 775 
L 3800 575 
L 3800 975 
L 2500 975 
L 2500 700 
L 2150 525 
z
M 2500 3300 
L 2500 2325 
L 3800 2325 
L 3800 3300 
L 2500 3300 
z
M 2500 2175 
L 2500 1125 
L 3800 1125 
L 3800 2175 
L 2500 2175 
z
M 1275 5200 
Q 1850 4825 1950 4675 
Q 2050 4525 2050 4425 
Q 2050 4275 1950 4137 
Q 1850 4000 1825 4000 
Q 1750 4000 1675 4275 
Q 1550 4650 1200 5125 
L 1275 5200 
z
M 1125 425 
Q 1125 25 1150 -375 
L 750 -525 
Q 775 -150 775 1950 
Q 775 4050 750 4425 
L 1350 4125 
L 1125 3975 
L 1125 425 
z
M 4225 125 
Q 5025 0 5125 37 
Q 5225 75 5225 250 
L 5225 4450 
L 3225 4450 
Q 2900 4450 2625 4375 
L 2400 4600 
L 5175 4600 
L 5425 4850 
L 5775 4500 
L 5575 4350 
L 5575 225 
Q 5575 -100 5462 -250 
Q 5350 -400 5000 -550 
Q 4800 -125 4225 25 
L 4225 125 
z
" transform="scale(0.015625)"/>
       <path id="SimSun-2f" d="M 400 -475 
L 225 -375 
L 2775 4975 
L 2950 4875 
L 400 -475 
z
" transform="scale(0.015625)"/>
       <path id="SimSun-68" d="M 200 100 
L 200 250 
L 325 250 
Q 450 250 500 300 
Q 550 350 550 450 
L 550 4025 
Q 550 4125 500 4175 
Q 450 4225 325 4225 
L 175 4225 
L 175 4375 
L 450 4375 
Q 550 4375 650 4425 
Q 750 4475 850 4575 
L 900 4575 
L 900 2450 
Q 1125 2725 1362 2837 
Q 1600 2950 1875 2950 
Q 2250 2950 2450 2737 
Q 2650 2525 2650 2075 
L 2650 450 
Q 2650 350 2712 300 
Q 2775 250 2875 250 
L 3000 250 
L 3000 100 
L 1950 100 
L 1950 250 
L 2075 250 
Q 2200 250 2250 300 
Q 2300 350 2300 450 
L 2300 2025 
Q 2300 2450 2162 2587 
Q 2025 2725 1800 2725 
Q 1600 2725 1362 2600 
Q 1125 2475 900 2175 
L 900 450 
Q 900 350 962 300 
Q 1025 250 1125 250 
L 1250 250 
L 1250 100 
L 200 100 
z
" transform="scale(0.015625)"/>
      </defs>
      <use xlink:href="#SimSun-91c7"/>
      <use xlink:href="#SimSun-6837" x="100"/>
      <use xlink:href="#SimSun-65f6" x="200"/>
      <use xlink:href="#SimSun-95f4" x="300"/>
      <use xlink:href="#SimSun-2f" x="400"/>
      <use xlink:href="#SimSun-68" x="450"/>
     </g>
    </g>
   </g>
   <g id="matplotlib.axis_2">
    <g id="ytick_1">
     <g id="line2d_19">
      <path d="M 50.555469 374.4 
L 698.555469 374.4 
" clip-path="url(#p15c7d4af9c)" style="fill: none; stroke: #b0b0b0; stroke-width: 0.8; stroke-linecap: square"/>
     </g>
     <g id="line2d_20">
      <defs>
       <path id="m61a261495c" d="M 0 0 
L -3.5 0 
" style="stroke: #000000; stroke-width: 0.8"/>
      </defs>
      <g>
       <use xlink:href="#m61a261495c" x="50.555469" y="374.4" style="stroke: #000000; stroke-width: 0.8"/>
      </g>
     </g>
     <g id="text_11">
      <!-- 0 -->
      <g transform="translate(34.555469 380.649375) scale(0.18 -0.18)">
       <use xlink:href="#TimesNewRomanPSMT-30"/>
      </g>
     </g>
    </g>
    <g id="ytick_2">
     <g id="line2d_21">
      <path d="M 50.555469 317.907692 
L 698.555469 317.907692 
" clip-path="url(#p15c7d4af9c)" style="fill: none; stroke: #b0b0b0; stroke-width: 0.8; stroke-linecap: square"/>
     </g>
     <g id="line2d_22">
      <g>
       <use xlink:href="#m61a261495c" x="50.555469" y="317.907692" style="stroke: #000000; stroke-width: 0.8"/>
      </g>
     </g>
     <g id="text_12">
      <!-- 2 -->
      <g transform="translate(34.555469 324.157067) scale(0.18 -0.18)">
       <use xlink:href="#TimesNewRomanPSMT-32"/>
      </g>
     </g>
    </g>
    <g id="ytick_3">
     <g id="line2d_23">
      <path d="M 50.555469 261.415385 
L 698.555469 261.415385 
" clip-path="url(#p15c7d4af9c)" style="fill: none; stroke: #b0b0b0; stroke-width: 0.8; stroke-linecap: square"/>
     </g>
     <g id="line2d_24">
      <g>
       <use xlink:href="#m61a261495c" x="50.555469" y="261.415385" style="stroke: #000000; stroke-width: 0.8"/>
      </g>
     </g>
     <g id="text_13">
      <!-- 4 -->
      <g transform="translate(34.555469 267.66476) scale(0.18 -0.18)">
       <use xlink:href="#TimesNewRomanPSMT-34"/>
      </g>
     </g>
    </g>
    <g id="ytick_4">
     <g id="line2d_25">
      <path d="M 50.555469 204.923077 
L 698.555469 204.923077 
" clip-path="url(#p15c7d4af9c)" style="fill: none; stroke: #b0b0b0; stroke-width: 0.8; stroke-linecap: square"/>
     </g>
     <g id="line2d_26">
      <g>
       <use xlink:href="#m61a261495c" x="50.555469" y="204.923077" style="stroke: #000000; stroke-width: 0.8"/>
      </g>
     </g>
     <g id="text_14">
      <!-- 6 -->
      <g transform="translate(34.555469 211.172452) scale(0.18 -0.18)">
       <defs>
        <path id="TimesNewRomanPSMT-36" d="M 2869 4325 
L 2869 4209 
Q 2456 4169 2195 4045 
Q 1934 3922 1679 3669 
Q 1425 3416 1258 3105 
Q 1091 2794 978 2366 
Q 1428 2675 1881 2675 
Q 2316 2675 2634 2325 
Q 2953 1975 2953 1425 
Q 2953 894 2631 456 
Q 2244 -75 1606 -75 
Q 1172 -75 869 213 
Q 275 772 275 1663 
Q 275 2231 503 2743 
Q 731 3256 1154 3653 
Q 1578 4050 1965 4187 
Q 2353 4325 2688 4325 
L 2869 4325 
z
M 925 2138 
Q 869 1716 869 1456 
Q 869 1156 980 804 
Q 1091 453 1309 247 
Q 1469 100 1697 100 
Q 1969 100 2183 356 
Q 2397 613 2397 1088 
Q 2397 1622 2184 2012 
Q 1972 2403 1581 2403 
Q 1463 2403 1327 2353 
Q 1191 2303 925 2138 
z
" transform="scale(0.015625)"/>
       </defs>
       <use xlink:href="#TimesNewRomanPSMT-36"/>
      </g>
     </g>
    </g>
    <g id="ytick_5">
     <g id="line2d_27">
      <path d="M 50.555469 148.430769 
L 698.555469 148.430769 
" clip-path="url(#p15c7d4af9c)" style="fill: none; stroke: #b0b0b0; stroke-width: 0.8; stroke-linecap: square"/>
     </g>
     <g id="line2d_28">
      <g>
       <use xlink:href="#m61a261495c" x="50.555469" y="148.430769" style="stroke: #000000; stroke-width: 0.8"/>
      </g>
     </g>
     <g id="text_15">
      <!-- 8 -->
      <g transform="translate(34.555469 154.680144) scale(0.18 -0.18)">
       <defs>
        <path id="TimesNewRomanPSMT-38" d="M 1228 2134 
Q 725 2547 579 2797 
Q 434 3047 434 3316 
Q 434 3728 753 4026 
Q 1072 4325 1600 4325 
Q 2113 4325 2425 4047 
Q 2738 3769 2738 3413 
Q 2738 3175 2569 2928 
Q 2400 2681 1866 2347 
Q 2416 1922 2594 1678 
Q 2831 1359 2831 1006 
Q 2831 559 2490 242 
Q 2150 -75 1597 -75 
Q 994 -75 656 303 
Q 388 606 388 966 
Q 388 1247 577 1523 
Q 766 1800 1228 2134 
z
M 1719 2469 
Q 2094 2806 2194 3001 
Q 2294 3197 2294 3444 
Q 2294 3772 2109 3958 
Q 1925 4144 1606 4144 
Q 1288 4144 1088 3959 
Q 888 3775 888 3528 
Q 888 3366 970 3203 
Q 1053 3041 1206 2894 
L 1719 2469 
z
M 1375 2016 
Q 1116 1797 991 1539 
Q 866 1281 866 981 
Q 866 578 1086 336 
Q 1306 94 1647 94 
Q 1984 94 2187 284 
Q 2391 475 2391 747 
Q 2391 972 2272 1150 
Q 2050 1481 1375 2016 
z
" transform="scale(0.015625)"/>
       </defs>
       <use xlink:href="#TimesNewRomanPSMT-38"/>
      </g>
     </g>
    </g>
    <g id="ytick_6">
     <g id="line2d_29">
      <path d="M 50.555469 91.938462 
L 698.555469 91.938462 
" clip-path="url(#p15c7d4af9c)" style="fill: none; stroke: #b0b0b0; stroke-width: 0.8; stroke-linecap: square"/>
     </g>
     <g id="line2d_30">
      <g>
       <use xlink:href="#m61a261495c" x="50.555469" y="91.938462" style="stroke: #000000; stroke-width: 0.8"/>
      </g>
     </g>
     <g id="text_16">
      <!-- 10 -->
      <g transform="translate(25.555469 98.187837) scale(0.18 -0.18)">
       <use xlink:href="#TimesNewRomanPSMT-31"/>
       <use xlink:href="#TimesNewRomanPSMT-30" x="50"/>
      </g>
     </g>
    </g>
    <g id="ytick_7">
     <g id="line2d_31">
      <path d="M 50.555469 35.446154 
L 698.555469 35.446154 
" clip-path="url(#p15c7d4af9c)" style="fill: none; stroke: #b0b0b0; stroke-width: 0.8; stroke-linecap: square"/>
     </g>
     <g id="line2d_32">
      <g>
       <use xlink:href="#m61a261495c" x="50.555469" y="35.446154" style="stroke: #000000; stroke-width: 0.8"/>
      </g>
     </g>
     <g id="text_17">
      <!-- 12 -->
      <g transform="translate(25.555469 41.695529) scale(0.18 -0.18)">
       <use xlink:href="#TimesNewRomanPSMT-31"/>
       <use xlink:href="#TimesNewRomanPSMT-32" x="50"/>
      </g>
     </g>
    </g>
    <g id="text_18">
     <!-- 菌体浓度/g/h -->
     <g transform="translate(19.563281 235.8) rotate(-90) scale(0.15 -0.15)">
      <defs>
       <path id="SimSun-83cc" d="M 5425 3225 
L 5425 400 
Q 5425 25 5450 -475 
L 5075 -650 
L 5075 -200 
L 1375 -200 
L 1375 -500 
L 1000 -650 
Q 1025 -150 1025 1537 
Q 1025 3225 1000 3725 
L 1425 3475 
L 5025 3475 
L 5250 3725 
L 5650 3375 
L 5425 3225 
z
M 1375 3325 
L 1375 -50 
L 5075 -50 
L 5075 3325 
L 1375 3325 
z
M 3025 2625 
Q 2200 2575 1875 2550 
L 1875 2675 
Q 2575 2725 3237 2875 
Q 3900 3025 4175 3200 
L 4525 2800 
Q 4175 2800 3350 2650 
L 3350 1950 
L 4100 1950 
L 4500 2250 
L 4925 1800 
L 3350 1800 
L 3350 1625 
Q 4050 1375 4362 1150 
Q 4675 925 4612 737 
Q 4550 550 4475 550 
Q 4350 550 4200 775 
Q 3925 1175 3350 1525 
Q 3350 775 3375 275 
L 3000 125 
Q 3025 750 3025 1600 
Q 2525 800 1550 275 
L 1500 350 
Q 2375 1025 2750 1800 
L 2375 1800 
Q 2050 1800 1775 1725 
L 1550 1950 
L 3025 1950 
L 3025 2625 
z
M 2225 3600 
L 2225 4275 
L 1075 4275 
Q 875 4275 600 4200 
L 375 4425 
L 2225 4425 
Q 2225 4825 2200 5225 
L 2750 5000 
L 2550 4825 
L 2550 4425 
L 3750 4425 
Q 3750 4800 3725 5200 
L 4300 4950 
L 4100 4775 
L 4100 4425 
L 5125 4425 
L 5500 4775 
L 6000 4275 
L 4100 4275 
L 4100 3825 
L 3750 3650 
L 3750 4275 
L 2550 4275 
L 2550 3725 
L 2225 3600 
z
" transform="scale(0.015625)"/>
       <path id="SimSun-4f53" d="M 1275 -600 
Q 1300 200 1300 650 
L 1300 3225 
Q 900 2575 325 2000 
L 250 2075 
Q 825 2800 1237 3812 
Q 1650 4825 1725 5225 
L 2250 4875 
L 2050 4775 
Q 1650 3950 1425 3475 
L 1825 3250 
L 1625 3075 
L 1625 -400 
L 1275 -600 
z
M 4100 575 
Q 4100 100 4125 -400 
L 3725 -575 
Q 3750 225 3750 500 
L 3750 825 
L 3350 825 
Q 3025 825 2750 750 
L 2525 975 
L 3750 975 
L 3750 3375 
Q 3375 2450 2875 1775 
Q 2375 1100 1800 650 
L 1725 725 
Q 2200 1175 2687 2000 
Q 3175 2825 3425 3575 
L 2875 3575 
Q 2550 3575 2275 3500 
L 2050 3725 
L 3750 3725 
L 3750 4475 
Q 3750 4725 3725 5200 
L 4325 4925 
L 4100 4750 
L 4100 3725 
L 5225 3725 
L 5550 4050 
L 6025 3575 
L 4325 3575 
Q 4675 2525 5187 1887 
Q 5700 1250 6125 1100 
L 6125 1000 
Q 5725 1000 5600 775 
Q 5250 1050 4837 1850 
Q 4425 2650 4200 3575 
L 4100 3575 
L 4100 975 
L 4600 975 
L 4900 1275 
L 5350 825 
L 4100 825 
L 4100 575 
z
" transform="scale(0.015625)"/>
       <path id="SimSun-6d53" d="M 4900 3200 
L 5250 3875 
L 3750 3875 
Q 3700 3725 3650 3575 
Q 3925 2450 4300 1925 
Q 5050 2600 5250 2975 
L 5650 2525 
Q 5275 2450 4962 2225 
Q 4650 2000 4375 1800 
Q 5075 750 6100 350 
L 6100 250 
Q 5650 275 5500 -25 
Q 3900 1250 3575 3375 
Q 3325 2800 3075 2375 
L 3375 2225 
L 3225 2075 
L 3225 100 
L 4175 600 
L 4225 500 
Q 3350 -100 3100 -500 
L 2775 -125 
Q 2900 -50 2875 425 
L 2875 2000 
Q 2200 1175 1475 625 
L 1425 700 
Q 2850 2150 3400 3875 
L 2575 3875 
Q 2600 3475 2475 3337 
Q 2350 3200 2187 3225 
Q 2025 3250 2025 3325 
Q 2025 3400 2150 3550 
Q 2375 3800 2475 4300 
L 2575 4300 
L 2575 4025 
L 3425 4025 
Q 3500 4325 3550 4637 
Q 3600 4950 3625 5225 
L 4175 4950 
L 3975 4800 
Q 3875 4375 3775 4025 
L 5200 4025 
L 5450 4300 
L 5900 3800 
Q 5500 3800 4975 3150 
L 4900 3200 
z
M 1975 3900 
Q 1350 1400 1287 1087 
Q 1225 775 1225 325 
Q 1225 -125 1225 -287 
Q 1225 -450 1125 -450 
Q 1050 -450 887 -375 
Q 725 -300 725 -100 
Q 725 75 775 250 
Q 850 500 850 675 
Q 850 825 750 925 
Q 650 1025 275 1125 
L 275 1225 
Q 725 1175 812 1200 
Q 900 1225 1037 1450 
Q 1175 1675 1875 3925 
L 1975 3900 
z
M 300 3500 
Q 1125 3150 1137 2900 
Q 1150 2650 1050 2537 
Q 950 2425 925 2425 
Q 850 2425 775 2675 
Q 650 3000 250 3425 
L 300 3500 
z
M 875 4950 
Q 1550 4650 1625 4525 
Q 1700 4400 1700 4300 
Q 1700 4175 1600 4025 
Q 1500 3875 1450 3875 
Q 1350 3875 1275 4125 
Q 1150 4525 825 4875 
L 875 4950 
z
" transform="scale(0.015625)"/>
       <path id="SimSun-5ea6" d="M 2550 2025 
Q 2575 2525 2575 3175 
L 1925 3175 
L 1625 3125 
L 1425 3325 
L 2575 3325 
Q 2575 3700 2550 4150 
L 3100 3875 
L 2900 3750 
L 2900 3325 
L 4300 3325 
Q 4300 3750 4275 4125 
L 4850 3875 
L 4625 3725 
L 4625 3325 
L 5100 3325 
L 5425 3650 
L 5900 3175 
L 4625 3175 
Q 4625 2450 4650 2225 
L 4300 2075 
L 4300 2300 
L 2900 2300 
L 2900 2175 
L 2550 2025 
z
M 4875 1500 
Q 4300 775 3900 425 
Q 4700 -75 6025 -125 
L 6025 -225 
Q 5625 -300 5550 -550 
Q 4375 -325 3675 225 
Q 2475 -450 1075 -625 
L 1050 -525 
Q 2375 -275 3450 450 
Q 2975 925 2575 1625 
L 2325 1625 
L 2100 1575 
L 1900 1775 
L 4525 1775 
L 4750 2000 
L 5125 1625 
L 4875 1500 
z
M 2700 1625 
Q 3175 975 3650 625 
Q 4150 1100 4500 1625 
L 2700 1625 
z
M 2900 3175 
L 2900 2450 
L 4300 2450 
L 4300 3175 
L 2900 3175 
z
M 975 4650 
L 1400 4400 
L 3375 4400 
Q 3350 4550 3262 4725 
Q 3175 4900 2900 5225 
L 2975 5275 
Q 3550 5025 3637 4887 
Q 3725 4750 3725 4725 
Q 3725 4575 3525 4400 
L 5150 4400 
L 5500 4750 
L 6000 4250 
L 1375 4250 
Q 1400 2750 1287 1912 
Q 1175 1075 925 475 
Q 675 -125 300 -625 
L 225 -575 
Q 725 300 862 1250 
Q 1000 2200 1012 3187 
Q 1025 4175 975 4650 
z
" transform="scale(0.015625)"/>
       <path id="SimSun-67" d="M 875 1975 
Q 875 1675 1050 1462 
Q 1225 1250 1525 1250 
Q 1850 1250 2012 1437 
Q 2175 1625 2175 1975 
Q 2175 2400 1987 2587 
Q 1800 2775 1525 2775 
Q 1250 2775 1062 2587 
Q 875 2400 875 1975 
z
M 2100 625 
Q 2475 575 2650 412 
Q 2825 250 2825 -25 
Q 2825 -400 2512 -625 
Q 2200 -850 1525 -850 
Q 1000 -850 675 -637 
Q 350 -425 350 -150 
Q 350 25 475 200 
Q 600 375 875 475 
Q 725 550 637 637 
Q 550 725 550 850 
Q 550 1000 650 1112 
Q 750 1225 900 1300 
Q 750 1425 637 1600 
Q 525 1775 525 1975 
Q 525 2350 787 2637 
Q 1050 2925 1525 2925 
Q 1725 2925 1912 2875 
Q 2100 2825 2225 2700 
Q 2400 2825 2537 2887 
Q 2675 2950 2775 2950 
Q 2900 2950 2950 2862 
Q 3000 2775 3000 2700 
Q 3000 2600 2962 2537 
Q 2925 2475 2825 2475 
Q 2750 2475 2700 2512 
Q 2650 2550 2625 2625 
Q 2600 2700 2512 2687 
Q 2425 2675 2325 2600 
Q 2425 2500 2475 2325 
Q 2525 2150 2525 1975 
Q 2525 1675 2287 1387 
Q 2050 1100 1525 1100 
Q 1375 1100 1250 1137 
Q 1125 1175 1050 1225 
Q 950 1175 900 1100 
Q 850 1025 850 975 
Q 850 875 900 825 
Q 950 775 1050 775 
Q 1375 725 1637 687 
Q 1900 650 2100 625 
z
M 1075 425 
Q 850 325 762 187 
Q 675 50 675 -150 
Q 675 -350 900 -525 
Q 1125 -700 1575 -700 
Q 2000 -700 2250 -562 
Q 2500 -425 2500 -150 
Q 2500 25 2437 125 
Q 2375 225 2250 250 
Q 2000 300 1700 350 
Q 1400 375 1075 425 
z
" transform="scale(0.015625)"/>
      </defs>
      <use xlink:href="#SimSun-83cc"/>
      <use xlink:href="#SimSun-4f53" x="100"/>
      <use xlink:href="#SimSun-6d53" x="200"/>
      <use xlink:href="#SimSun-5ea6" x="300"/>
      <use xlink:href="#SimSun-2f" x="400"/>
      <use xlink:href="#SimSun-67" x="450"/>
      <use xlink:href="#SimSun-2f" x="500"/>
      <use xlink:href="#SimSun-68" x="550"/>
     </g>
    </g>
   </g>
   <g id="line2d_33">
    <path d="M 50.555469 371.575385 
L 55.415469 370.56502 
L 58.655469 369.698993 
L 61.895469 368.637785 
L 65.135469 367.339309 
L 68.375469 365.749615 
L 71.615469 363.803738 
L 74.855469 361.426542 
L 78.095469 358.525379 
L 79.715469 356.844168 
L 81.335469 354.988396 
L 82.955469 352.938855 
L 84.575469 350.678033 
L 86.195469 348.185027 
L 87.815469 345.433569 
L 89.435469 342.405582 
L 91.055469 339.078185 
L 92.675469 335.417483 
L 94.295469 331.389582 
L 95.915469 326.969058 
L 97.535469 322.127668 
L 99.155469 316.831514 
L 100.775469 311.032578 
L 102.395469 304.730862 
L 104.015469 297.929188 
L 105.635469 290.593662 
L 108.875469 274.377545 
L 113.735469 248.939058 
L 115.355469 242.651465 
L 116.975469 239.589582 
L 118.595469 237.990849 
L 123.455469 232.271003 
L 131.555469 222.661662 
L 138.035469 215.238572 
L 144.515469 208.16856 
L 150.995469 201.437502 
L 159.095469 193.359102 
L 167.195469 185.588585 
L 181.775469 171.973938 
L 188.255469 166.158055 
L 196.355469 159.167132 
L 204.455469 152.475618 
L 212.555469 146.086338 
L 222.275469 138.776234 
L 228.755469 134.098671 
L 235.235469 129.638603 
L 243.335469 124.345274 
L 253.055469 118.317545 
L 266.015469 110.679785 
L 275.735469 105.228277 
L 285.455469 100.070529 
L 293.555469 96.011557 
L 303.275469 91.497822 
L 316.235469 85.690412 
L 345.395469 73.115225 
L 353.495469 69.912111 
L 358.355469 68.160849 
L 364.835469 66.067809 
L 371.315469 64.212037 
L 379.415469 62.161366 
L 390.755469 59.574018 
L 402.095469 57.158972 
L 424.775469 52.470111 
L 437.735469 49.7952 
L 445.835469 48.39984 
L 452.315469 47.521385 
L 458.795469 46.866074 
L 468.515469 46.134498 
L 481.475469 45.431169 
L 502.535469 44.301323 
L 536.555469 42.033157 
L 547.895469 41.329828 
L 573.815469 39.327175 
L 581.915469 39.070135 
L 599.735469 38.635145 
L 606.215469 38.194505 
L 615.935469 37.239785 
L 628.895469 35.926338 
L 635.375469 35.539366 
L 643.475469 35.324695 
L 653.195469 35.344468 
L 672.635469 35.720142 
L 682.355469 36.129711 
L 696.935469 36.872585 
L 696.935469 36.872585 
" clip-path="url(#p15c7d4af9c)" style="fill: none; stroke: #0000ff; stroke-width: 2; stroke-linecap: square"/>
   </g>
   <g id="line2d_34">
    <path d="M 50.555469 371.351161 
L 52.175469 372.096045 
L 53.795469 370.580974 
L 57.035469 370.826154 
L 60.275469 368.495555 
L 61.895469 368.531122 
L 63.515469 367.996245 
L 65.135469 366.890993 
L 66.755469 365.2845 
L 68.375469 365.654447 
L 69.995469 364.702206 
L 71.615469 364.110831 
L 73.235469 362.944356 
L 74.855469 360.721078 
L 76.475469 361.070854 
L 78.095469 358.626909 
L 79.715469 355.668394 
L 81.335469 355.680299 
L 82.955469 352.246471 
L 84.575469 350.087067 
L 86.195469 346.933996 
L 87.815469 344.642898 
L 89.435469 341.824816 
L 91.055469 338.642463 
L 92.675469 336.296773 
L 94.295469 329.710127 
L 95.915469 326.608036 
L 97.535469 320.652184 
L 99.155469 316.304578 
L 100.775469 313.083242 
L 102.395469 302.656429 
L 104.015469 297.482162 
L 105.635469 292.877152 
L 107.255469 280.220845 
L 108.875469 273.452349 
L 110.495469 265.039749 
L 112.115469 254.93987 
L 113.735469 250.187076 
L 116.975469 236.976556 
L 118.595469 232.728894 
L 120.215469 243.057285 
L 121.835469 231.205696 
L 123.455469 232.399361 
L 125.075469 225.84443 
L 126.695469 221.930451 
L 128.315469 223.767505 
L 129.935469 222.340149 
L 131.555469 223.242311 
L 133.175469 224.630982 
L 134.795469 223.852034 
L 136.415469 216.581273 
L 138.035469 214.082537 
L 139.655469 223.918208 
L 141.275469 213.182698 
L 142.895469 211.206488 
L 144.515469 210.295534 
L 146.135469 210.805866 
L 147.755469 202.454764 
L 149.375469 203.84367 
L 150.995469 209.079445 
L 152.615469 199.650616 
L 154.235469 201.095997 
L 155.855469 201.117318 
L 157.475469 202.023635 
L 159.095469 195.489858 
L 160.715469 195.411647 
L 162.335469 192.864482 
L 163.955469 193.087321 
L 165.575469 186.983506 
L 167.195469 185.861484 
L 168.815469 184.579666 
L 170.435469 183.678497 
L 172.055469 182.503896 
L 173.675469 178.605936 
L 175.295469 181.146226 
L 176.915469 178.524162 
L 178.535469 168.605902 
L 180.155469 176.97116 
L 181.775469 179.154616 
L 183.395469 171.937461 
L 185.015469 173.947764 
L 186.635469 169.166221 
L 188.255469 165.009707 
L 189.875469 164.71306 
L 191.495469 159.50548 
L 193.115469 162.114056 
L 194.735469 162.823814 
L 196.355469 161.570645 
L 197.975469 160.047556 
L 199.595469 160.906912 
L 201.215469 159.517549 
L 202.835469 155.155173 
L 204.455469 156.450379 
L 206.075469 151.242045 
L 207.695469 153.128843 
L 209.315469 147.681127 
L 210.935469 149.936029 
L 212.555469 149.662601 
L 214.175469 144.513549 
L 215.795469 146.363792 
L 217.415469 143.125935 
L 219.035469 145.967216 
L 220.655469 134.744156 
L 222.275469 139.451442 
L 223.895469 149.988742 
L 225.515469 139.110212 
L 227.135469 135.683472 
L 228.755469 140.970896 
L 230.375469 127.68605 
L 231.995469 131.163397 
L 233.615469 129.128474 
L 235.235469 130.893364 
L 236.855469 134.2554 
L 238.475469 130.271499 
L 240.095469 127.986394 
L 241.715469 129.063528 
L 243.335469 126.581422 
L 244.955469 125.18106 
L 246.575469 117.634497 
L 248.195469 124.040431 
L 249.815469 118.728828 
L 251.435469 120.45347 
L 253.055469 112.083374 
L 254.675469 115.542604 
L 256.295469 112.143522 
L 257.915469 116.319257 
L 259.535469 117.632218 
L 261.155469 109.878166 
L 262.775469 111.84905 
L 264.395469 110.262013 
L 266.015469 107.650273 
L 267.635469 110.77877 
L 269.255469 109.066834 
L 270.875469 110.027945 
L 272.495469 108.697784 
L 274.115469 107.176629 
L 275.735469 99.949009 
L 277.355469 99.837439 
L 278.975469 101.754355 
L 280.595469 101.023761 
L 282.215469 100.559649 
L 283.835469 97.472958 
L 285.455469 96.843544 
L 287.075469 95.667617 
L 288.695469 95.652102 
L 290.315469 94.616082 
L 291.935469 94.762495 
L 293.555469 94.383549 
L 295.175469 94.437758 
L 296.795469 93.917049 
L 298.415469 90.775286 
L 300.035469 94.336531 
L 301.655469 89.119348 
L 303.275469 89.467599 
L 304.895469 90.907205 
L 306.515469 89.176561 
L 308.135469 89.748398 
L 311.375469 87.995289 
L 312.995469 88.393781 
L 314.615469 85.214275 
L 316.235469 88.76161 
L 317.855469 85.791135 
L 319.475469 88.746148 
L 321.095469 78.659885 
L 322.715469 79.567219 
L 324.335469 79.065646 
L 325.955469 77.822956 
L 327.575469 79.617518 
L 329.195469 76.853988 
L 330.815469 74.440219 
L 332.435469 75.822582 
L 334.055469 73.668341 
L 335.675469 76.033657 
L 337.295469 75.948738 
L 338.915469 68.441845 
L 340.535469 73.635684 
L 342.155469 69.429065 
L 343.775469 69.021436 
L 345.395469 70.178189 
L 347.015469 72.045324 
L 348.635469 70.759032 
L 350.255469 67.875928 
L 351.875469 60.998457 
L 353.495469 68.465544 
L 355.115469 64.536735 
L 356.735469 69.478982 
L 358.355469 65.936364 
L 359.975469 72.46755 
L 361.595469 62.740358 
L 363.215469 60.640441 
L 364.835469 61.424489 
L 366.455469 64.005939 
L 368.075469 64.01781 
L 369.695469 66.959456 
L 371.315469 67.988008 
L 372.935469 61.355362 
L 374.555469 60.519834 
L 376.175469 63.364933 
L 377.795469 56.249386 
L 379.415469 56.319849 
L 381.035469 61.408948 
L 382.655469 57.512148 
L 384.275469 58.430915 
L 385.895469 54.530516 
L 387.515469 55.843054 
L 389.135469 54.131923 
L 390.755469 47.270191 
L 392.375469 52.968005 
L 393.995469 57.928973 
L 395.615469 63.949798 
L 397.235469 52.128251 
L 398.855469 46.760519 
L 400.475469 52.780668 
L 402.095469 55.034623 
L 403.715469 58.565077 
L 405.335469 47.098795 
L 406.955469 58.987203 
L 408.575469 44.87001 
L 410.195469 48.237126 
L 411.815469 42.926143 
L 413.435469 47.290581 
L 415.055469 49.879917 
L 416.675469 49.660357 
L 418.295469 58.123336 
L 419.915469 42.274218 
L 421.535469 45.937918 
L 423.155469 51.489324 
L 424.775469 44.348873 
L 426.395469 43.590481 
L 428.015469 49.1551 
L 429.635469 59.469139 
L 431.255469 46.642669 
L 434.495469 55.507778 
L 436.115469 46.597894 
L 437.735469 49.895771 
L 439.355469 51.489545 
L 440.975469 54.397522 
L 442.595469 48.6015 
L 444.215469 49.472892 
L 445.835469 55.430142 
L 447.455469 46.899626 
L 449.075469 50.384237 
L 450.695469 55.4937 
L 452.315469 53.472622 
L 453.935469 47.159869 
L 455.555469 46.369379 
L 457.175469 57.117777 
L 458.795469 41.567189 
L 462.035469 56.546481 
L 463.655469 51.260209 
L 465.275469 44.300754 
L 468.515469 55.970575 
L 470.135469 48.839115 
L 471.755469 49.927792 
L 473.375469 50.336107 
L 474.995469 50.029187 
L 476.615469 46.178227 
L 478.235469 49.764684 
L 479.855469 48.394949 
L 481.475469 46.726845 
L 483.095469 47.634948 
L 484.715469 48.857189 
L 486.335469 49.052206 
L 487.955469 44.429342 
L 491.195469 48.788768 
L 492.815469 47.514131 
L 494.435469 46.831696 
L 496.055469 50.509129 
L 497.675469 47.470117 
L 499.295469 44.800939 
L 500.915469 50.734239 
L 502.535469 47.319902 
L 504.155469 45.824204 
L 505.775469 42.909893 
L 507.395469 47.222757 
L 509.015469 43.460087 
L 510.635469 42.151745 
L 512.255469 44.500731 
L 513.875469 47.45838 
L 515.495469 40.742649 
L 517.115469 45.431105 
L 518.735469 45.249614 
L 520.355469 42.535156 
L 521.975469 45.488793 
L 523.595469 44.514799 
L 525.215469 45.43931 
L 526.835469 45.639295 
L 528.455469 49.175608 
L 530.075469 45.317113 
L 531.695469 44.473993 
L 533.315469 47.852956 
L 536.555469 44.978115 
L 538.175469 45.760938 
L 539.795469 47.16053 
L 541.415469 45.82843 
L 543.035469 44.015884 
L 544.655469 45.842483 
L 546.275469 45.902161 
L 547.895469 46.468741 
L 549.515469 48.200576 
L 551.135469 46.780672 
L 552.755469 42.414229 
L 554.375469 40.20966 
L 555.995469 44.321045 
L 557.615469 43.211803 
L 559.235469 45.642096 
L 560.855469 45.141997 
L 562.475469 42.177146 
L 564.095469 44.093285 
L 565.715469 45.398002 
L 567.335469 42.071621 
L 568.955469 44.954026 
L 570.575469 45.166176 
L 572.195469 44.127971 
L 573.815469 41.448204 
L 575.435469 41.590438 
L 577.055469 43.094885 
L 578.675469 43.615985 
L 580.295469 45.198028 
L 581.915469 45.215243 
L 583.535469 44.629612 
L 585.155469 43.764701 
L 586.775469 43.263174 
L 590.015469 41.477337 
L 591.635469 41.846806 
L 593.255469 40.628552 
L 594.875469 38.631545 
L 596.495469 39.162953 
L 598.115469 38.964986 
L 599.735469 43.012218 
L 601.355469 38.250822 
L 602.975469 40.051002 
L 604.595469 41.655727 
L 606.215469 38.612836 
L 607.835469 40.943482 
L 609.455469 36.735929 
L 611.075469 37.686435 
L 612.695469 40.680246 
L 615.935469 40.672212 
L 617.555469 39.082984 
L 619.175469 37.320908 
L 620.795469 37.477649 
L 622.415469 40.750873 
L 624.035469 37.449896 
L 625.655469 38.199759 
L 627.275469 38.805248 
L 628.895469 34.756982 
L 630.515469 39.610882 
L 632.135469 37.911228 
L 633.755469 39.728188 
L 635.375469 43.144422 
L 636.995469 37.67903 
L 638.615469 42.124303 
L 640.235469 43.07279 
L 641.855469 37.450876 
L 643.475469 37.531811 
L 645.095469 38.11017 
L 646.715469 40.039411 
L 648.335469 39.891446 
L 649.955469 40.053951 
L 651.575469 40.642654 
L 653.195469 40.919442 
L 654.815469 40.941889 
L 656.435469 40.842382 
L 658.055469 34.228392 
L 659.675469 40.935664 
L 661.295469 40.138913 
L 662.915469 41.285132 
L 664.535469 41.639868 
L 666.155469 41.357044 
L 667.775469 36.439613 
L 669.395469 41.062733 
L 671.015469 36.378041 
L 672.635469 36.909546 
L 674.255469 37.054566 
L 675.875469 35.368498 
L 677.495469 36.89215 
L 679.115469 38.797255 
L 682.355469 34.626634 
L 683.975469 41.256274 
L 685.595469 41.999162 
L 687.215469 36.385965 
L 688.835469 36.107329 
L 690.455469 36.367013 
L 692.075469 42.09478 
L 693.695469 37.354324 
L 695.315469 35.918542 
L 696.935469 39.143162 
L 696.935469 39.143162 
" clip-path="url(#p15c7d4af9c)" style="fill: none; stroke: #008000; stroke-width: 2; stroke-linecap: square"/>
   </g>
   <g id="patch_3">
    <path d="M 50.555469 374.4 
L 50.555469 7.2 
" style="fill: none; stroke: #000000; stroke-width: 0.8; stroke-linejoin: miter; stroke-linecap: square"/>
   </g>
   <g id="patch_4">
    <path d="M 698.555469 374.4 
L 698.555469 7.2 
" style="fill: none; stroke: #000000; stroke-width: 0.8; stroke-linejoin: miter; stroke-linecap: square"/>
   </g>
   <g id="patch_5">
    <path d="M 50.555469 374.4 
L 698.555469 374.4 
" style="fill: none; stroke: #000000; stroke-width: 0.8; stroke-linejoin: miter; stroke-linecap: square"/>
   </g>
   <g id="patch_6">
    <path d="M 50.555469 7.2 
L 698.555469 7.2 
" style="fill: none; stroke: #000000; stroke-width: 0.8; stroke-linejoin: miter; stroke-linecap: square"/>
   </g>
   <g id="legend_1">
    <g id="patch_7">
     <path d="M 64.555469 79.75625 
L 218.058594 79.75625 
Q 222.058594 79.75625 222.058594 75.75625 
L 222.058594 21.2 
Q 222.058594 17.2 218.058594 17.2 
L 64.555469 17.2 
Q 60.555469 17.2 60.555469 21.2 
L 60.555469 75.75625 
Q 60.555469 79.75625 64.555469 79.75625 
z
" style="fill: #ffffff; opacity: 0.8; stroke: #cccccc; stroke-linejoin: miter"/>
    </g>
    <g id="line2d_35">
     <path d="M 68.555469 32.2 
L 88.555469 32.2 
L 108.555469 32.2 
" style="fill: none; stroke: #0000ff; stroke-width: 2; stroke-linecap: square"/>
    </g>
    <g id="text_19">
     <!-- Real Value -->
     <g transform="translate(124.555469 39.2) scale(0.2 -0.2)">
      <defs>
       <path id="TimesNewRomanPSMT-52" d="M 4325 0 
L 3194 0 
L 1759 1981 
Q 1600 1975 1500 1975 
Q 1459 1975 1412 1976 
Q 1366 1978 1316 1981 
L 1316 750 
Q 1316 350 1403 253 
Q 1522 116 1759 116 
L 1925 116 
L 1925 0 
L 109 0 
L 109 116 
L 269 116 
Q 538 116 653 291 
Q 719 388 719 750 
L 719 3488 
Q 719 3888 631 3984 
Q 509 4122 269 4122 
L 109 4122 
L 109 4238 
L 1653 4238 
Q 2328 4238 2648 4139 
Q 2969 4041 3192 3777 
Q 3416 3513 3416 3147 
Q 3416 2756 3161 2468 
Q 2906 2181 2372 2063 
L 3247 847 
Q 3547 428 3762 290 
Q 3978 153 4325 116 
L 4325 0 
z
M 1316 2178 
Q 1375 2178 1419 2176 
Q 1463 2175 1491 2175 
Q 2097 2175 2405 2437 
Q 2713 2700 2713 3106 
Q 2713 3503 2464 3751 
Q 2216 4000 1806 4000 
Q 1625 4000 1316 3941 
L 1316 2178 
z
" transform="scale(0.015625)"/>
       <path id="TimesNewRomanPSMT-65" d="M 681 1784 
Q 678 1147 991 784 
Q 1303 422 1725 422 
Q 2006 422 2214 576 
Q 2422 731 2563 1106 
L 2659 1044 
Q 2594 616 2278 264 
Q 1963 -88 1488 -88 
Q 972 -88 605 314 
Q 238 716 238 1394 
Q 238 2128 614 2539 
Q 991 2950 1559 2950 
Q 2041 2950 2350 2633 
Q 2659 2316 2659 1784 
L 681 1784 
z
M 681 1966 
L 2006 1966 
Q 1991 2241 1941 2353 
Q 1863 2528 1708 2628 
Q 1553 2728 1384 2728 
Q 1125 2728 920 2526 
Q 716 2325 681 1966 
z
" transform="scale(0.015625)"/>
       <path id="TimesNewRomanPSMT-61" d="M 1822 413 
Q 1381 72 1269 19 
Q 1100 -59 909 -59 
Q 613 -59 420 144 
Q 228 347 228 678 
Q 228 888 322 1041 
Q 450 1253 767 1440 
Q 1084 1628 1822 1897 
L 1822 2009 
Q 1822 2438 1686 2597 
Q 1550 2756 1291 2756 
Q 1094 2756 978 2650 
Q 859 2544 859 2406 
L 866 2225 
Q 866 2081 792 2003 
Q 719 1925 600 1925 
Q 484 1925 411 2006 
Q 338 2088 338 2228 
Q 338 2497 613 2722 
Q 888 2947 1384 2947 
Q 1766 2947 2009 2819 
Q 2194 2722 2281 2516 
Q 2338 2381 2338 1966 
L 2338 994 
Q 2338 584 2353 492 
Q 2369 400 2405 369 
Q 2441 338 2488 338 
Q 2538 338 2575 359 
Q 2641 400 2828 588 
L 2828 413 
Q 2478 -56 2159 -56 
Q 2006 -56 1915 50 
Q 1825 156 1822 413 
z
M 1822 616 
L 1822 1706 
Q 1350 1519 1213 1441 
Q 966 1303 859 1153 
Q 753 1003 753 825 
Q 753 600 887 451 
Q 1022 303 1197 303 
Q 1434 303 1822 616 
z
" transform="scale(0.015625)"/>
       <path id="TimesNewRomanPSMT-6c" d="M 1184 4444 
L 1184 647 
Q 1184 378 1223 290 
Q 1263 203 1344 158 
Q 1425 113 1647 113 
L 1647 0 
L 244 0 
L 244 113 
Q 441 113 512 153 
Q 584 194 625 287 
Q 666 381 666 647 
L 666 3247 
Q 666 3731 644 3842 
Q 622 3953 573 3993 
Q 525 4034 450 4034 
Q 369 4034 244 3984 
L 191 4094 
L 1044 4444 
L 1184 4444 
z
" transform="scale(0.015625)"/>
       <path id="TimesNewRomanPSMT-20" transform="scale(0.015625)"/>
       <path id="TimesNewRomanPSMT-56" d="M 4544 4238 
L 4544 4122 
Q 4319 4081 4203 3978 
Q 4038 3825 3909 3509 
L 2431 -97 
L 2316 -97 
L 728 3556 
Q 606 3838 556 3900 
Q 478 3997 364 4051 
Q 250 4106 56 4122 
L 56 4238 
L 1788 4238 
L 1788 4122 
Q 1494 4094 1406 4022 
Q 1319 3950 1319 3838 
Q 1319 3681 1463 3350 
L 2541 866 
L 3541 3319 
Q 3688 3681 3688 3822 
Q 3688 3913 3597 3995 
Q 3506 4078 3291 4113 
Q 3275 4116 3238 4122 
L 3238 4238 
L 4544 4238 
z
" transform="scale(0.015625)"/>
       <path id="TimesNewRomanPSMT-75" d="M 2709 2863 
L 2709 1128 
Q 2709 631 2732 520 
Q 2756 409 2807 365 
Q 2859 322 2928 322 
Q 3025 322 3147 375 
L 3191 266 
L 2334 -88 
L 2194 -88 
L 2194 519 
Q 1825 119 1631 15 
Q 1438 -88 1222 -88 
Q 981 -88 804 51 
Q 628 191 559 409 
Q 491 628 491 1028 
L 491 2306 
Q 491 2509 447 2587 
Q 403 2666 317 2708 
Q 231 2750 6 2747 
L 6 2863 
L 1009 2863 
L 1009 947 
Q 1009 547 1148 422 
Q 1288 297 1484 297 
Q 1619 297 1789 381 
Q 1959 466 2194 703 
L 2194 2325 
Q 2194 2569 2105 2655 
Q 2016 2741 1734 2747 
L 1734 2863 
L 2709 2863 
z
" transform="scale(0.015625)"/>
      </defs>
      <use xlink:href="#TimesNewRomanPSMT-52"/>
      <use xlink:href="#TimesNewRomanPSMT-65" x="66.699219"/>
      <use xlink:href="#TimesNewRomanPSMT-61" x="111.083984"/>
      <use xlink:href="#TimesNewRomanPSMT-6c" x="155.46875"/>
      <use xlink:href="#TimesNewRomanPSMT-20" x="183.251953"/>
      <use xlink:href="#TimesNewRomanPSMT-56" x="206.501953"/>
      <use xlink:href="#TimesNewRomanPSMT-61" x="267.59375"/>
      <use xlink:href="#TimesNewRomanPSMT-6c" x="311.978516"/>
      <use xlink:href="#TimesNewRomanPSMT-75" x="339.761719"/>
      <use xlink:href="#TimesNewRomanPSMT-65" x="389.761719"/>
     </g>
    </g>
    <g id="line2d_36">
     <path d="M 68.555469 60.478125 
L 88.555469 60.478125 
L 108.555469 60.478125 
" style="fill: none; stroke: #008000; stroke-width: 2; stroke-linecap: square"/>
    </g>
    <g id="text_20">
     <!-- JITL-RVM -->
     <g transform="translate(124.555469 67.478125) scale(0.2 -0.2)">
      <defs>
       <path id="TimesNewRomanPSMT-4a" d="M 638 4122 
L 638 4238 
L 2453 4238 
L 2453 4122 
L 2300 4122 
Q 2041 4122 1922 3969 
Q 1847 3869 1847 3488 
L 1847 1416 
Q 1847 938 1742 641 
Q 1638 344 1381 123 
Q 1125 -97 763 -97 
Q 469 -97 300 48 
Q 131 194 131 381 
Q 131 534 209 613 
Q 313 709 450 709 
Q 550 709 629 643 
Q 709 578 831 294 
Q 903 125 1016 125 
Q 1100 125 1173 228 
Q 1247 331 1247 594 
L 1247 3488 
Q 1247 3809 1206 3913 
Q 1175 3991 1075 4047 
Q 941 4122 791 4122 
L 638 4122 
z
" transform="scale(0.015625)"/>
       <path id="TimesNewRomanPSMT-49" d="M 1975 116 
L 1975 0 
L 159 0 
L 159 116 
L 309 116 
Q 572 116 691 269 
Q 766 369 766 750 
L 766 3488 
Q 766 3809 725 3913 
Q 694 3991 597 4047 
Q 459 4122 309 4122 
L 159 4122 
L 159 4238 
L 1975 4238 
L 1975 4122 
L 1822 4122 
Q 1563 4122 1444 3969 
Q 1366 3869 1366 3488 
L 1366 750 
Q 1366 428 1406 325 
Q 1438 247 1538 191 
Q 1672 116 1822 116 
L 1975 116 
z
" transform="scale(0.015625)"/>
       <path id="TimesNewRomanPSMT-54" d="M 3703 4238 
L 3750 3244 
L 3631 3244 
Q 3597 3506 3538 3619 
Q 3441 3800 3280 3886 
Q 3119 3972 2856 3972 
L 2259 3972 
L 2259 734 
Q 2259 344 2344 247 
Q 2463 116 2709 116 
L 2856 116 
L 2856 0 
L 1059 0 
L 1059 116 
L 1209 116 
Q 1478 116 1591 278 
Q 1659 378 1659 734 
L 1659 3972 
L 1150 3972 
Q 853 3972 728 3928 
Q 566 3869 450 3700 
Q 334 3531 313 3244 
L 194 3244 
L 244 4238 
L 3703 4238 
z
" transform="scale(0.015625)"/>
       <path id="TimesNewRomanPSMT-4c" d="M 3669 1172 
L 3772 1150 
L 3409 0 
L 128 0 
L 128 116 
L 288 116 
Q 556 116 672 291 
Q 738 391 738 753 
L 738 3488 
Q 738 3884 650 3984 
Q 528 4122 288 4122 
L 128 4122 
L 128 4238 
L 2047 4238 
L 2047 4122 
Q 1709 4125 1573 4059 
Q 1438 3994 1388 3894 
Q 1338 3794 1338 3416 
L 1338 753 
Q 1338 494 1388 397 
Q 1425 331 1503 300 
Q 1581 269 1991 269 
L 2300 269 
Q 2788 269 2984 341 
Q 3181 413 3343 595 
Q 3506 778 3669 1172 
z
" transform="scale(0.015625)"/>
       <path id="TimesNewRomanPSMT-2d" d="M 259 1672 
L 1875 1672 
L 1875 1200 
L 259 1200 
L 259 1672 
z
" transform="scale(0.015625)"/>
       <path id="TimesNewRomanPSMT-4d" d="M 2619 0 
L 981 3566 
L 981 734 
Q 981 344 1066 247 
Q 1181 116 1431 116 
L 1581 116 
L 1581 0 
L 106 0 
L 106 116 
L 256 116 
Q 525 116 638 278 
Q 706 378 706 734 
L 706 3503 
Q 706 3784 644 3909 
Q 600 4000 483 4061 
Q 366 4122 106 4122 
L 106 4238 
L 1306 4238 
L 2844 922 
L 4356 4238 
L 5556 4238 
L 5556 4122 
L 5409 4122 
Q 5138 4122 5025 3959 
Q 4956 3859 4956 3503 
L 4956 734 
Q 4956 344 5044 247 
Q 5159 116 5409 116 
L 5556 116 
L 5556 0 
L 3756 0 
L 3756 116 
L 3906 116 
Q 4178 116 4288 278 
Q 4356 378 4356 734 
L 4356 3566 
L 2722 0 
L 2619 0 
z
" transform="scale(0.015625)"/>
      </defs>
      <use xlink:href="#TimesNewRomanPSMT-4a"/>
      <use xlink:href="#TimesNewRomanPSMT-49" x="38.916016"/>
      <use xlink:href="#TimesNewRomanPSMT-54" x="72.216797"/>
      <use xlink:href="#TimesNewRomanPSMT-4c" x="133.300781"/>
      <use xlink:href="#TimesNewRomanPSMT-2d" x="194.384766"/>
      <use xlink:href="#TimesNewRomanPSMT-52" x="227.685547"/>
      <use xlink:href="#TimesNewRomanPSMT-56" x="286.384766"/>
      <use xlink:href="#TimesNewRomanPSMT-4d" x="358.601562"/>
     </g>
    </g>
   </g>
  </g>
 </g>
 <defs>
  <clipPath id="p15c7d4af9c">
   <rect x="50.555469" y="7.2" width="648" height="367.2"/>
  </clipPath>
 </defs>
</svg>
